SplineFontDB: 3.0
FontName: PortLligatSans-Regular
FullName: Port Lligat Sans
FamilyName: Port Lligat Sans
Weight: Book
Copyright: Copyright (c) 2011, Tipo (http://www.tipo.net.ar), with Reserved Font Name "Port Lligat Sans"
Version: 1.001
ItalicAngle: 0
UnderlinePosition: -50
UnderlineWidth: 50
Ascent: 800
Descent: 200
sfntRevision: 0x00010042
LayerCount: 2
Layer: 0 1 "Back"  1
Layer: 1 1 "Fore"  0
XUID: [1021 324 491393686 12457262]
FSType: 0
OS2Version: 2
OS2_WeightWidthSlopeOnly: 0
OS2_UseTypoMetrics: 1
CreationTime: 1326325475
ModificationTime: 1326322699
PfmFamily: 17
TTFWeight: 400
TTFWidth: 5
LineGap: 0
VLineGap: 0
Panose: 2 0 0 0 0 0 0 0 0 0
OS2TypoAscent: 60
OS2TypoAOffset: 1
OS2TypoDescent: -11
OS2TypoDOffset: 1
OS2TypoLinegap: 0
OS2WinAscent: 0
OS2WinAOffset: 1
OS2WinDescent: 0
OS2WinDOffset: 1
HheadAscent: 0
HheadAOffset: 1
HheadDescent: 0
HheadDOffset: 1
OS2SubXSize: 700
OS2SubYSize: 650
OS2SubXOff: 0
OS2SubYOff: 140
OS2SupXSize: 700
OS2SupYSize: 650
OS2SupXOff: 0
OS2SupYOff: 477
OS2StrikeYSize: 50
OS2StrikeYPos: 250
OS2Vendor: 'pyrs'
OS2CodePages: 20000001.00000000
OS2UnicodeRanges: 800000af.4000204b.00000000.00000000
Lookup: 258 0 0 "'kern' Horizontal Kerning in Latin lookup 0"  {"'kern' Horizontal Kerning in Latin lookup 0 subtable"  } ['kern' ('DFLT' <'dflt' > 'latn' <'dflt' > ) ]
DEI: 91125
TtTable: prep
PUSHW_1
 511
SCANCTRL
PUSHB_1
 4
SCANTYPE
EndTTInstrs
ShortTable: maxp 16
  1
  0
  262
  89
  7
  0
  0
  2
  0
  1
  1
  0
  64
  0
  0
  0
EndShort
LangName: 1033 "" "" "" "Tipo: Port Lligat Sans: 2011" "" "Version 1.001" "" "Port Lligat Sans is a trademark of Tipo." "Tipo" "Dario Muhafara, Eduardo Rodriguez Tunni" "" "http://www.tipo.net.ar" "http://www.tipo.net.ar" "This Font Software is licensed under the SIL Open Font License, Version 1.1. This license is available with a FAQ at: http://scripts.sil.org/OFL" "http://scripts.sil.org/OFL" 
GaspTable: 1 65535 15 1
Encoding: UnicodeBmp
UnicodeInterp: none
NameList: Adobe Glyph List

StartChar: exclam
Encoding: 33 33 4
Width: 270
GlyphClass: 2
Flags: W
LayerCount: 2
Fore
SplineSet
121 375 m 0,0,1
 121 559 121 559 95 663 c 1,2,3
 125 674 125 674 153 674 c 128,-1,4
 181 674 181 674 205 668 c 1,5,6
 185 479 185 479 185 245 c 0,7,8
 185 212 185 212 187 180 c 1,9,10
 168 174 168 174 153 174 c 128,-1,11
 138 174 138 174 119 180 c 1,12,13
 121 286 121 286 121 375 c 0,0,1
220 55 m 0,14,15
 220 25 220 25 202 5 c 128,-1,16
 184 -15 184 -15 147 -15 c 0,17,18
 90 -15 90 -15 90 43 c 0,19,20
 90 115 90 115 163 115 c 0,21,22
 220 115 220 115 220 55 c 0,14,15
EndSplineSet
EndChar

StartChar: quotedbl
Encoding: 34 34 5
Width: 351
GlyphClass: 2
Flags: W
LayerCount: 2
Fore
SplineSet
60 677 m 1,0,1
 83 682 83 682 112.5 682 c 128,-1,2
 142 682 142 682 151 679 c 1,3,4
 140 558 140 558 140 447 c 1,5,6
 122 441 122 441 104.5 441 c 128,-1,7
 87 441 87 441 75 444 c 1,8,9
 75 575 75 575 60 677 c 1,0,1
200 677 m 1,10,11
 223 682 223 682 252.5 682 c 128,-1,12
 282 682 282 682 291 679 c 1,13,14
 280 558 280 558 280 447 c 1,15,16
 262 441 262 441 244.5 441 c 128,-1,17
 227 441 227 441 215 444 c 1,18,19
 215 575 215 575 200 677 c 1,10,11
EndSplineSet
EndChar

StartChar: numbersign
Encoding: 35 35 6
Width: 763
GlyphClass: 2
Flags: W
LayerCount: 2
Fore
SplineSet
475 -46 m 0,0,1
 436 -46 436 -46 407 -27 c 1,2,3
 431 63 431 63 451 153 c 1,4,5
 409 154 409 154 357.5 154 c 128,-1,6
 306 154 306 154 246 152 c 1,7,8
 237 97 237 97 217 -44 c 1,9,10
 199 -46 199 -46 195 -46 c 0,11,12
 156 -46 156 -46 127 -27 c 1,13,14
 145 41 145 41 170 149 c 1,15,16
 88 146 88 146 55 140 c 1,17,18
 50 155 50 155 50 179 c 128,-1,19
 50 203 50 203 61 228 c 1,20,21
 111 223 111 223 186 221 c 1,22,23
 210 341 210 341 224 418 c 1,24,25
 139 415 139 415 107 409 c 1,26,27
 102 424 102 424 102 448 c 128,-1,28
 102 472 102 472 113 497 c 1,29,30
 164 492 164 492 237 490 c 1,31,32
 253 587 253 587 267 687 c 1,33,34
 275 688 275 688 301 688 c 128,-1,35
 327 688 327 688 356 670 c 1,36,37
 333 585 333 585 311 488 c 1,38,-1
 447 488 l 2,39,40
 487 488 487 488 517 489 c 1,41,42
 534 590 534 590 547 687 c 1,43,44
 555 688 555 688 581 688 c 128,-1,45
 607 688 607 688 636 670 c 1,46,47
 619 609 619 609 592 492 c 1,48,49
 689 498 689 498 708 502 c 1,50,51
 713 487 713 487 713 463 c 128,-1,52
 713 439 713 439 702 414 c 1,53,54
 633 419 633 419 576 420 c 1,55,56
 553 307 553 307 538 223 c 1,57,58
 637 229 637 229 656 233 c 1,59,60
 661 218 661 218 661 194 c 128,-1,61
 661 170 661 170 650 145 c 1,62,63
 583 150 583 150 526 151 c 1,64,65
 517 96 517 96 497 -44 c 1,66,67
 479 -46 479 -46 475 -46 c 0,0,1
395 219 m 2,68,69
 436 219 436 219 466 220 c 1,70,71
 488 323 488 323 505 422 c 1,72,73
 462 423 462 423 410 423 c 128,-1,74
 358 423 358 423 296 421 c 1,75,76
 276 327 276 327 257 219 c 1,77,-1
 395 219 l 2,68,69
EndSplineSet
EndChar

StartChar: dollar
Encoding: 36 36 7
Width: 550
GlyphClass: 2
Flags: W
LayerCount: 2
Fore
SplineSet
314 746 m 1,0,1
 306 664 306 664 305 653 c 1,2,3
 388 645 388 645 427.5 597 c 128,-1,4
 467 549 467 549 467 478 c 0,5,6
 467 466 467 466 464 453 c 1,7,8
 438 444 438 444 412 444 c 128,-1,9
 386 444 386 444 374 446 c 1,10,11
 375 454 375 454 375 467 c 0,12,13
 375 513 375 513 355 546 c 128,-1,14
 335 579 335 579 300 590 c 1,15,16
 293 490 293 490 290 362 c 1,17,18
 327 343 327 343 344 333.5 c 128,-1,19
 361 324 361 324 391.5 301.5 c 128,-1,20
 422 279 422 279 437 260 c 0,21,22
 477 208 477 208 477 140 c 128,-1,23
 477 72 477 72 423.5 28.5 c 128,-1,24
 370 -15 370 -15 292 -15 c 2,25,-1
 287 -15 l 1,26,27
 289 -66 289 -66 291 -79 c 1,28,29
 268 -92 268 -92 247.5 -92 c 128,-1,30
 227 -92 227 -92 214 -89 c 1,31,-1
 221 -9 l 1,32,33
 128 6 128 6 70 61 c 1,34,35
 74 85 74 85 86.5 105 c 128,-1,36
 99 125 99 125 110 132 c 1,37,-1
 120 140 l 1,38,39
 162 81 162 81 225 59 c 1,40,41
 232 169 232 169 237 295 c 1,42,43
 190 320 190 320 161 341 c 128,-1,44
 132 362 132 362 107.5 401.5 c 128,-1,45
 83 441 83 441 83 498 c 128,-1,46
 83 555 83 555 121.5 600 c 128,-1,47
 160 645 160 645 240 653 c 1,48,-1
 237 736 l 1,49,50
 256 749 256 749 277 749 c 128,-1,51
 298 749 298 749 314 746 c 1,0,1
287 65 m 2,52,-1
 287 49 l 1,53,54
 341 50 341 50 366.5 78 c 128,-1,55
 392 106 392 106 392 144.5 c 128,-1,56
 392 183 392 183 365.5 211.5 c 128,-1,57
 339 240 339 240 288 268 c 1,58,59
 287 200 287 200 287 65 c 2,52,-1
242 542 m 2,60,-1
 242 594 l 1,61,62
 169 580 169 580 169 500 c 0,63,64
 169 440 169 440 240 392 c 1,65,66
 242 444 242 444 242 542 c 2,60,-1
EndSplineSet
EndChar

StartChar: percent
Encoding: 37 37 8
Width: 889
GlyphClass: 2
Flags: W
LayerCount: 2
Fore
SplineSet
335 -46 m 0,0,1
 301 -46 301 -46 278 -27 c 1,2,3
 402 265 402 265 532 686 c 1,4,5
 548 688 548 688 558 688 c 0,6,7
 586 688 586 688 611 670 c 1,8,9
 490 391 490 391 356 -44 c 1,10,11
 340 -46 340 -46 335 -46 c 0,0,1
839 193 m 128,-1,13
 839 -9 839 -9 692 -9 c 128,-1,14
 545 -9 545 -9 545 193 c 128,-1,15
 545 395 545 395 692 395 c 128,-1,12
 839 395 839 395 839 193 c 128,-1,13
615 193 m 128,-1,17
 615 44 615 44 692.5 44 c 128,-1,18
 770 44 770 44 770 193 c 128,-1,19
 770 342 770 342 692.5 342 c 128,-1,16
 615 342 615 342 615 193 c 128,-1,17
344 451 m 128,-1,21
 344 249 344 249 197 249 c 128,-1,22
 50 249 50 249 50 451 c 128,-1,23
 50 653 50 653 197 653 c 128,-1,20
 344 653 344 653 344 451 c 128,-1,21
120 451 m 128,-1,25
 120 302 120 302 197.5 302 c 128,-1,26
 275 302 275 302 275 451 c 128,-1,27
 275 600 275 600 197.5 600 c 128,-1,24
 120 600 120 600 120 451 c 128,-1,25
EndSplineSet
EndChar

StartChar: ampersand
Encoding: 38 38 9
Width: 594
GlyphClass: 2
Flags: W
LayerCount: 2
Fore
SplineSet
127 609 m 128,-1,1
 181 655 181 655 247 655 c 128,-1,2
 313 655 313 655 358.5 623 c 128,-1,3
 404 591 404 591 404 530 c 0,4,5
 404 523 404 523 402 507 c 1,6,7
 376 499 376 499 355.5 499 c 128,-1,8
 335 499 335 499 311 501 c 1,9,10
 312 508 312 508 312 520 c 0,11,12
 312 554 312 554 295 576.5 c 128,-1,13
 278 599 278 599 241 599 c 128,-1,14
 204 599 204 599 180 559 c 128,-1,15
 156 519 156 519 156 477 c 0,16,17
 156 403 156 403 198 377.5 c 128,-1,18
 240 352 240 352 342 352 c 0,19,20
 375 352 375 352 393 353 c 1,21,-1
 388 426 l 1,22,23
 413 434 413 434 440.5 434 c 128,-1,24
 468 434 468 434 486 430 c 1,25,-1
 477 352 l 1,26,27
 498 353 498 353 568 357 c 1,28,29
 574 343 574 343 574 328 c 128,-1,30
 574 313 574 313 570 291 c 1,31,32
 532 292 532 292 473 296 c 1,33,34
 471 277 471 277 471 238 c 2,35,-1
 471 51 l 1,36,37
 402 -15 402 -15 281.5 -15 c 128,-1,38
 161 -15 161 -15 105.5 36.5 c 128,-1,39
 50 88 50 88 50 173 c 0,40,41
 50 289 50 289 163 332 c 1,42,43
 73 369 73 369 73 480 c 0,44,0
 73 563 73 563 127 609 c 128,-1,1
395 93 m 1,45,-1
 397 275 l 1,46,-1
 397 295 l 1,47,48
 333 297 333 297 311 297 c 0,49,50
 214 297 214 297 175.5 272 c 128,-1,51
 137 247 137 247 137 173 c 0,52,53
 137 120 137 120 172 84.5 c 128,-1,54
 207 49 207 49 276 49 c 128,-1,55
 345 49 345 49 395 93 c 1,45,-1
EndSplineSet
EndChar

StartChar: quotesingle
Encoding: 39 39 10
Width: 211
GlyphClass: 2
Flags: W
LayerCount: 2
Fore
SplineSet
60 677 m 1,0,1
 83 682 83 682 112.5 682 c 128,-1,2
 142 682 142 682 151 679 c 1,3,4
 140 558 140 558 140 447 c 1,5,6
 122 441 122 441 104.5 441 c 128,-1,7
 87 441 87 441 75 444 c 1,8,9
 75 575 75 575 60 677 c 1,0,1
EndSplineSet
EndChar

StartChar: parenleft
Encoding: 40 40 11
Width: 309
GlyphClass: 2
Flags: W
LayerCount: 2
Fore
SplineSet
147 329 m 128,-1,1
 147 114 147 114 279 -60 c 1,2,3
 235 -74 235 -74 214 -74 c 128,-1,4
 193 -74 193 -74 186 -73 c 1,5,6
 65 107 65 107 65 329.5 c 128,-1,7
 65 552 65 552 186 732 c 1,8,9
 193 733 193 733 214 733 c 128,-1,10
 235 733 235 733 279 719 c 1,11,0
 147 544 147 544 147 329 c 128,-1,1
EndSplineSet
EndChar

StartChar: parenright
Encoding: 41 41 12
Width: 309
GlyphClass: 2
Flags: W
LayerCount: 2
Fore
SplineSet
30 719 m 1,0,1
 74 733 74 733 95 733 c 128,-1,2
 116 733 116 733 123 732 c 1,3,4
 244 552 244 552 244 329.5 c 128,-1,5
 244 107 244 107 123 -73 c 1,6,7
 116 -74 116 -74 95 -74 c 128,-1,8
 74 -74 74 -74 30 -60 c 1,9,10
 162 114 162 114 162 329 c 128,-1,11
 162 544 162 544 30 719 c 1,0,1
EndSplineSet
EndChar

StartChar: asterisk
Encoding: 42 42 13
Width: 398
GlyphClass: 2
Flags: W
LayerCount: 2
Fore
SplineSet
158 670 m 1,0,1
 179 675 179 675 203.5 675 c 128,-1,2
 228 675 228 675 237 670 c 1,3,4
 230 615 230 615 228 555 c 1,5,6
 283 575 283 575 335 601 c 1,7,8
 339 594 339 594 348 572.5 c 128,-1,9
 357 551 357 551 358 525 c 1,10,11
 300 518 300 518 241 499 c 1,12,13
 280 448 280 448 321 410 c 1,14,15
 278 367 278 367 257 363 c 1,16,17
 221 432 221 432 196 465 c 1,18,19
 168 426 168 426 138 365 c 1,20,21
 110 377 110 377 93 389.5 c 128,-1,22
 76 402 76 402 73 409 c 1,23,24
 119 457 119 457 150 500 c 1,25,26
 98 517 98 517 38 525 c 1,27,28
 39 551 39 551 48.5 574 c 128,-1,29
 58 597 58 597 61 601 c 1,30,31
 115 573 115 573 171 554 c 1,32,33
 170 602 170 602 158 670 c 1,0,1
EndSplineSet
EndChar

StartChar: plus
Encoding: 43 43 14
Width: 601
GlyphClass: 2
Flags: W
LayerCount: 2
Fore
SplineSet
259 534 m 1,0,1
 281 541 281 541 307 541 c 128,-1,2
 333 541 333 541 347 538 c 1,3,4
 342 521 342 521 337.5 457.5 c 128,-1,5
 333 394 333 394 333 360 c 1,6,7
 367 360 367 360 430.5 364.5 c 128,-1,8
 494 369 494 369 511 374 c 1,9,10
 514 360 514 360 514 334 c 128,-1,11
 514 308 514 308 507 286 c 1,12,13
 431 293 431 293 333 295 c 1,14,15
 333 187 333 187 342 121 c 1,16,17
 320 114 320 114 294 114 c 128,-1,18
 268 114 268 114 254 117 c 1,19,20
 265 161 265 161 268 295 c 1,21,22
 134 292 134 292 90 281 c 1,23,24
 87 295 87 295 87 321 c 128,-1,25
 87 347 87 347 94 369 c 1,26,27
 160 360 160 360 268 360 c 1,28,29
 266 458 266 458 259 534 c 1,0,1
EndSplineSet
EndChar

StartChar: comma
Encoding: 44 44 15
Width: 261
GlyphClass: 2
Flags: W
LayerCount: 2
Fore
SplineSet
75 -152 m 1,0,1
 70 -137 70 -137 70 -127.5 c 128,-1,2
 70 -118 70 -118 73 -103 c 1,3,4
 140 -103 140 -103 140 -34 c 0,5,6
 140 -9 140 -9 114 -6 c 0,7,8
 76 -3 76 -3 76 43 c 0,9,10
 76 78 76 78 92.5 96.5 c 128,-1,11
 109 115 109 115 152 115 c 0,12,13
 211 115 211 115 211 35 c 128,-1,14
 211 -45 211 -45 179 -98.5 c 128,-1,15
 147 -152 147 -152 75 -152 c 1,0,1
EndSplineSet
EndChar

StartChar: hyphen
Encoding: 45 45 16
Width: 354
GlyphClass: 2
Flags: W
LayerCount: 2
Fore
SplineSet
66 196 m 1,0,1
 60 210 60 210 60 227 c 128,-1,2
 60 244 60 244 66 268 c 1,3,4
 255 281 255 281 288 289 c 1,5,6
 294 275 294 275 294 258 c 128,-1,7
 294 241 294 241 288 217 c 1,8,9
 99 204 99 204 66 196 c 1,0,1
EndSplineSet
EndChar

StartChar: period
Encoding: 46 46 17
Width: 270
GlyphClass: 2
Flags: W
LayerCount: 2
Fore
SplineSet
220 55 m 0,0,1
 220 25 220 25 202 5 c 128,-1,2
 184 -15 184 -15 147 -15 c 0,3,4
 90 -15 90 -15 90 43 c 0,5,6
 90 115 90 115 163 115 c 0,7,8
 220 115 220 115 220 55 c 0,0,1
EndSplineSet
EndChar

StartChar: slash
Encoding: 47 47 18
Width: 566
GlyphClass: 2
Flags: W
LayerCount: 2
Fore
SplineSet
162 -46 m 0,0,1
 123 -46 123 -46 96 -27 c 1,2,3
 246 275 246 275 393 686 c 1,4,5
 411 688 411 688 433.5 688 c 128,-1,6
 456 688 456 688 485 670 c 1,7,8
 337 378 337 378 187 -44 c 1,9,10
 169 -46 169 -46 162 -46 c 0,0,1
EndSplineSet
EndChar

StartChar: zero
Encoding: 48 48 19
Width: 567
GlyphClass: 2
Flags: W
LayerCount: 2
Fore
SplineSet
517 320 m 128,-1,1
 517 -15 517 -15 283.5 -15 c 128,-1,2
 50 -15 50 -15 50 320 c 128,-1,3
 50 655 50 655 283.5 655 c 128,-1,0
 517 655 517 655 517 320 c 128,-1,1
135 320 m 128,-1,5
 135 50 135 50 283.5 50 c 128,-1,6
 432 50 432 50 432 320 c 128,-1,7
 432 590 432 590 283.5 590 c 128,-1,4
 135 590 135 590 135 320 c 128,-1,5
EndSplineSet
EndChar

StartChar: one
Encoding: 49 49 20
Width: 355
GlyphClass: 2
Flags: W
LayerCount: 2
Fore
SplineSet
217 648 m 1,0,1
 226 649 226 649 239 649 c 128,-1,2
 252 649 252 649 263 648 c 128,-1,3
 274 647 274 647 282 647 c 1,4,5
 268 539 268 539 268 297.5 c 128,-1,6
 268 56 268 56 285 2 c 1,7,8
 252 -8 252 -8 224 -8 c 128,-1,9
 196 -8 196 -8 179 -6 c 1,10,11
 193 111 193 111 193 299 c 128,-1,12
 193 487 193 487 187 553 c 1,13,14
 75 479 75 479 56 460 c 1,15,16
 17 503 17 503 10 540 c 1,17,18
 74 566 74 566 217 648 c 1,0,1
EndSplineSet
EndChar

StartChar: two
Encoding: 50 50 21
Width: 528
GlyphClass: 2
Flags: W
LayerCount: 2
Fore
SplineSet
110 607 m 128,-1,1
 161 655 161 655 252.5 655 c 128,-1,2
 344 655 344 655 402 609.5 c 128,-1,3
 460 564 460 564 460 480 c 0,4,5
 460 431 460 431 426.5 373.5 c 128,-1,6
 393 316 393 316 351 272 c 0,7,8
 205 119 205 119 169 69 c 1,9,10
 202 68 202 68 259.5 68 c 128,-1,11
 317 68 317 68 386.5 72.5 c 128,-1,12
 456 77 456 77 474 82 c 1,13,14
 478 64 478 64 478 42 c 128,-1,15
 478 20 478 20 470 -6 c 1,16,17
 396 3 396 3 313 3 c 128,-1,18
 230 3 230 3 149 -2 c 128,-1,19
 68 -7 68 -7 49 -11 c 1,20,21
 45 1 45 1 45 24 c 1,22,23
 90 105 90 105 203 221 c 0,24,25
 245 264 245 264 284 308 c 0,26,27
 372 404 372 404 372 477 c 0,28,29
 372 521 372 521 345 558.5 c 128,-1,30
 318 596 318 596 264 596 c 128,-1,31
 210 596 210 596 175.5 562 c 128,-1,32
 141 528 141 528 141 472 c 0,33,34
 141 459 141 459 142 451 c 1,35,36
 132 449 132 449 105.5 449 c 128,-1,37
 79 449 79 449 62 458 c 1,38,39
 59 470 59 470 59 483 c 0,40,0
 59 559 59 559 110 607 c 128,-1,1
EndSplineSet
EndChar

StartChar: three
Encoding: 51 51 22
Width: 546
GlyphClass: 2
Flags: W
LayerCount: 2
Fore
SplineSet
242 49 m 0,0,1
 319 49 319 49 356.5 84.5 c 128,-1,2
 394 120 394 120 394 173 c 0,3,4
 394 267 394 267 312 296 c 1,5,6
 256 292 256 292 228 292 c 128,-1,7
 200 292 200 292 177 295 c 1,8,9
 172 312 172 312 172 330 c 128,-1,10
 172 348 172 348 182 365 c 1,11,12
 205 358 205 358 260 358 c 128,-1,13
 315 358 315 358 345 392.5 c 128,-1,14
 375 427 375 427 375 473.5 c 128,-1,15
 375 520 375 520 346 558 c 128,-1,16
 317 596 317 596 262.5 596 c 128,-1,17
 208 596 208 596 173.5 562 c 128,-1,18
 139 528 139 528 139 472 c 0,19,20
 139 459 139 459 140 451 c 1,21,22
 130 449 130 449 103.5 449 c 128,-1,23
 77 449 77 449 60 458 c 1,24,25
 57 470 57 470 57 483 c 0,26,27
 57 559 57 559 108 607 c 128,-1,28
 159 655 159 655 250.5 655 c 128,-1,29
 342 655 342 655 400 609.5 c 128,-1,30
 458 564 458 564 458 480 c 0,31,32
 458 369 458 369 368 332 c 1,33,34
 481 289 481 289 481 173 c 0,35,36
 481 88 481 88 423 36.5 c 128,-1,37
 365 -15 365 -15 238.5 -15 c 128,-1,38
 112 -15 112 -15 40 51 c 1,39,40
 44 75 44 75 55 94.5 c 128,-1,41
 66 114 66 114 76 122 c 2,42,-1
 85 130 l 1,43,44
 111 91 111 91 154.5 70 c 128,-1,45
 198 49 198 49 242 49 c 0,0,1
EndSplineSet
EndChar

StartChar: four
Encoding: 52 52 23
Width: 516
GlyphClass: 2
Flags: W
LayerCount: 2
Fore
SplineSet
269 639 m 1,0,1
 299 649 299 649 331 649 c 128,-1,2
 363 649 363 649 415 645 c 1,3,4
 401 534 401 534 401 395 c 128,-1,5
 401 256 401 256 402 214 c 1,6,7
 452 218 452 218 462 221 c 1,8,9
 466 203 466 203 466 181 c 128,-1,10
 466 159 466 159 458 133 c 1,11,12
 439 136 439 136 405 138 c 1,13,14
 410 24 410 24 418 2 c 1,15,16
 385 -8 385 -8 357 -8 c 128,-1,17
 329 -8 329 -8 312 -6 c 1,18,19
 320 65 320 65 323 141 c 1,20,21
 292 142 292 142 181 142 c 128,-1,22
 70 142 70 142 18 136 c 1,23,24
 15 145 15 145 15 172 c 1,25,26
 28 195 28 195 64.5 256.5 c 128,-1,27
 101 318 101 318 113.5 340 c 128,-1,28
 126 362 126 362 153.5 410.5 c 128,-1,29
 181 459 181 459 196 488 c 0,30,31
 242 576 242 576 269 639 c 1,0,1
123 208 m 1,32,33
 161 207 161 207 210 207 c 128,-1,34
 259 207 259 207 325 209 c 1,35,36
 326 243 326 243 326 373.5 c 128,-1,37
 326 504 326 504 318 579 c 1,38,39
 252 481 252 481 123 208 c 1,32,33
EndSplineSet
EndChar

StartChar: five
Encoding: 53 53 24
Width: 511
GlyphClass: 2
Flags: W
LayerCount: 2
Fore
SplineSet
160 386 m 1,0,1
 210 395 210 395 256.5 395 c 128,-1,2
 303 395 303 395 349.5 376.5 c 128,-1,3
 396 358 396 358 422 327 c 0,4,5
 471 267 471 267 471 182 c 128,-1,6
 471 97 471 97 412.5 41 c 128,-1,7
 354 -15 354 -15 228 -15 c 128,-1,8
 102 -15 102 -15 30 51 c 1,9,10
 34 75 34 75 45 94.5 c 128,-1,11
 56 114 56 114 66 122 c 2,12,-1
 75 130 l 1,13,14
 101 91 101 91 144.5 70 c 128,-1,15
 188 49 188 49 232 49 c 0,16,17
 308 49 308 49 346 89 c 128,-1,18
 384 129 384 129 384 185.5 c 128,-1,19
 384 242 384 242 350.5 287 c 128,-1,20
 317 332 317 332 237.5 332 c 128,-1,21
 158 332 158 332 114 302 c 1,22,23
 86 302 86 302 70 308 c 1,24,25
 83 345 83 345 90 437.5 c 128,-1,26
 97 530 97 530 97 580.5 c 128,-1,27
 97 631 97 631 96 646 c 1,28,29
 187 639 187 639 275.5 639 c 128,-1,30
 364 639 364 639 449 648 c 1,31,32
 453 630 453 630 453 608 c 128,-1,33
 453 586 453 586 445 560 c 1,34,35
 428 565 428 565 366.5 569.5 c 128,-1,36
 305 574 305 574 269 573.5 c 128,-1,37
 233 573 233 573 178 573 c 1,38,39
 162 472 162 472 160 386 c 1,0,1
EndSplineSet
EndChar

StartChar: six
Encoding: 54 54 25
Width: 539
GlyphClass: 2
Flags: W
LayerCount: 2
Fore
SplineSet
279 655 m 0,0,1
 372 655 372 655 418 609 c 128,-1,2
 464 563 464 563 466 491 c 0,3,4
 466 480 466 480 463 467 c 1,5,6
 437 459 437 459 412 459 c 128,-1,7
 387 459 387 459 376 461 c 1,8,9
 377 468 377 468 377 480 c 0,10,11
 377 533 377 533 350.5 564 c 128,-1,12
 324 595 324 595 276 595 c 0,13,14
 215 595 215 595 176.5 523 c 128,-1,15
 138 451 138 451 138 327 c 1,16,17
 192 398 192 398 297 398 c 0,18,19
 376 398 376 398 432.5 344 c 128,-1,20
 489 290 489 290 489 197.5 c 128,-1,21
 489 105 489 105 426.5 45 c 128,-1,22
 364 -15 364 -15 270 -15 c 0,23,24
 150 -15 150 -15 102.5 61.5 c 128,-1,25
 55 138 55 138 55 299 c 0,26,27
 55 485 55 485 114 574 c 0,28,29
 137 608 137 608 179.5 631.5 c 128,-1,30
 222 655 222 655 279 655 c 0,0,1
362.5 86 m 128,-1,32
 404 122 404 122 404 192.5 c 128,-1,33
 404 263 404 263 370 300 c 128,-1,34
 336 337 336 337 280.5 337 c 128,-1,35
 225 337 225 337 183.5 297.5 c 128,-1,36
 142 258 142 258 142 189 c 128,-1,37
 142 120 142 120 177 85 c 128,-1,38
 212 50 212 50 266.5 50 c 128,-1,31
 321 50 321 50 362.5 86 c 128,-1,32
EndSplineSet
EndChar

StartChar: seven
Encoding: 55 55 26
Width: 423
GlyphClass: 2
Flags: W
LayerCount: 2
Fore
SplineSet
291 573 m 1,0,1
 266 574 266 574 217.5 574 c 128,-1,2
 169 574 169 574 98 569.5 c 128,-1,3
 27 565 27 565 9 560 c 1,4,5
 5 578 5 578 5 600 c 128,-1,6
 5 622 5 622 13 648 c 1,7,8
 87 639 87 639 170.5 639 c 128,-1,9
 254 639 254 639 325 643.5 c 128,-1,10
 396 648 396 648 414 653 c 1,11,12
 418 635 418 635 418 618 c 1,13,14
 338 471 338 471 269.5 294 c 128,-1,15
 201 117 201 117 186 2 c 1,16,17
 157 -8 157 -8 132.5 -8 c 128,-1,18
 108 -8 108 -8 84 -4 c 1,19,20
 143 192 143 192 291 573 c 1,0,1
EndSplineSet
EndChar

StartChar: eight
Encoding: 56 56 27
Width: 565
GlyphClass: 2
Flags: W
LayerCount: 2
Fore
SplineSet
187 333 m 1,0,1
 78 396 78 396 78 491 c 0,2,3
 78 562 78 562 128.5 608.5 c 128,-1,4
 179 655 179 655 284 655 c 0,5,6
 489 655 489 655 489 487 c 0,7,8
 489 404 489 404 388 320 c 1,9,10
 505 258 505 258 505 160 c 0,11,12
 505 76 505 76 438 30.5 c 128,-1,13
 371 -15 371 -15 282 -15 c 0,14,15
 172 -15 172 -15 110 36 c 0,16,17
 60 77 60 77 60 157 c 128,-1,18
 60 237 60 237 187 333 c 1,0,1
282 59 m 0,19,20
 346 59 346 59 381.5 92 c 128,-1,21
 417 125 417 125 417 163 c 0,22,23
 417 194 417 194 401 210.5 c 128,-1,24
 385 227 385 227 376 235 c 128,-1,25
 367 243 367 243 346 254 c 2,26,-1
 314 270 l 2,27,28
 304 276 304 276 277.5 288 c 128,-1,29
 251 300 251 300 241 305 c 1,30,31
 148 229 148 229 148 155 c 0,32,33
 148 59 148 59 282 59 c 0,19,20
217 406 m 0,34,35
 246 387 246 387 265.5 377 c 128,-1,36
 285 367 285 367 329 348 c 1,37,38
 370 375 370 375 388 414 c 128,-1,39
 406 453 406 453 406 487 c 0,40,41
 406 596 406 596 285 596 c 0,42,43
 236 596 236 596 200 571 c 128,-1,44
 164 546 164 546 164 494 c 128,-1,45
 164 442 164 442 217 406 c 0,34,35
EndSplineSet
EndChar

StartChar: nine
Encoding: 57 57 28
Width: 539
GlyphClass: 2
Flags: W
LayerCount: 2
Fore
SplineSet
255 -15 m 0,0,1
 159 -15 159 -15 112 31 c 128,-1,2
 65 77 65 77 63 149 c 0,3,4
 63 160 63 160 66 173 c 1,5,6
 92 181 92 181 117 181 c 128,-1,7
 142 181 142 181 153 179 c 1,8,9
 152 172 152 172 152 160 c 0,10,11
 152 107 152 107 179.5 76 c 128,-1,12
 207 45 207 45 257 45 c 0,13,14
 401 45 401 45 401 313 c 1,15,16
 347 242 347 242 242 242 c 0,17,18
 163 242 163 242 106.5 296 c 128,-1,19
 50 350 50 350 50 442.5 c 128,-1,20
 50 535 50 535 112.5 595 c 128,-1,21
 175 655 175 655 269 655 c 0,22,23
 389 655 389 655 436.5 575.5 c 128,-1,24
 484 496 484 496 484 331 c 0,25,26
 484 -15 484 -15 255 -15 c 0,0,1
355.5 339 m 128,-1,28
 397 375 397 375 397 445.5 c 128,-1,29
 397 516 397 516 363 553 c 128,-1,30
 329 590 329 590 273.5 590 c 128,-1,31
 218 590 218 590 176.5 550.5 c 128,-1,32
 135 511 135 511 135 442.5 c 128,-1,33
 135 374 135 374 170.5 338.5 c 128,-1,34
 206 303 206 303 260 303 c 128,-1,27
 314 303 314 303 355.5 339 c 128,-1,28
EndSplineSet
EndChar

StartChar: colon
Encoding: 58 58 29
Width: 264
GlyphClass: 2
Flags: W
LayerCount: 2
Fore
SplineSet
217 55 m 0,0,1
 217 25 217 25 199 5 c 128,-1,2
 181 -15 181 -15 144 -15 c 0,3,4
 87 -15 87 -15 87 43 c 0,5,6
 87 115 87 115 160 115 c 0,7,8
 217 115 217 115 217 55 c 0,0,1
217 418 m 0,9,10
 217 388 217 388 199 368 c 128,-1,11
 181 348 181 348 144 348 c 0,12,13
 87 348 87 348 87 406 c 0,14,15
 87 478 87 478 160 478 c 0,16,17
 217 478 217 478 217 418 c 0,9,10
EndSplineSet
EndChar

StartChar: semicolon
Encoding: 59 59 30
Width: 271
GlyphClass: 2
Flags: W
LayerCount: 2
Fore
SplineSet
217 418 m 0,0,1
 217 388 217 388 199 368 c 128,-1,2
 181 348 181 348 144 348 c 0,3,4
 87 348 87 348 87 406 c 0,5,6
 87 478 87 478 160 478 c 0,7,8
 217 478 217 478 217 418 c 0,0,1
86 -152 m 1,9,10
 81 -137 81 -137 81 -127.5 c 128,-1,11
 81 -118 81 -118 84 -103 c 1,12,13
 151 -103 151 -103 151 -34 c 0,14,15
 151 -9 151 -9 125 -6 c 0,16,17
 87 -3 87 -3 87 43 c 0,18,19
 87 78 87 78 103.5 96.5 c 128,-1,20
 120 115 120 115 163 115 c 0,21,22
 222 115 222 115 222 35 c 128,-1,23
 222 -45 222 -45 190 -98.5 c 128,-1,24
 158 -152 158 -152 86 -152 c 1,9,10
EndSplineSet
EndChar

StartChar: less
Encoding: 60 60 31
Width: 601
GlyphClass: 2
Flags: W
LayerCount: 2
Fore
SplineSet
74 287 m 1,0,1
 67 301 67 301 67 326.5 c 128,-1,2
 67 352 67 352 74 367 c 1,3,4
 198 414 198 414 368 518 c 0,5,6
 426 553 426 553 440 566 c 1,7,8
 449 555 449 555 461.5 530.5 c 128,-1,9
 474 506 474 506 478 486 c 1,10,11
 402 456 402 456 290.5 398 c 128,-1,12
 179 340 179 340 156 327 c 1,13,14
 203 301 203 301 298 251.5 c 128,-1,15
 393 202 393 202 478 168 c 1,16,17
 474 148 474 148 461.5 123.5 c 128,-1,18
 449 99 449 99 440 88 c 1,19,20
 426 101 426 101 368 136 c 0,21,22
 201 238 201 238 74 287 c 1,0,1
EndSplineSet
EndChar

StartChar: equal
Encoding: 61 61 32
Width: 601
GlyphClass: 2
Flags: W
LayerCount: 2
Fore
SplineSet
507 386 m 1,0,1
 415 395 415 395 328.5 395 c 128,-1,2
 242 395 242 395 175 390.5 c 128,-1,3
 108 386 108 386 90 381 c 1,4,5
 87 394 87 394 87 420.5 c 128,-1,6
 87 447 87 447 94 469 c 1,7,8
 163 460 163 460 261 460 c 0,9,10
 461 460 461 460 511 474 c 1,11,12
 514 461 514 461 514 434.5 c 128,-1,13
 514 408 514 408 507 386 c 1,0,1
507 186 m 1,14,15
 415 195 415 195 328.5 195 c 128,-1,16
 242 195 242 195 175 190.5 c 128,-1,17
 108 186 108 186 90 181 c 1,18,19
 87 195 87 195 87 221 c 128,-1,20
 87 247 87 247 94 269 c 1,21,22
 163 260 163 260 261 260 c 0,23,24
 461 260 461 260 511 274 c 1,25,26
 514 261 514 261 514 234.5 c 128,-1,27
 514 208 514 208 507 186 c 1,14,15
EndSplineSet
EndChar

StartChar: greater
Encoding: 62 62 33
Width: 601
GlyphClass: 2
Flags: W
LayerCount: 2
Fore
SplineSet
471 367 m 1,0,1
 478 352 478 352 478 326.5 c 128,-1,2
 478 301 478 301 471 287 c 1,3,4
 344 238 344 238 176 136 c 0,5,6
 119 101 119 101 105 88 c 1,7,8
 96 99 96 99 83.5 123.5 c 128,-1,9
 71 148 71 148 67 168 c 1,10,11
 152 202 152 202 247 251.5 c 128,-1,12
 342 301 342 301 389 327 c 1,13,14
 343 353 343 353 279 385 c 1,15,16
 152 452 152 452 67 486 c 1,17,18
 71 506 71 506 83.5 530.5 c 128,-1,19
 96 555 96 555 105 566 c 1,20,21
 119 553 119 553 176 518 c 0,22,23
 344 416 344 416 471 367 c 1,0,1
EndSplineSet
EndChar

StartChar: question
Encoding: 63 63 34
Width: 459
GlyphClass: 2
Flags: W
LayerCount: 2
Fore
SplineSet
90 639 m 1,0,-1
 91 650 l 1,1,2
 144 673 144 673 222 673 c 128,-1,3
 300 673 300 673 354.5 632.5 c 128,-1,4
 409 592 409 592 409 530 c 0,5,6
 409 494 409 494 391 464 c 128,-1,7
 373 434 373 434 347.5 413.5 c 128,-1,8
 322 393 322 393 296 374 c 0,9,10
 235 328 235 328 235 283 c 128,-1,11
 235 238 235 238 263 206 c 1,12,13
 237 174 237 174 201 171 c 1,14,15
 167 239 167 239 167 289 c 128,-1,16
 167 339 167 339 225 397 c 0,17,18
 233 405 233 405 258.5 428.5 c 128,-1,19
 284 452 284 452 294 464 c 0,20,21
 326 500 326 500 326 535.5 c 128,-1,22
 326 571 326 571 297.5 593 c 128,-1,23
 269 615 269 615 216.5 615 c 128,-1,24
 164 615 164 615 110 575 c 1,25,26
 90 608 90 608 90 639 c 1,0,-1
288 55 m 0,27,28
 288 25 288 25 270 5 c 128,-1,29
 252 -15 252 -15 215 -15 c 0,30,31
 158 -15 158 -15 158 43 c 0,32,33
 158 115 158 115 231 115 c 0,34,35
 288 115 288 115 288 55 c 0,27,28
EndSplineSet
EndChar

StartChar: at
Encoding: 64 64 35
Width: 858
GlyphClass: 2
Flags: W
LayerCount: 2
Fore
SplineSet
541 -34 m 1,0,1
 545 -42 545 -42 545 -66 c 128,-1,2
 545 -90 545 -90 537 -112 c 1,3,4
 465 -137 465 -137 359 -137 c 0,5,6
 211 -137 211 -137 135.5 -59.5 c 128,-1,7
 60 18 60 18 60 170 c 0,8,9
 60 393 60 393 168.5 514 c 128,-1,10
 277 635 277 635 477 635 c 0,11,12
 633 635 633 635 715.5 554.5 c 128,-1,13
 798 474 798 474 798 322 c 0,14,15
 798 204 798 204 728 117 c 128,-1,16
 658 30 658 30 562 30 c 0,17,18
 517 30 517 30 503 97 c 1,19,20
 428 30 428 30 358 30 c 0,21,22
 306 30 306 30 278.5 71.5 c 128,-1,23
 251 113 251 113 251 191 c 0,24,25
 251 318 251 318 304 395.5 c 128,-1,26
 357 473 357 473 444.5 473 c 128,-1,27
 532 473 532 473 615 450 c 1,28,29
 572 268 572 268 572 142 c 0,30,31
 572 91 572 91 601 91 c 0,32,33
 645 91 645 91 682.5 163 c 128,-1,34
 720 235 720 235 720 319 c 0,35,36
 720 450 720 450 659.5 512.5 c 128,-1,37
 599 575 599 575 471 575 c 0,38,39
 311 575 311 575 226.5 471.5 c 128,-1,40
 142 368 142 368 142 173 c 0,41,42
 142 -73 142 -73 348 -73 c 0,43,44
 427 -73 427 -73 541 -34 c 1,0,1
439 423 m 128,-1,46
 390 423 390 423 359 360 c 128,-1,47
 328 297 328 297 328 198 c 128,-1,48
 328 99 328 99 392 99 c 0,49,50
 416 99 416 99 446.5 114 c 128,-1,51
 477 129 477 129 501 153 c 1,52,53
 505 183 505 183 530 402 c 1,54,45
 488 423 488 423 439 423 c 128,-1,46
EndSplineSet
EndChar

StartChar: A
Encoding: 65 65 36
Width: 561
GlyphClass: 2
Flags: W
LayerCount: 2
Fore
SplineSet
396 178 m 1,0,1
 347 181 347 181 273.5 181 c 128,-1,2
 200 181 200 181 149 177 c 1,3,4
 119 53 119 53 105 -10 c 1,5,6
 87 -12 87 -12 69.5 -12 c 128,-1,7
 52 -12 52 -12 14 -2 c 1,8,9
 177 432 177 432 204 639 c 1,10,11
 233 649 233 649 280 649 c 128,-1,12
 327 649 327 649 356 639 c 1,13,14
 383 432 383 432 546 -2 c 1,15,16
 510 -12 510 -12 482.5 -12 c 128,-1,17
 455 -12 455 -12 440 -10 c 1,18,19
 423 65 423 65 396 178 c 1,0,1
166 247 m 1,20,21
 212 246 212 246 263 246 c 128,-1,22
 314 246 314 246 378 248 c 1,23,24
 333 423 333 423 279 578 c 1,25,-1
 273 578 l 1,26,27
 214 430 214 430 166 247 c 1,20,21
EndSplineSet
EndChar

StartChar: B
Encoding: 66 66 37
Width: 550
GlyphClass: 2
Flags: W
LayerCount: 2
Fore
SplineSet
78 13 m 1,0,1
 92 130 92 130 92 330.5 c 128,-1,2
 92 531 92 531 75 627 c 1,3,4
 154 655 154 655 260.5 655 c 128,-1,5
 367 655 367 655 417 607 c 128,-1,6
 467 559 467 559 467 466.5 c 128,-1,7
 467 374 467 374 403 326 c 1,8,9
 510 284 510 284 510 173 c 0,10,11
 510 -15 510 -15 281 -15 c 0,12,13
 160 -15 160 -15 78 13 c 1,0,1
225 372 m 1,14,15
 248 357 248 357 293 357 c 128,-1,16
 338 357 338 357 359 388.5 c 128,-1,17
 380 420 380 420 380 472 c 128,-1,18
 380 524 380 524 351.5 561 c 128,-1,19
 323 598 323 598 257 598 c 0,20,21
 220 598 220 598 175 580 c 1,22,23
 167 499 167 499 167 341 c 128,-1,24
 167 183 167 183 175 77 c 1,25,26
 232 54 232 54 282 54 c 0,27,28
 423 54 423 54 423 173 c 0,29,30
 423 274 423 274 330 295 c 1,31,32
 303 290 303 290 273 290 c 128,-1,33
 243 290 243 290 204 305 c 1,34,35
 204 351 204 351 225 372 c 1,14,15
EndSplineSet
EndChar

StartChar: C
Encoding: 67 67 38
Width: 533
GlyphClass: 2
Flags: W
LayerCount: 2
Fore
SplineSet
300 655 m 0,0,1
 400 655 400 655 449 605.5 c 128,-1,2
 498 556 498 556 498 478 c 0,3,4
 498 465 498 465 495 453 c 1,5,6
 478 444 478 444 453.5 444 c 128,-1,7
 429 444 429 444 405 446 c 1,8,9
 406 454 406 454 406 467 c 0,10,11
 406 526 406 526 378 561 c 128,-1,12
 350 596 350 596 300 596 c 0,13,14
 134 596 134 596 134 327.5 c 128,-1,15
 134 59 134 59 300 59 c 0,16,17
 339 59 339 59 381 78 c 128,-1,18
 423 97 423 97 452 130 c 1,19,20
 483 105 483 105 492 51 c 1,21,22
 403 -15 403 -15 300 -15 c 0,23,24
 179 -15 179 -15 120 52 c 1,25,26
 69 107 69 107 57 220 c 0,27,28
 52 266 52 266 52 327 c 0,29,30
 52 655 52 655 300 655 c 0,0,1
EndSplineSet
EndChar

StartChar: D
Encoding: 68 68 39
Width: 592
GlyphClass: 2
Flags: W
LayerCount: 2
Fore
SplineSet
274 655 m 0,0,1
 348 655 348 655 401 627.5 c 128,-1,2
 454 600 454 600 482 552 c 0,3,4
 537 459 537 459 537 325 c 0,5,6
 537 139 537 139 462 56 c 0,7,8
 434 25 434 25 386 5 c 128,-1,9
 338 -15 338 -15 274 -15 c 0,10,11
 153 -15 153 -15 78 13 c 1,12,13
 92 130 92 130 92 330.5 c 128,-1,14
 92 531 92 531 75 627 c 1,15,16
 161 655 161 655 274 655 c 0,0,1
274 56 m 0,17,18
 451 56 451 56 451 325 c 0,19,20
 451 402 451 402 435 460 c 128,-1,21
 419 518 419 518 378 557 c 128,-1,22
 337 596 337 596 279.5 596 c 128,-1,23
 222 596 222 596 174 577 c 1,24,25
 167 497 167 497 167 332.5 c 128,-1,26
 167 168 167 168 175 77 c 1,27,28
 222 56 222 56 274 56 c 0,17,18
EndSplineSet
EndChar

StartChar: E
Encoding: 69 69 40
Width: 488
GlyphClass: 2
Flags: W
LayerCount: 2
Fore
SplineSet
176 76 m 1,0,1
 211 73 211 73 297 73 c 128,-1,2
 383 73 383 73 436 82 c 1,3,4
 444 56 444 56 444 31.5 c 128,-1,5
 444 7 444 7 440 -11 c 1,6,7
 421 -6 421 -6 359.5 -1.5 c 128,-1,8
 298 3 298 3 222 3 c 128,-1,9
 146 3 146 3 80 -4 c 1,10,11
 94 134 94 134 94 331 c 128,-1,12
 94 528 94 528 75 646 c 1,13,14
 142 639 142 639 219 639 c 128,-1,15
 296 639 296 639 356.5 643.5 c 128,-1,16
 417 648 417 648 435 653 c 1,17,18
 439 635 439 635 439 613 c 128,-1,19
 439 591 439 591 431 565 c 1,20,21
 378 574 378 574 294 574 c 128,-1,22
 210 574 210 574 175 571 c 1,23,24
 169 514 169 514 169 365 c 1,25,26
 190 364 190 364 270 364 c 128,-1,27
 350 364 350 364 400 375 c 1,28,29
 405 343 405 343 405 322.5 c 128,-1,30
 405 302 405 302 404 289 c 1,31,32
 357 297 357 297 285 297 c 128,-1,33
 213 297 213 297 169 295 c 1,34,35
 169 164 169 164 176 76 c 1,0,1
EndSplineSet
EndChar

StartChar: F
Encoding: 70 70 41
Width: 438
GlyphClass: 2
Flags: W
LayerCount: 2
Fore
SplineSet
392 283 m 1,0,1
 349 290 349 290 268 290 c 128,-1,2
 187 290 187 290 169 289 c 1,3,4
 171 47 171 47 186 2 c 1,5,6
 153 -8 153 -8 133.5 -8 c 128,-1,7
 114 -8 114 -8 80 -6 c 1,8,9
 94 111 94 111 94 319.5 c 128,-1,10
 94 528 94 528 75 646 c 1,11,12
 142 639 142 639 214 639 c 128,-1,13
 286 639 286 639 346.5 643.5 c 128,-1,14
 407 648 407 648 425 653 c 1,15,16
 429 635 429 635 429 613 c 128,-1,17
 429 591 429 591 421 565 c 1,18,19
 368 574 368 574 289 574 c 128,-1,20
 210 574 210 574 175 571 c 1,21,22
 169 511 169 511 169 351 c 1,23,-1
 213 351 l 2,24,25
 348 351 348 351 388 361 c 1,26,27
 393 333 393 333 393 314 c 128,-1,28
 393 295 393 295 392 283 c 1,0,1
EndSplineSet
EndChar

StartChar: G
Encoding: 71 71 42
Width: 577
GlyphClass: 2
Flags: W
LayerCount: 2
Fore
SplineSet
300 -15 m 0,0,1
 146 -15 146 -15 95 90 c 0,2,3
 70 142 70 142 61 196.5 c 128,-1,4
 52 251 52 251 52 317 c 128,-1,5
 52 383 52 383 59.5 430 c 128,-1,6
 67 477 67 477 85 519.5 c 128,-1,7
 103 562 103 562 131 592 c 0,8,9
 191 655 191 655 295.5 655 c 128,-1,10
 400 655 400 655 449 605.5 c 128,-1,11
 498 556 498 556 498 478 c 0,12,13
 498 466 498 466 495 453 c 1,14,15
 470 444 470 444 443.5 444 c 128,-1,16
 417 444 417 444 405 446 c 1,17,18
 406 454 406 454 406 467 c 0,19,20
 406 526 406 526 378 561 c 128,-1,21
 350 596 350 596 300 596 c 0,22,23
 214 596 214 596 174 523 c 128,-1,24
 134 450 134 450 134 326 c 0,25,26
 134 133 134 133 216 81 c 0,27,28
 250 59 250 59 300 59 c 0,29,30
 382 59 382 59 437 105 c 1,31,32
 436 185 436 185 430 242 c 1,33,34
 314 240 314 240 269 231 c 1,35,36
 264 263 264 263 264 283.5 c 128,-1,37
 264 304 264 304 265 317 c 1,38,39
 312 309 312 309 392 309 c 128,-1,40
 472 309 472 309 512 312 c 1,41,42
 502 212 502 212 502 51 c 1,43,44
 413 -15 413 -15 300 -15 c 0,0,1
EndSplineSet
EndChar

StartChar: H
Encoding: 72 72 43
Width: 609
GlyphClass: 2
Flags: W
LayerCount: 2
Fore
SplineSet
442 281 m 1,0,1
 378 288 378 288 297 288 c 128,-1,2
 216 288 216 288 167 281 c 1,3,4
 169 47 169 47 184 2 c 1,5,6
 151 -8 151 -8 131.5 -8 c 128,-1,7
 112 -8 112 -8 78 -6 c 1,8,9
 92 111 92 111 92 327 c 128,-1,10
 92 543 92 543 75 639 c 1,11,12
 101 649 101 649 127 649 c 128,-1,13
 153 649 153 649 181 647 c 1,14,15
 167 535 167 535 167 359 c 1,16,17
 221 353 221 353 297 353 c 128,-1,18
 373 353 373 353 442 361 c 1,19,20
 440 552 440 552 425 639 c 1,21,22
 451 649 451 649 477 649 c 128,-1,23
 503 649 503 649 531 647 c 1,24,25
 517 536 517 536 517 296 c 128,-1,26
 517 56 517 56 534 2 c 1,27,28
 501 -8 501 -8 481.5 -8 c 128,-1,29
 462 -8 462 -8 428 -6 c 1,30,31
 440 95 440 95 442 281 c 1,0,1
EndSplineSet
EndChar

StartChar: I
Encoding: 73 73 44
Width: 289
GlyphClass: 2
Flags: W
LayerCount: 2
Fore
SplineSet
93 -6 m 1,0,1
 107 111 107 111 107 327 c 128,-1,2
 107 543 107 543 90 639 c 1,3,4
 116 649 116 649 142 649 c 128,-1,5
 168 649 168 649 196 647 c 1,6,7
 182 536 182 536 182 296 c 128,-1,8
 182 56 182 56 199 2 c 1,9,10
 166 -8 166 -8 138 -8 c 128,-1,11
 110 -8 110 -8 93 -6 c 1,0,1
EndSplineSet
EndChar

StartChar: J
Encoding: 74 74 45
Width: 277
GlyphClass: 2
Flags: W
LayerCount: 2
Fore
SplineSet
15 -106 m 0,0,1
 57 -106 57 -106 74 -76 c 0,2,3
 94 -41 94 -41 97 -3 c 0,4,5
 101 46 101 46 101 121 c 0,6,7
 101 543 101 543 84 639 c 1,8,9
 110 649 110 649 136 649 c 128,-1,10
 162 649 162 649 190 647 c 1,11,12
 176 536 176 536 176 102 c 0,13,14
 176 -13 176 -13 163.5 -62.5 c 128,-1,15
 151 -112 151 -112 134 -134 c 0,16,17
 96 -180 96 -180 17 -180 c 0,18,19
 -17 -180 -17 -180 -56 -167.5 c 128,-1,20
 -95 -155 -95 -155 -123 -134 c 1,21,22
 -119 -110 -119 -110 -109 -90 c 128,-1,23
 -99 -70 -99 -70 -91 -62 c 2,24,-1
 -83 -55 l 1,25,26
 -45 -106 -45 -106 15 -106 c 0,0,1
EndSplineSet
EndChar

StartChar: K
Encoding: 75 75 46
Width: 513
GlyphClass: 2
Flags: W
LayerCount: 2
Fore
SplineSet
399 648 m 1,0,1
 406 649 406 649 429 649 c 128,-1,2
 452 649 452 649 485 632 c 1,3,4
 353 464 353 464 272 339 c 1,5,6
 368 185 368 185 512 5 c 1,7,8
 478 -12 478 -12 444.5 -12 c 128,-1,9
 411 -12 411 -12 400 -11 c 1,10,11
 358 64 358 64 283.5 177.5 c 128,-1,12
 209 291 209 291 191 319 c 1,13,14
 210 349 210 349 258 418 c 0,15,16
 361 566 361 566 399 648 c 1,0,1
78 -6 m 1,17,18
 92 111 92 111 92 327 c 128,-1,19
 92 543 92 543 75 639 c 1,20,21
 101 649 101 649 126 649 c 128,-1,22
 151 649 151 649 162 648 c 128,-1,23
 173 647 173 647 181 647 c 1,24,25
 167 536 167 536 167 296 c 128,-1,26
 167 56 167 56 184 2 c 1,27,28
 151 -8 151 -8 123 -8 c 128,-1,29
 95 -8 95 -8 78 -6 c 1,17,18
EndSplineSet
EndChar

StartChar: L
Encoding: 76 76 47
Width: 424
GlyphClass: 2
Flags: W
LayerCount: 2
Fore
SplineSet
78 -4 m 1,0,1
 92 134 92 134 92 338.5 c 128,-1,2
 92 543 92 543 75 639 c 1,3,4
 101 649 101 649 127 649 c 128,-1,5
 153 649 153 649 181 647 c 1,6,7
 167 536 167 536 167 348.5 c 128,-1,8
 167 161 167 161 174 76 c 1,9,10
 209 73 209 73 280 73 c 128,-1,11
 351 73 351 73 404 82 c 1,12,13
 412 56 412 56 412 31.5 c 128,-1,14
 412 7 412 7 408 -11 c 1,15,16
 389 -6 389 -6 327.5 -1.5 c 128,-1,17
 266 3 266 3 205 3 c 128,-1,18
 144 3 144 3 78 -4 c 1,0,1
EndSplineSet
EndChar

StartChar: M
Encoding: 77 77 48
Width: 729
GlyphClass: 2
Flags: W
LayerCount: 2
Fore
SplineSet
78 -6 m 1,0,1
 92 111 92 111 92 327 c 128,-1,2
 92 543 92 543 75 639 c 1,3,4
 101 649 101 649 119.5 649 c 128,-1,5
 138 649 138 649 166 647 c 1,6,7
 183 555 183 555 368 210 c 1,8,9
 519 505 519 505 545 639 c 1,10,11
 571 649 571 649 597 649 c 128,-1,12
 623 649 623 649 651 647 c 1,13,14
 637 536 637 536 637 296 c 128,-1,15
 637 56 637 56 654 2 c 1,16,17
 621 -8 621 -8 601.5 -8 c 128,-1,18
 582 -8 582 -8 548 -6 c 1,19,20
 562 111 562 111 562 266 c 128,-1,21
 562 421 562 421 560 466 c 1,22,23
 429 201 429 201 395 117 c 1,24,25
 368 109 368 109 352 109 c 128,-1,26
 336 109 336 109 322 110 c 1,27,28
 293 184 293 184 258.5 248 c 128,-1,29
 224 312 224 312 193.5 367 c 128,-1,30
 163 422 163 422 152 443 c 1,31,-1
 152 338 l 2,32,33
 152 56 152 56 169 2 c 1,34,35
 139 -8 139 -8 125.5 -8 c 128,-1,36
 112 -8 112 -8 78 -6 c 1,0,1
EndSplineSet
EndChar

StartChar: N
Encoding: 78 78 49
Width: 619
GlyphClass: 2
Flags: W
LayerCount: 2
Fore
SplineSet
78 -6 m 1,0,1
 92 111 92 111 92 327 c 128,-1,2
 92 543 92 543 75 639 c 1,3,4
 101 649 101 649 119.5 649 c 128,-1,5
 138 649 138 649 166 647 c 1,6,7
 185 575 185 575 275.5 428.5 c 128,-1,8
 366 282 366 282 464 145 c 1,9,10
 467 229 467 229 467 307 c 0,11,12
 467 543 467 543 450 639 c 1,13,14
 476 649 476 649 494.5 649 c 128,-1,15
 513 649 513 649 541 647 c 1,16,17
 527 536 527 536 527 296 c 128,-1,18
 527 56 527 56 544 2 c 1,19,20
 514 -8 514 -8 500.5 -8 c 128,-1,21
 487 -8 487 -8 453 -6 c 1,22,23
 446 25 446 25 394 106.5 c 128,-1,24
 342 188 342 188 264.5 301 c 128,-1,25
 187 414 187 414 153 470 c 1,26,27
 152 427 152 427 152 338 c 0,28,29
 152 56 152 56 169 2 c 1,30,31
 139 -8 139 -8 125.5 -8 c 128,-1,32
 112 -8 112 -8 78 -6 c 1,0,1
EndSplineSet
EndChar

StartChar: O
Encoding: 79 79 50
Width: 601
GlyphClass: 2
Flags: W
LayerCount: 2
Fore
SplineSet
55 327 m 0,0,1
 55 655 55 655 300.5 655 c 128,-1,2
 546 655 546 655 546 327 c 0,3,4
 546 267 546 267 541.5 222 c 128,-1,5
 537 177 537 177 521.5 130 c 128,-1,6
 506 83 506 83 480 53 c 128,-1,7
 454 23 454 23 408.5 4 c 128,-1,8
 363 -15 363 -15 300.5 -15 c 128,-1,9
 238 -15 238 -15 192.5 4 c 128,-1,10
 147 23 147 23 121 53 c 128,-1,11
 95 83 95 83 79.5 130 c 128,-1,12
 64 177 64 177 59.5 222 c 128,-1,13
 55 267 55 267 55 327 c 0,0,1
216 81 m 0,14,15
 250 59 250 59 300.5 59 c 128,-1,16
 351 59 351 59 385.5 81 c 128,-1,17
 420 103 420 103 437 144 c 0,18,19
 467 215 467 215 467 326 c 0,20,21
 467 596 467 596 300.5 596 c 128,-1,22
 134 596 134 596 134 326 c 0,23,24
 134 133 134 133 216 81 c 0,14,15
EndSplineSet
EndChar

StartChar: P
Encoding: 80 80 51
Width: 507
GlyphClass: 2
Flags: W
LayerCount: 2
Fore
SplineSet
225 331 m 1,0,1
 254 302 254 302 294.5 302 c 128,-1,2
 335 302 335 302 360 327 c 0,3,4
 400 368 400 368 400 449 c 0,5,6
 400 598 400 598 268 598 c 0,7,8
 226 598 226 598 174 576 c 1,9,10
 167 497 167 497 167 276.5 c 128,-1,11
 167 56 167 56 184 2 c 1,12,13
 151 -8 151 -8 123 -8 c 128,-1,14
 95 -8 95 -8 78 -6 c 1,15,16
 92 111 92 111 92 321 c 128,-1,17
 92 531 92 531 75 627 c 1,18,19
 159 655 159 655 273 655 c 128,-1,20
 387 655 387 655 437 601.5 c 128,-1,21
 487 548 487 548 487 451.5 c 128,-1,22
 487 355 487 355 436.5 295 c 128,-1,23
 386 235 386 235 283 235 c 0,24,25
 243 235 243 235 204 250 c 1,26,27
 204 277 204 277 211 300 c 128,-1,28
 218 323 218 323 225 331 c 1,0,1
EndSplineSet
EndChar

StartChar: Q
Encoding: 81 81 52
Width: 601
GlyphClass: 2
Flags: W
LayerCount: 2
Fore
SplineSet
55 327 m 0,0,1
 55 655 55 655 300.5 655 c 128,-1,2
 546 655 546 655 546 327 c 0,3,4
 546 259 546 259 539.5 209 c 128,-1,5
 533 159 533 159 514 110 c 0,6,7
 477 10 477 10 361 -10 c 1,8,9
 440 -114 440 -114 464 -145 c 1,10,11
 430 -162 430 -162 397 -162 c 128,-1,12
 364 -162 364 -162 353 -161 c 1,13,14
 325 -102 325 -102 266 -13 c 1,15,16
 163 -3 163 -3 112 64 c 0,17,18
 69 122 69 122 59 227 c 0,19,20
 55 270 55 270 55 327 c 0,0,1
216 81 m 0,21,22
 250 59 250 59 300.5 59 c 128,-1,23
 351 59 351 59 385.5 81 c 128,-1,24
 420 103 420 103 437 144 c 0,25,26
 467 215 467 215 467 326 c 0,27,28
 467 596 467 596 300.5 596 c 128,-1,29
 134 596 134 596 134 326 c 0,30,31
 134 133 134 133 216 81 c 0,21,22
EndSplineSet
EndChar

StartChar: R
Encoding: 82 82 53
Width: 544
GlyphClass: 2
Flags: W
LayerCount: 2
Fore
SplineSet
225 349 m 1,0,1
 254 322 254 322 294.5 322 c 128,-1,2
 335 322 335 322 360 346 c 0,3,4
 400 384 400 384 400 459 c 0,5,6
 400 598 400 598 268 598 c 0,7,8
 226 598 226 598 174 578 c 1,9,10
 167 498 167 498 167 277 c 128,-1,11
 167 56 167 56 184 2 c 1,12,13
 151 -8 151 -8 123 -8 c 128,-1,14
 95 -8 95 -8 78 -6 c 1,15,16
 92 111 92 111 92 321 c 128,-1,17
 92 531 92 531 75 627 c 1,18,19
 159 655 159 655 269 655 c 0,20,21
 487 655 487 655 487 459 c 0,22,23
 487 385 487 385 450 332 c 128,-1,24
 413 279 413 279 338 265 c 1,25,26
 444 96 444 96 514 5 c 1,27,28
 480 -12 480 -12 447 -12 c 128,-1,29
 414 -12 414 -12 403 -11 c 1,30,31
 350 101 350 101 247 263 c 1,32,33
 227 266 227 266 204 274 c 1,34,35
 204 299 204 299 211 320.5 c 128,-1,36
 218 342 218 342 225 349 c 1,0,1
EndSplineSet
EndChar

StartChar: S
Encoding: 83 83 54
Width: 480
GlyphClass: 2
Flags: W
LayerCount: 2
Fore
SplineSet
158.5 73.5 m 128,-1,1
 202 49 202 49 253 49 c 128,-1,2
 304 49 304 49 330.5 77 c 128,-1,3
 357 105 357 105 357 145 c 128,-1,4
 357 185 357 185 325 217 c 128,-1,5
 293 249 293 249 247.5 272 c 128,-1,6
 202 295 202 295 157 320.5 c 128,-1,7
 112 346 112 346 80 389 c 128,-1,8
 48 432 48 432 48 497 c 128,-1,9
 48 562 48 562 95 608.5 c 128,-1,10
 142 655 142 655 240.5 655 c 128,-1,11
 339 655 339 655 385.5 606 c 128,-1,12
 432 557 432 557 432 478 c 0,13,14
 432 466 432 466 429 453 c 1,15,16
 404 444 404 444 377.5 444 c 128,-1,17
 351 444 351 444 339 446 c 1,18,19
 340 454 340 454 340 467 c 0,20,21
 340 525 340 525 309.5 560.5 c 128,-1,22
 279 596 279 596 233 596 c 128,-1,23
 187 596 187 596 160.5 571.5 c 128,-1,24
 134 547 134 547 134 502.5 c 128,-1,25
 134 458 134 458 165.5 425.5 c 128,-1,26
 197 393 197 393 242.5 369 c 128,-1,27
 288 345 288 345 333.5 318.5 c 128,-1,28
 379 292 379 292 410.5 247.5 c 128,-1,29
 442 203 442 203 442 137.5 c 128,-1,30
 442 72 442 72 388.5 28.5 c 128,-1,31
 335 -15 335 -15 257 -15 c 0,32,33
 116 -15 116 -15 35 61 c 1,34,35
 39 85 39 85 51.5 105 c 128,-1,36
 64 125 64 125 74 132 c 2,37,-1
 85 140 l 1,38,0
 115 98 115 98 158.5 73.5 c 128,-1,1
EndSplineSet
EndChar

StartChar: T
Encoding: 84 84 55
Width: 473
GlyphClass: 2
Flags: W
LayerCount: 2
Fore
SplineSet
278 574 m 1,0,1
 273 496 273 496 273 276 c 128,-1,2
 273 56 273 56 290 2 c 1,3,4
 257 -8 257 -8 229 -8 c 128,-1,5
 201 -8 201 -8 184 -6 c 1,6,7
 198 111 198 111 198 300.5 c 128,-1,8
 198 490 198 490 191 574 c 1,9,10
 54 568 54 568 14 560 c 1,11,12
 10 574 10 574 10 598 c 128,-1,13
 10 622 10 622 18 648 c 1,14,15
 92 639 92 639 197 639 c 0,16,17
 409 639 409 639 459 653 c 1,18,19
 463 635 463 635 463 613 c 128,-1,20
 463 591 463 591 455 565 c 1,21,22
 378 572 378 572 278 574 c 1,0,1
EndSplineSet
EndChar

StartChar: U
Encoding: 85 85 56
Width: 604
GlyphClass: 2
Flags: W
LayerCount: 2
Fore
SplineSet
525 277 m 0,0,1
 525 217 525 217 521 176.5 c 128,-1,2
 517 136 517 136 503.5 97 c 128,-1,3
 490 58 490 58 466 35 c 0,4,5
 414 -15 414 -15 304 -15 c 0,6,7
 163 -15 163 -15 120 64 c 0,8,9
 97 106 97 106 89.5 154 c 128,-1,10
 82 202 82 202 82 277 c 0,11,12
 82 543 82 543 65 639 c 1,13,14
 91 649 91 649 117 649 c 128,-1,15
 143 649 143 649 171 647 c 1,16,17
 157 536 157 536 157 276 c 0,18,19
 157 164 157 164 188 111.5 c 128,-1,20
 219 59 219 59 311 59 c 128,-1,21
 403 59 403 59 432.5 111.5 c 128,-1,22
 462 164 462 164 462 276 c 0,23,24
 462 543 462 543 445 639 c 1,25,26
 471 649 471 649 491 649 c 128,-1,27
 511 649 511 649 539 647 c 1,28,29
 525 536 525 536 525 277 c 0,0,1
EndSplineSet
EndChar

StartChar: V
Encoding: 86 86 57
Width: 552
GlyphClass: 2
Flags: W
LayerCount: 2
Fore
SplineSet
329 0 m 1,0,1
 293 -9 293 -9 263.5 -9 c 128,-1,2
 234 -9 234 -9 225 -8 c 1,3,4
 183 142 183 142 120.5 334.5 c 128,-1,5
 58 527 58 527 13 629 c 1,6,7
 55 649 55 649 87 649 c 128,-1,8
 119 649 119 649 130 648 c 1,9,10
 144 541 144 541 189 373 c 128,-1,11
 234 205 234 205 282 87 c 1,12,-1
 288 87 l 1,13,14
 331 193 331 193 378.5 376 c 128,-1,15
 426 559 426 559 430 642 c 1,16,17
 443 645 443 645 458 645 c 0,18,19
 507 645 507 645 539 625 c 1,20,21
 511 557 511 557 432.5 328.5 c 128,-1,22
 354 100 354 100 329 0 c 1,0,1
EndSplineSet
EndChar

StartChar: W
Encoding: 87 87 58
Width: 789
GlyphClass: 2
Flags: W
LayerCount: 2
Fore
SplineSet
299 0 m 1,0,1
 263 -9 263 -9 233.5 -9 c 128,-1,2
 204 -9 204 -9 195 -8 c 1,3,4
 183 34 183 34 146 180 c 0,5,6
 62 519 62 519 13 629 c 1,7,8
 55 649 55 649 87 649 c 128,-1,9
 119 649 119 649 130 648 c 1,10,11
 176 297 176 297 252 87 c 1,12,-1
 258 87 l 1,13,14
 289 163 289 163 317.5 297.5 c 128,-1,15
 346 432 346 432 361 550 c 1,16,17
 391 562 391 562 410.5 562 c 128,-1,18
 430 562 430 562 446 560 c 1,19,20
 491 256 491 256 556 87 c 1,21,-1
 562 87 l 1,22,23
 601 198 601 198 635 373.5 c 128,-1,24
 669 549 669 549 674 642 c 1,25,26
 688 645 688 645 702 645 c 0,27,28
 751 645 751 645 783 625 c 1,29,30
 765 580 765 580 699.5 351 c 128,-1,31
 634 122 634 122 603 0 c 1,32,33
 567 -9 567 -9 537.5 -9 c 128,-1,34
 508 -9 508 -9 499 -8 c 1,35,36
 485 40 485 40 451.5 173 c 128,-1,37
 418 306 418 306 402 367 c 1,38,-1
 397 367 l 1,39,40
 330 124 330 124 299 0 c 1,0,1
EndSplineSet
EndChar

StartChar: X
Encoding: 88 88 59
Width: 566
GlyphClass: 2
Flags: W
LayerCount: 2
Fore
SplineSet
414 648 m 1,0,1
 422 649 422 649 453 649 c 128,-1,2
 484 649 484 649 521 632 c 1,3,4
 406 470 406 470 331 331 c 1,5,6
 431 154 431 154 531 9 c 1,7,8
 502 -8 502 -8 449 -8 c 0,9,10
 429 -8 429 -8 418 -7 c 1,11,12
 341 149 341 149 277 264 c 1,13,14
 187 114 187 114 142 -7 c 1,15,16
 134 -8 134 -8 103 -8 c 128,-1,17
 72 -8 72 -8 35 9 c 1,18,19
 163 190 163 190 239 330 c 1,20,21
 141 501 141 501 53 632 c 1,22,23
 87 649 87 649 120.5 649 c 128,-1,24
 154 649 154 649 165 648 c 1,25,26
 225 524 225 524 296 394 c 1,27,28
 355 489 355 489 414 648 c 1,0,1
EndSplineSet
EndChar

StartChar: Y
Encoding: 89 89 60
Width: 494
GlyphClass: 2
Flags: W
LayerCount: 2
Fore
SplineSet
17 634 m 1,0,1
 57 651 57 651 89.5 651 c 128,-1,2
 122 651 122 651 133 650 c 1,3,4
 139 575 139 575 180 478 c 0,5,6
 196 442 196 442 222.5 383 c 128,-1,7
 249 324 249 324 262 293 c 1,8,-1
 266 293 l 1,9,10
 301 360 301 360 336.5 469.5 c 128,-1,11
 372 579 372 579 376 649 c 1,12,13
 394 651 394 651 403 651 c 0,14,15
 450 651 450 651 481 634 c 1,16,17
 480 631 480 631 447.5 560.5 c 128,-1,18
 415 490 415 490 390 434 c 0,19,20
 315 266 315 266 297 194 c 1,21,22
 302 31 302 31 313 2 c 1,23,24
 280 -8 280 -8 252 -8 c 128,-1,25
 224 -8 224 -8 207 -6 c 1,26,27
 217 76 217 76 220 197 c 1,28,29
 197 270 197 270 152.5 362.5 c 128,-1,30
 108 455 108 455 68.5 532.5 c 128,-1,31
 29 610 29 610 17 634 c 1,0,1
EndSplineSet
EndChar

StartChar: Z
Encoding: 90 90 61
Width: 486
GlyphClass: 2
Flags: W
LayerCount: 2
Fore
SplineSet
270 573 m 2,0,1
 129 573 129 573 54 553 c 1,2,3
 45 583 45 583 45 601 c 128,-1,4
 45 619 45 619 51 646 c 1,5,6
 103 639 103 639 250 639 c 128,-1,7
 397 639 397 639 451 645 c 1,8,9
 456 635 456 635 456 607 c 1,10,11
 413 526 413 526 296 320 c 128,-1,12
 179 114 179 114 158 76 c 1,13,14
 204 73 204 73 298 73 c 128,-1,15
 392 73 392 73 445 82 c 1,16,17
 453 56 453 56 453 31.5 c 128,-1,18
 453 7 453 7 449 -11 c 1,19,20
 431 -6 431 -6 350 -1.5 c 128,-1,21
 269 3 269 3 186.5 3 c 128,-1,22
 104 3 104 3 37 -4 c 1,23,24
 31 11 31 11 30 32 c 1,25,26
 72 98 72 98 187.5 297.5 c 128,-1,27
 303 497 303 497 350 573 c 1,28,-1
 270 573 l 2,0,1
EndSplineSet
EndChar

StartChar: bracketleft
Encoding: 91 91 62
Width: 329
GlyphClass: 2
Flags: W
LayerCount: 2
Fore
SplineSet
301 16 m 1,0,1
 309 -10 309 -10 309 -32 c 128,-1,2
 309 -54 309 -54 305 -72 c 1,3,4
 259 -60 259 -60 191 -60 c 128,-1,5
 123 -60 123 -60 75 -65 c 1,6,7
 91 69 91 69 91 347 c 128,-1,8
 91 625 91 625 75 724 c 1,9,10
 123 719 123 719 191 719 c 128,-1,11
 259 719 259 719 305 731 c 1,12,13
 309 713 309 713 309 691 c 128,-1,14
 309 669 309 669 301 643 c 1,15,16
 254 651 254 651 175 651 c 1,17,18
 169 588 169 588 169 327.5 c 128,-1,19
 169 67 169 67 175 8 c 1,20,21
 254 8 254 8 301 16 c 1,0,1
EndSplineSet
EndChar

StartChar: backslash
Encoding: 92 92 63
Width: 566
GlyphClass: 2
Flags: W
LayerCount: 2
Fore
SplineSet
96 670 m 1,0,1
 125 688 125 688 151.5 688 c 128,-1,2
 178 688 178 688 187 687 c 1,3,4
 333 280 333 280 485 -27 c 1,5,6
 458 -46 458 -46 419 -46 c 0,7,8
 412 -46 412 -46 394 -44 c 1,9,10
 244 378 244 378 96 670 c 1,0,1
EndSplineSet
EndChar

StartChar: bracketright
Encoding: 93 93 64
Width: 329
GlyphClass: 2
Flags: W
LayerCount: 2
Fore
SplineSet
28 643 m 1,0,1
 20 669 20 669 20 691 c 128,-1,2
 20 713 20 713 24 731 c 1,3,4
 70 719 70 719 138 719 c 128,-1,5
 206 719 206 719 254 724 c 1,6,7
 238 590 238 590 238 312 c 128,-1,8
 238 34 238 34 254 -65 c 1,9,10
 206 -60 206 -60 138 -60 c 128,-1,11
 70 -60 70 -60 24 -72 c 1,12,13
 20 -54 20 -54 20 -32 c 128,-1,14
 20 -10 20 -10 28 16 c 1,15,16
 75 8 75 8 154 8 c 1,17,18
 160 71 160 71 160 331.5 c 128,-1,19
 160 592 160 592 154 651 c 1,20,21
 75 651 75 651 28 643 c 1,0,1
EndSplineSet
EndChar

StartChar: asciicircum
Encoding: 94 94 65
Width: 601
GlyphClass: 2
Flags: W
LayerCount: 2
Fore
SplineSet
229 622 m 1,0,1
 241 628 241 628 270.5 628 c 128,-1,2
 300 628 300 628 313 622 c 1,3,4
 336 563 336 563 395 453 c 1,5,6
 444 354 444 354 462 329 c 1,7,8
 455 323 455 323 434 312 c 128,-1,9
 413 301 413 301 398 299 c 1,10,11
 370 367 370 367 343 415 c 1,12,13
 285 524 285 524 271 547 c 1,14,15
 195 418 195 418 144 299 c 1,16,17
 129 301 129 301 108 312 c 128,-1,18
 87 323 87 323 80 329 c 1,19,20
 100 359 100 359 147 453 c 1,21,22
 206 563 206 563 229 622 c 1,0,1
EndSplineSet
EndChar

StartChar: underscore
Encoding: 95 95 66
Width: 502
GlyphClass: 2
Flags: W
LayerCount: 2
Fore
SplineSet
474 -89 m 1,0,1
 376 -80 376 -80 276.5 -80 c 128,-1,2
 177 -80 177 -80 110 -85 c 128,-1,3
 43 -90 43 -90 24 -94 c 1,4,5
 20 -80 20 -80 20 -56 c 128,-1,6
 20 -32 20 -32 28 -6 c 1,7,8
 102 -15 102 -15 203 -15 c 128,-1,9
 304 -15 304 -15 382 -10.5 c 128,-1,10
 460 -6 460 -6 478 -1 c 1,11,12
 482 -19 482 -19 482 -41 c 128,-1,13
 482 -63 482 -63 474 -89 c 1,0,1
EndSplineSet
EndChar

StartChar: grave
Encoding: 96 96 67
Width: 424
GlyphClass: 2
Flags: W
LayerCount: 2
Fore
SplineSet
294 528 m 1,0,1
 170 579 170 579 110 603 c 1,2,3
 111 631 111 631 120 647.5 c 128,-1,4
 129 664 129 664 150 682 c 1,5,6
 196 643 196 643 245.5 610.5 c 128,-1,7
 295 578 295 578 314 565 c 1,8,9
 309 544 309 544 294 528 c 1,0,1
EndSplineSet
EndChar

StartChar: a
Encoding: 97 97 68
Width: 471
GlyphClass: 2
Flags: W
LayerCount: 2
Fore
SplineSet
214 219 m 0,0,1
 178 219 178 219 155.5 199.5 c 128,-1,2
 133 180 133 180 133 139 c 0,3,4
 133 57 133 57 204 57 c 0,5,6
 232 57 232 57 261 71 c 128,-1,7
 290 85 290 85 306 104 c 1,8,9
 311 167 311 167 311 184 c 1,10,11
 270 219 270 219 214 219 c 0,0,1
393 345 m 1,12,-1
 389 201 l 1,13,14
 389 118 389 118 406 3 c 1,15,16
 376 -6 376 -6 354 -6 c 128,-1,17
 332 -6 332 -6 312 -4 c 1,18,-1
 309 44 l 1,19,20
 233 -15 233 -15 174.5 -15 c 128,-1,21
 116 -15 116 -15 85.5 22.5 c 128,-1,22
 55 60 55 60 55 129.5 c 128,-1,23
 55 199 55 199 100.5 235 c 128,-1,24
 146 271 146 271 208 271 c 128,-1,25
 270 271 270 271 315 247 c 1,26,27
 316 267 316 267 316 291 c 128,-1,28
 316 315 316 315 314.5 333 c 128,-1,29
 313 351 313 351 306 375 c 0,30,31
 291 422 291 422 232 422 c 0,32,33
 158 422 158 422 158 341 c 1,34,-1
 159 324 l 1,35,36
 137 322 137 322 118 322 c 128,-1,37
 99 322 99 322 73 330 c 1,38,39
 71 346 71 346 71 353 c 0,40,41
 71 416 71 416 117 447 c 128,-1,42
 163 478 163 478 236.5 478 c 128,-1,43
 310 478 310 478 351.5 444.5 c 128,-1,44
 393 411 393 411 393 345 c 1,12,-1
EndSplineSet
EndChar

StartChar: b
Encoding: 98 98 69
Width: 497
GlyphClass: 2
Flags: W
LayerCount: 2
Fore
SplineSet
63 11 m 1,0,1
 78 147 78 147 78 314.5 c 128,-1,2
 78 482 78 482 74.5 549 c 128,-1,3
 71 616 71 616 60 672 c 1,4,5
 86 682 86 682 112 682 c 128,-1,6
 138 682 138 682 166 680 c 1,7,8
 151 552 151 552 151 410 c 1,9,10
 221 478 221 478 291.5 478 c 128,-1,11
 362 478 362 478 399.5 421 c 128,-1,12
 437 364 437 364 437 258 c 0,13,14
 437 117 437 117 388.5 51 c 128,-1,15
 340 -15 340 -15 236 -15 c 0,16,17
 171 -15 171 -15 63 11 c 1,0,1
352 271 m 0,18,19
 352 414 352 414 267 414 c 0,20,21
 208 414 208 414 151 349 c 1,22,-1
 151 80 l 1,23,24
 198 57 198 57 248 57 c 0,25,26
 352 57 352 57 352 271 c 0,18,19
EndSplineSet
EndChar

StartChar: c
Encoding: 99 99 70
Width: 440
GlyphClass: 2
Flags: W
LayerCount: 2
Fore
SplineSet
239 478 m 0,0,1
 303 478 303 478 348.5 446 c 128,-1,2
 394 414 394 414 394 353 c 0,3,4
 394 346 394 346 392 330 c 1,5,6
 366 322 366 322 347 322 c 128,-1,7
 328 322 328 322 306 324 c 1,8,9
 307 331 307 331 307 343 c 0,10,11
 307 376 307 376 287.5 399 c 128,-1,12
 268 422 268 422 232 422 c 0,13,14
 137 422 137 422 137 239.5 c 128,-1,15
 137 57 137 57 241 57 c 0,16,17
 291 57 291 57 363 119 c 1,18,19
 392 89 392 89 400 40 c 1,20,21
 317 -15 317 -15 234 -15 c 0,22,23
 133 -15 133 -15 94 53.5 c 128,-1,24
 55 122 55 122 55 234.5 c 128,-1,25
 55 347 55 347 98 412.5 c 128,-1,26
 141 478 141 478 239 478 c 0,0,1
EndSplineSet
EndChar

StartChar: d
Encoding: 100 100 71
Width: 499
GlyphClass: 2
Flags: W
LayerCount: 2
Fore
SplineSet
348 390 m 1,0,1
 285 419 285 419 248.5 419 c 128,-1,2
 212 419 212 419 190.5 400 c 128,-1,3
 169 381 169 381 160 348 c 0,4,5
 145 292 145 292 145 220 c 0,6,7
 145 62 145 62 230 62 c 0,8,9
 260 62 260 62 292 79.5 c 128,-1,10
 324 97 324 97 346 122 c 1,11,12
 348 205 348 205 348 390 c 1,0,1
436 680 m 1,13,14
 421 551 421 551 421 369 c 128,-1,15
 421 187 421 187 424 136 c 128,-1,16
 427 85 427 85 439 7 c 1,17,18
 408 -3 408 -3 379 -3 c 128,-1,19
 350 -3 350 -3 341 -2 c 1,20,-1
 343 50 l 1,21,22
 274 -15 274 -15 201 -15 c 0,23,24
 158 -15 158 -15 128.5 8.5 c 128,-1,25
 99 32 99 32 85 71 c 0,26,27
 60 141 60 141 60 225 c 0,28,29
 60 478 60 478 244 478 c 0,30,31
 294 478 294 478 347 454 c 1,32,33
 345 590 345 590 330 672 c 1,34,35
 352 682 352 682 405 682 c 0,36,37
 411 682 411 682 421.5 681 c 128,-1,38
 432 680 432 680 436 680 c 1,13,14
EndSplineSet
EndChar

StartChar: e
Encoding: 101 101 72
Width: 456
GlyphClass: 2
Flags: W
LayerCount: 2
Fore
SplineSet
398 246 m 1,0,1
 323 222 323 222 248.5 222 c 128,-1,2
 174 222 174 222 137 227 c 1,3,4
 137 137 137 137 166 96 c 0,5,6
 193 57 193 57 250 57 c 128,-1,7
 307 57 307 57 374 119 c 1,8,9
 403 89 403 89 411 40 c 1,10,11
 330 -15 330 -15 242 -15 c 0,12,13
 137 -15 137 -15 96 53.5 c 128,-1,14
 55 122 55 122 55 235 c 128,-1,15
 55 348 55 348 100.5 413 c 128,-1,16
 146 478 146 478 249 478 c 0,17,18
 321 478 321 478 364.5 434.5 c 128,-1,19
 408 391 408 391 408.5 331.5 c 128,-1,20
 409 272 409 272 398 246 c 1,0,1
242 422 m 0,21,22
 150 422 150 422 138 285 c 1,23,24
 181 280 181 280 235.5 280 c 128,-1,25
 290 280 290 280 321 290 c 1,26,27
 325 326 325 326 325 327 c 0,28,29
 325 366 325 366 305 394 c 128,-1,30
 285 422 285 422 242 422 c 0,21,22
EndSplineSet
EndChar

StartChar: f
Encoding: 102 102 73
Width: 307
GlyphClass: 2
Flags: W
LayerCount: 2
Fore
SplineSet
92 208 m 2,0,-1
 89 408 l 1,1,2
 49 408 49 408 32 407 c 1,3,4
 26 423 26 423 26 438.5 c 128,-1,5
 26 454 26 454 28 462 c 1,6,-1
 86 462 l 1,7,8
 85 475 85 475 85 502 c 0,9,10
 85 675 85 675 224 675 c 0,11,12
 282 675 282 675 327 644 c 1,13,14
 327 587 327 587 294 561 c 1,15,16
 263 615 263 615 220 615 c 0,17,18
 158 615 158 615 158 496 c 0,19,20
 158 474 158 474 159 463 c 1,21,22
 243 465 243 465 284 469 c 1,23,24
 290 456 290 456 290 440.5 c 128,-1,25
 290 425 290 425 286 403 c 1,26,27
 248 405 248 405 164 407 c 1,28,-1
 164 313 l 1,29,-1
 165 237 l 1,30,31
 165 98 165 98 183 6 c 1,32,33
 149 -4 149 -4 122 -4 c 128,-1,34
 95 -4 95 -4 77 0 c 1,35,36
 92 155 92 155 92 208 c 2,0,-1
EndSplineSet
EndChar

StartChar: g
Encoding: 103 103 74
Width: 464
GlyphClass: 2
Flags: W
LayerCount: 2
Fore
SplineSet
220 478 m 0,0,1
 270 478 270 478 307 462 c 1,2,-1
 307 478 l 2,3,4
 307 518 307 518 323.5 538 c 128,-1,5
 340 558 340 558 381 558 c 0,6,7
 388 558 388 558 406 556 c 1,8,9
 408 540 408 540 408 523.5 c 128,-1,10
 408 507 408 507 402 475 c 1,11,12
 395 476 395 476 380 476 c 128,-1,13
 365 476 365 476 358 466.5 c 128,-1,14
 351 457 351 457 350 435 c 1,15,-1
 346 436 l 1,16,17
 389 393 389 393 389 308 c 0,18,19
 389 230 389 230 358 178 c 0,20,21
 323 120 323 120 220 120 c 0,22,23
 177 120 177 120 150 130 c 1,24,25
 129 93 129 93 119 49 c 1,26,27
 136 46 136 46 155 46 c 128,-1,28
 174 46 174 46 231 53 c 128,-1,29
 288 60 288 60 313 60 c 0,30,31
 365 60 365 60 397 34 c 128,-1,32
 429 8 429 8 429 -46 c 128,-1,33
 429 -100 429 -100 394 -140 c 0,34,35
 333 -210 333 -210 204 -210 c 0,36,37
 117 -210 117 -210 71 -188 c 128,-1,38
 25 -166 25 -166 25 -106 c 0,39,40
 25 -90 25 -90 27 -79 c 1,41,42
 48 -71 48 -71 70.5 -71 c 128,-1,43
 93 -71 93 -71 119 -75 c 1,44,45
 117 -83 117 -83 117 -101.5 c 128,-1,46
 117 -120 117 -120 140 -137.5 c 128,-1,47
 163 -155 163 -155 218 -155 c 128,-1,48
 273 -155 273 -155 312.5 -133 c 128,-1,49
 352 -111 352 -111 352 -67 c 0,50,51
 352 -18 352 -18 299 -18 c 0,52,53
 273 -18 273 -18 217 -24.5 c 128,-1,54
 161 -31 161 -31 128.5 -31 c 128,-1,55
 96 -31 96 -31 74.5 -17.5 c 128,-1,56
 53 -4 53 -4 53 24 c 0,57,58
 53 77 53 77 104 154 c 1,59,60
 51 197 51 197 51 308 c 0,61,62
 51 478 51 478 220 478 c 0,0,1
220 189 m 128,-1,64
 308 189 308 189 308 307 c 128,-1,65
 308 425 308 425 220 425 c 128,-1,66
 132 425 132 425 132 307 c 128,-1,63
 132 189 132 189 220 189 c 128,-1,64
EndSplineSet
EndChar

StartChar: h
Encoding: 104 104 75
Width: 500
GlyphClass: 2
Flags: W
LayerCount: 2
Fore
SplineSet
421 334 m 2,0,-1
 420 253 l 1,1,2
 420 122 420 122 440 9 c 1,3,4
 407 -4 407 -4 375.5 -4 c 128,-1,5
 344 -4 344 -4 332 -2 c 1,6,7
 344 134 344 134 344 238 c 128,-1,8
 344 342 344 342 327.5 378 c 128,-1,9
 311 414 311 414 271 414 c 0,10,11
 217 414 217 414 151 348 c 1,12,13
 151 65 151 65 169 6 c 1,14,15
 136 -4 136 -4 116.5 -4 c 128,-1,16
 97 -4 97 -4 63 -2 c 1,17,18
 78 128 78 128 78 306.5 c 128,-1,19
 78 485 78 485 75 543 c 128,-1,20
 72 601 72 601 60 672 c 1,21,22
 86 682 86 682 112 682 c 128,-1,23
 138 682 138 682 166 680 c 1,24,25
 151 560 151 560 151 407 c 1,26,27
 181 439 181 439 223 458.5 c 128,-1,28
 265 478 265 478 302 478 c 0,29,30
 363 478 363 478 392 443 c 128,-1,31
 421 408 421 408 421 334 c 2,0,-1
EndSplineSet
EndChar

StartChar: i
Encoding: 105 105 76
Width: 235
GlyphClass: 2
Flags: W
LayerCount: 2
Fore
SplineSet
155 256 m 0,0,1
 155 92 155 92 173 6 c 1,2,3
 137 -4 137 -4 108 -4 c 128,-1,4
 79 -4 79 -4 67 -2 c 1,5,6
 82 134 82 134 82 247.5 c 128,-1,7
 82 361 82 361 64 458 c 1,8,9
 98 468 98 468 125 468 c 128,-1,10
 152 468 152 468 170 464 c 1,11,12
 155 309 155 309 155 256 c 0,0,1
174 613 m 0,13,14
 174 551 174 551 110 551 c 0,15,16
 60 551 60 551 60 602 c 0,17,18
 60 665 60 665 124 665 c 0,19,20
 174 665 174 665 174 613 c 0,13,14
EndSplineSet
EndChar

StartChar: j
Encoding: 106 106 77
Width: 254
GlyphClass: 2
Flags: W
LayerCount: 2
Fore
SplineSet
175 256 m 2,0,-1
 178 -13 l 1,1,2
 178 -210 178 -210 43 -210 c 0,3,4
 -15 -210 -15 -210 -60 -178 c 1,5,6
 -60 -121 -60 -121 -27 -95 c 1,7,8
 -16 -111 -16 -111 5 -123.5 c 128,-1,9
 26 -136 26 -136 46 -136 c 0,10,11
 102 -136 102 -136 102 4 c 2,12,-1
 102 227 l 2,13,14
 102 366 102 366 84 458 c 1,15,16
 118 468 118 468 145 468 c 128,-1,17
 172 468 172 468 190 464 c 1,18,19
 175 309 175 309 175 256 c 2,0,-1
194 613 m 0,20,21
 194 551 194 551 130 551 c 0,22,23
 80 551 80 551 80 602 c 0,24,25
 80 665 80 665 144 665 c 0,26,27
 194 665 194 665 194 613 c 0,20,21
EndSplineSet
EndChar

StartChar: k
Encoding: 107 107 78
Width: 441
GlyphClass: 2
Flags: W
LayerCount: 2
Fore
SplineSet
63 -2 m 1,0,1
 78 128 78 128 78 306.5 c 128,-1,2
 78 485 78 485 75 543 c 128,-1,3
 72 601 72 601 60 672 c 1,4,5
 86 682 86 682 112 682 c 128,-1,6
 138 682 138 682 166 680 c 1,7,8
 151 557 151 557 151 312 c 128,-1,9
 151 67 151 67 169 6 c 1,10,11
 136 -4 136 -4 116.5 -4 c 128,-1,12
 97 -4 97 -4 63 -2 c 1,0,1
316 467 m 1,13,14
 325 469 325 469 354.5 469 c 128,-1,15
 384 469 384 469 419 453 c 1,16,17
 405 429 405 429 341 357 c 128,-1,18
 277 285 277 285 253 256 c 1,19,20
 368 91 368 91 441 16 c 1,21,22
 391 -9 391 -9 320 -9 c 1,23,24
 296 56 296 56 265 104 c 128,-1,25
 234 152 234 152 167 227 c 1,26,-1
 170 237 l 1,27,28
 210 285 210 285 259.5 357 c 128,-1,29
 309 429 309 429 316 467 c 1,13,14
EndSplineSet
EndChar

StartChar: l
Encoding: 108 108 79
Width: 229
GlyphClass: 2
Flags: W
LayerCount: 2
Fore
SplineSet
63 -2 m 1,0,1
 78 128 78 128 78 306.5 c 128,-1,2
 78 485 78 485 75 543 c 128,-1,3
 72 601 72 601 60 672 c 1,4,5
 86 682 86 682 112 682 c 128,-1,6
 138 682 138 682 166 680 c 1,7,8
 151 557 151 557 151 312 c 128,-1,9
 151 67 151 67 169 6 c 1,10,11
 136 -4 136 -4 108 -4 c 128,-1,12
 80 -4 80 -4 63 -2 c 1,0,1
EndSplineSet
EndChar

StartChar: m
Encoding: 109 109 80
Width: 731
GlyphClass: 2
Flags: W
LayerCount: 2
Fore
SplineSet
652 335 m 2,0,-1
 651 253 l 1,1,2
 651 124 651 124 671 9 c 1,3,4
 638 -4 638 -4 606.5 -4 c 128,-1,5
 575 -4 575 -4 563 -2 c 1,6,7
 575 131 575 131 575 232.5 c 128,-1,8
 575 334 575 334 562 374 c 128,-1,9
 549 414 549 414 505 414 c 128,-1,10
 461 414 461 414 403 348 c 1,11,-1
 402 253 l 1,12,13
 402 124 402 124 422 9 c 1,14,15
 389 -4 389 -4 357.5 -4 c 128,-1,16
 326 -4 326 -4 314 -2 c 1,17,18
 326 131 326 131 326 232.5 c 128,-1,19
 326 334 326 334 313 374 c 128,-1,20
 300 414 300 414 256 414 c 128,-1,21
 212 414 212 414 155 350 c 1,22,23
 153 319 153 319 153 256 c 0,24,25
 153 92 153 92 171 6 c 1,26,27
 135 -4 135 -4 106 -4 c 128,-1,28
 77 -4 77 -4 65 -2 c 1,29,30
 80 134 80 134 80 236 c 128,-1,31
 80 338 80 338 60 458 c 1,32,33
 100 468 100 468 123 468 c 128,-1,34
 146 468 146 468 159 464 c 1,35,-1
 159 413 l 1,36,37
 187 442 187 442 223.5 460 c 128,-1,38
 260 478 260 478 294 478 c 0,39,40
 377 478 377 478 397 401 c 1,41,42
 427 436 427 436 467.5 457 c 128,-1,43
 508 478 508 478 543 478 c 0,44,45
 600 478 600 478 626 442.5 c 128,-1,46
 652 407 652 407 652 335 c 2,0,-1
EndSplineSet
EndChar

StartChar: n
Encoding: 110 110 81
Width: 502
GlyphClass: 2
Flags: W
LayerCount: 2
Fore
SplineSet
423 334 m 2,0,-1
 422 253 l 1,1,2
 422 124 422 124 442 9 c 1,3,4
 409 -4 409 -4 377.5 -4 c 128,-1,5
 346 -4 346 -4 334 -2 c 1,6,7
 346 131 346 131 346 232.5 c 128,-1,8
 346 334 346 334 331.5 374 c 128,-1,9
 317 414 317 414 268 414 c 128,-1,10
 219 414 219 414 155 350 c 1,11,12
 153 319 153 319 153 256 c 0,13,14
 153 92 153 92 171 6 c 1,15,16
 135 -4 135 -4 106 -4 c 128,-1,17
 77 -4 77 -4 65 -2 c 1,18,19
 80 134 80 134 80 236 c 128,-1,20
 80 338 80 338 60 458 c 1,21,22
 100 468 100 468 123 468 c 128,-1,23
 146 468 146 468 159 464 c 1,24,-1
 159 413 l 1,25,26
 228 478 228 478 297 478 c 128,-1,27
 366 478 366 478 394.5 442.5 c 128,-1,28
 423 407 423 407 423 334 c 2,0,-1
EndSplineSet
EndChar

StartChar: o
Encoding: 111 111 82
Width: 486
GlyphClass: 2
Flags: W
LayerCount: 2
Fore
SplineSet
243 478 m 128,-1,1
 431 478 431 478 431 237 c 0,2,3
 431 126 431 126 396 61 c 0,4,5
 356 -15 356 -15 243 -15 c 128,-1,6
 130 -15 130 -15 90 61 c 0,7,8
 55 126 55 126 55 237 c 0,9,0
 55 478 55 478 243 478 c 128,-1,1
243 57 m 128,-1,11
 349 57 349 57 349 239.5 c 128,-1,12
 349 422 349 422 243 422 c 128,-1,13
 137 422 137 422 137 239.5 c 128,-1,10
 137 57 137 57 243 57 c 128,-1,11
EndSplineSet
EndChar

StartChar: p
Encoding: 112 112 83
Width: 499
GlyphClass: 2
Flags: W
LayerCount: 2
Fore
SplineSet
245 57 m 0,0,1
 354 57 354 57 354 251 c 0,2,3
 354 369 354 369 316 400 c 1,4,5
 297 414 297 414 268 414 c 128,-1,6
 239 414 239 414 207 395 c 128,-1,7
 175 376 175 376 153 349 c 1,8,9
 151 266 151 266 151 80 c 1,10,11
 209 57 209 57 245 57 c 0,0,1
78 177 m 0,12,13
 78 343 78 343 60 456 c 1,14,15
 91 466 91 466 120 466 c 128,-1,16
 149 466 149 466 158 465 c 1,17,-1
 156 413 l 1,18,19
 225 478 225 478 298 478 c 0,20,21
 439 478 439 478 439 238 c 0,22,23
 439 146 439 146 402 71 c 0,24,25
 383 31 383 31 343 8 c 128,-1,26
 303 -15 303 -15 253.5 -15 c 128,-1,27
 204 -15 204 -15 152 9 c 1,28,29
 156 -138 156 -138 169 -200 c 1,30,31
 147 -210 147 -210 114 -210 c 128,-1,32
 81 -210 81 -210 63 -208 c 1,33,34
 78 -117 78 -117 78 177 c 0,12,13
EndSplineSet
EndChar

StartChar: q
Encoding: 113 113 84
Width: 497
GlyphClass: 2
Flags: W
LayerCount: 2
Fore
SplineSet
434 452 m 1,0,1
 419 323 419 323 419 153 c 128,-1,2
 419 -17 419 -17 422 -74 c 128,-1,3
 425 -131 425 -131 437 -200 c 1,4,5
 411 -210 411 -210 378 -210 c 128,-1,6
 345 -210 345 -210 331 -208 c 1,7,8
 346 -85 346 -85 346 53 c 1,9,10
 275 -15 275 -15 205 -15 c 128,-1,11
 135 -15 135 -15 97.5 42 c 128,-1,12
 60 99 60 99 60 205 c 0,13,14
 60 346 60 346 108.5 412 c 128,-1,15
 157 478 157 478 261 478 c 0,16,17
 326 478 326 478 434 452 c 1,0,1
145 200 m 0,18,19
 145 57 145 57 230 57 c 0,20,21
 288 57 288 57 346 122 c 1,22,-1
 346 399 l 1,23,24
 302 422 302 422 250 422 c 128,-1,25
 198 422 198 422 171.5 369.5 c 128,-1,26
 145 317 145 317 145 200 c 0,18,19
EndSplineSet
EndChar

StartChar: r
Encoding: 114 114 85
Width: 347
GlyphClass: 2
Flags: W
LayerCount: 2
Fore
SplineSet
213 455.5 m 128,-1,1
 244 473 244 473 274 473 c 128,-1,2
 304 473 304 473 323 440 c 128,-1,3
 342 407 342 407 342 360 c 0,4,5
 342 343 342 343 340 331 c 1,6,7
 322 322 322 322 303.5 322 c 128,-1,8
 285 322 285 322 259 326 c 1,9,10
 261 342 261 342 261 347 c 0,11,12
 261 402 261 402 221 402 c 0,13,14
 210 402 210 402 191 388 c 128,-1,15
 172 374 172 374 155 353 c 1,16,17
 153 321 153 321 153 256 c 0,18,19
 153 92 153 92 171 6 c 1,20,21
 135 -4 135 -4 110 -4 c 128,-1,22
 85 -4 85 -4 65 -2 c 1,23,24
 80 134 80 134 80 236 c 128,-1,25
 80 338 80 338 60 458 c 1,26,27
 100 468 100 468 123 468 c 128,-1,28
 146 468 146 468 159 464 c 1,29,-1
 159 412 l 1,30,0
 182 438 182 438 213 455.5 c 128,-1,1
EndSplineSet
EndChar

StartChar: s
Encoding: 115 115 86
Width: 404
GlyphClass: 2
Flags: W
LayerCount: 2
Fore
SplineSet
364 126 m 0,0,1
 364 55 364 55 318 20 c 128,-1,2
 272 -15 272 -15 203 -15 c 0,3,4
 107 -15 107 -15 35 40 c 1,5,6
 39 62 39 62 50.5 83.5 c 128,-1,7
 62 105 62 105 72 116 c 2,8,-1
 81 126 l 1,9,10
 133 52 133 52 205 52 c 0,11,12
 240 52 240 52 262.5 67 c 128,-1,13
 285 82 285 82 285 108.5 c 128,-1,14
 285 135 285 135 260.5 156 c 128,-1,15
 236 177 236 177 201 191.5 c 128,-1,16
 166 206 166 206 131 222.5 c 128,-1,17
 96 239 96 239 71.5 270 c 128,-1,18
 47 301 47 301 47 344 c 0,19,20
 47 406 47 406 87 442 c 128,-1,21
 127 478 127 478 207.5 478 c 128,-1,22
 288 478 288 478 323.5 443 c 128,-1,23
 359 408 359 408 359 333 c 1,24,25
 337 325 337 325 318 325 c 128,-1,26
 299 325 299 325 271 331 c 1,27,28
 273 345 273 345 273 353 c 0,29,30
 273 384 273 384 255 404.5 c 128,-1,31
 237 425 237 425 203.5 425 c 128,-1,32
 170 425 170 425 148 409.5 c 128,-1,33
 126 394 126 394 126 362.5 c 128,-1,34
 126 331 126 331 150.5 308 c 128,-1,35
 175 285 175 285 210 270.5 c 128,-1,36
 245 256 245 256 280 240.5 c 128,-1,37
 315 225 315 225 339.5 196.5 c 128,-1,38
 364 168 364 168 364 126 c 0,0,1
EndSplineSet
EndChar

StartChar: t
Encoding: 116 116 87
Width: 316
GlyphClass: 2
Flags: W
LayerCount: 2
Fore
SplineSet
90 162 m 2,0,1
 90 162 90 162 92 385 c 0,2,3
 92 400 92 400 91 408 c 1,4,5
 49 408 49 408 31 407 c 1,6,7
 25 423 25 423 25 438.5 c 128,-1,8
 25 454 25 454 27 462 c 1,9,-1
 88 462 l 1,10,-1
 83 536 l 1,11,12
 108 544 108 544 135.5 544 c 128,-1,13
 163 544 163 544 181 540 c 1,14,-1
 172 463 l 1,15,16
 227 464 227 464 283 469 c 1,17,18
 289 456 289 456 289 440.5 c 128,-1,19
 289 425 289 425 285 403 c 1,20,21
 248 405 248 405 168 407 c 1,22,23
 166 387 166 387 166 348 c 2,24,-1
 166 145 l 2,25,26
 166 119 166 119 168.5 102.5 c 128,-1,27
 171 86 171 86 181.5 72.5 c 128,-1,28
 192 59 192 59 212 59 c 0,29,30
 256 59 256 59 296 90 c 1,31,32
 317 60 317 60 317 9 c 1,33,34
 262 -15 262 -15 221.5 -15 c 128,-1,35
 181 -15 181 -15 157 -4.5 c 128,-1,36
 133 6 133 6 120 20.5 c 128,-1,37
 107 35 107 35 100 61 c 0,38,39
 90 98 90 98 90 162 c 2,0,1
EndSplineSet
EndChar

StartChar: u
Encoding: 117 117 88
Width: 485
GlyphClass: 2
Flags: W
LayerCount: 2
Fore
SplineSet
77 129 m 2,0,-1
 78 210 l 1,1,2
 78 363 78 363 60 458 c 1,3,4
 82 467 82 467 110.5 467 c 128,-1,5
 139 467 139 467 166 464 c 1,6,7
 151 327 151 327 151 231 c 128,-1,8
 151 135 151 135 164.5 96 c 128,-1,9
 178 57 178 57 224.5 57 c 128,-1,10
 271 57 271 57 332 118 c 1,11,12
 334 148 334 148 334 207 c 0,13,14
 334 372 334 372 316 458 c 1,15,16
 354 468 354 468 379 468 c 128,-1,17
 404 468 404 468 422 464 c 1,18,19
 407 328 407 328 407 219.5 c 128,-1,20
 407 111 407 111 425 3 c 1,21,22
 395 -6 395 -6 373 -6 c 128,-1,23
 351 -6 351 -6 331 -4 c 1,24,-1
 329 45 l 1,25,26
 255 -15 255 -15 192.5 -15 c 128,-1,27
 130 -15 130 -15 103.5 20.5 c 128,-1,28
 77 56 77 56 77 129 c 2,0,-1
EndSplineSet
EndChar

StartChar: v
Encoding: 118 118 89
Width: 444
GlyphClass: 2
Flags: W
LayerCount: 2
Fore
SplineSet
260 0 m 1,0,1
 234 -7 234 -7 213.5 -7 c 128,-1,2
 193 -7 193 -7 186 -6 c 1,3,4
 160 86 160 86 108.5 221.5 c 128,-1,5
 57 357 57 357 10 452 c 1,6,7
 50 469 50 469 82.5 469 c 128,-1,8
 115 469 115 469 126 468 c 1,9,10
 136 325 136 325 225 111 c 1,11,-1
 229 111 l 1,12,13
 262 174 262 174 293.5 284 c 128,-1,14
 325 394 325 394 329 467 c 1,15,16
 347 469 347 469 356 469 c 0,17,18
 403 469 403 469 434 452 c 1,19,20
 398 372 398 372 338.5 222.5 c 128,-1,21
 279 73 279 73 260 0 c 1,0,1
EndSplineSet
EndChar

StartChar: w
Encoding: 119 119 90
Width: 640
GlyphClass: 2
Flags: W
LayerCount: 2
Fore
SplineSet
515 467 m 1,0,1
 515 467 515 467 551 468 c 0,2,3
 586 468 586 468 620 452 c 1,4,5
 589 376 589 376 533 225 c 128,-1,6
 477 74 477 74 458 0 c 1,7,8
 432 -7 432 -7 411.5 -7 c 128,-1,9
 391 -7 391 -7 384 -6 c 1,10,11
 373 72 373 72 318 281 c 1,12,-1
 314 281 l 1,13,14
 257 109 257 109 232 0 c 1,15,16
 206 -7 206 -7 185.5 -7 c 128,-1,17
 165 -7 165 -7 158 -6 c 1,18,19
 139 85 139 85 95.5 220.5 c 128,-1,20
 52 356 52 356 10 452 c 1,21,22
 50 469 50 469 82.5 469 c 128,-1,23
 115 469 115 469 126 468 c 1,24,25
 133 344 133 344 201 111 c 1,26,-1
 205 111 l 1,27,28
 227 161 227 161 250 253.5 c 128,-1,29
 273 346 273 346 279 410 c 1,30,31
 309 417 309 417 330.5 417 c 128,-1,32
 352 417 352 417 370 414 c 1,33,34
 390 250 390 250 427 111 c 1,35,-1
 431 111 l 1,36,37
 460 173 460 173 486 283 c 128,-1,38
 512 393 512 393 515 467 c 1,0,1
EndSplineSet
EndChar

StartChar: x
Encoding: 120 120 91
Width: 411
GlyphClass: 2
Flags: W
LayerCount: 2
Fore
SplineSet
318 -10 m 0,0,1
 301 -10 301 -10 292 -9 c 1,2,3
 253 84 253 84 200 175 c 1,4,5
 150 89 150 89 135.5 60 c 128,-1,6
 121 31 121 31 117 -8 c 1,7,8
 104 -10 104 -10 88 -10 c 0,9,10
 49 -10 49 -10 15 11 c 1,11,12
 56 77 56 77 169 228 c 1,13,14
 152 254 152 254 104 330 c 128,-1,15
 56 406 56 406 27 448 c 1,16,17
 56 469 56 469 109 469 c 0,18,19
 126 469 126 469 135 468 c 1,20,21
 162 407 162 407 216 297 c 1,22,23
 237 332 237 332 257.5 375.5 c 128,-1,24
 278 419 278 419 282 467 c 1,25,26
 291 469 291 469 320.5 469 c 128,-1,27
 350 469 350 469 385 453 c 1,28,29
 343 381 343 381 248 238 c 1,30,31
 256 226 256 226 311 141.5 c 128,-1,32
 366 57 366 57 400 11 c 1,33,34
 370 -10 370 -10 318 -10 c 0,0,1
EndSplineSet
EndChar

StartChar: y
Encoding: 121 121 92
Width: 444
GlyphClass: 2
Flags: W
LayerCount: 2
Fore
SplineSet
179 -160.5 m 128,-1,1
 139 -210 139 -210 84 -210 c 128,-1,2
 29 -210 29 -210 -19 -178 c 1,3,4
 -15 -120 -15 -120 14 -95 c 1,5,6
 44 -136 44 -136 87 -136 c 0,7,8
 110 -136 110 -136 139 -97 c 128,-1,9
 168 -58 168 -58 186 -6 c 1,10,11
 160 86 160 86 108.5 221.5 c 128,-1,12
 57 357 57 357 10 452 c 1,13,14
 50 469 50 469 82.5 469 c 128,-1,15
 115 469 115 469 126 468 c 1,16,17
 136 325 136 325 225 111 c 1,18,-1
 229 111 l 1,19,20
 262 174 262 174 293.5 284 c 128,-1,21
 325 394 325 394 329 467 c 1,22,23
 347 469 347 469 356 469 c 0,24,25
 403 469 403 469 434 452 c 1,26,27
 409 396 409 396 345 235.5 c 128,-1,28
 281 75 281 75 250 -18 c 128,-1,0
 219 -111 219 -111 179 -160.5 c 128,-1,1
EndSplineSet
EndChar

StartChar: z
Encoding: 122 122 93
Width: 400
GlyphClass: 2
Flags: W
LayerCount: 2
Fore
SplineSet
199 397 m 2,0,1
 110 397 110 397 39 378 c 1,2,3
 30 408 30 408 30 426 c 128,-1,4
 30 444 30 444 36 471 c 1,5,6
 88 464 88 464 197 464 c 128,-1,7
 306 464 306 464 360 470 c 1,8,9
 365 460 365 460 365 432 c 1,10,11
 324 355 324 355 248 240.5 c 128,-1,12
 172 126 172 126 142 74 c 1,13,-1
 186 74 l 1,14,15
 294 76 294 76 352 93 c 1,16,17
 362 62 362 62 362 39 c 128,-1,18
 362 16 362 16 357 -7 c 1,19,20
 271 2 271 2 187 2 c 128,-1,21
 103 2 103 2 22 -4 c 1,22,23
 16 11 16 11 15 32 c 1,24,25
 58 99 58 99 144.5 221.5 c 128,-1,26
 231 344 231 344 267 397 c 1,27,-1
 199 397 l 2,0,1
EndSplineSet
EndChar

StartChar: braceleft
Encoding: 123 123 94
Width: 344
GlyphClass: 2
Flags: W
LayerCount: 2
Fore
SplineSet
178 588 m 1,0,-1
 190 439 l 1,1,2
 190 400 190 400 173 368.5 c 128,-1,3
 156 337 156 337 126 333 c 1,4,-1
 126 327 l 1,5,6
 156 323 156 323 173 291.5 c 128,-1,7
 190 260 190 260 190 221 c 1,8,-1
 178 72 l 1,9,10
 178 34 178 34 189 20 c 128,-1,11
 200 6 200 6 233 6 c 128,-1,12
 266 6 266 6 316 17 c 1,13,14
 324 -9 324 -9 324 -31 c 128,-1,15
 324 -53 324 -53 320 -71 c 1,16,17
 274 -59 274 -59 208.5 -59 c 128,-1,18
 143 -59 143 -59 120.5 -29.5 c 128,-1,19
 98 0 98 0 98 53 c 1,20,-1
 109 205 l 1,21,22
 109 247 109 247 94 272 c 128,-1,23
 79 297 79 297 37 303 c 1,24,25
 30 313 30 313 30 330 c 128,-1,26
 30 347 30 347 37 357 c 1,27,28
 79 363 79 363 94 388 c 128,-1,29
 109 413 109 413 109 455 c 1,30,-1
 98 607 l 1,31,32
 98 660 98 660 120.5 689.5 c 128,-1,33
 143 719 143 719 208.5 719 c 128,-1,34
 274 719 274 719 320 731 c 1,35,36
 324 713 324 713 324 691 c 128,-1,37
 324 669 324 669 316 643 c 1,38,39
 266 654 266 654 233 654 c 128,-1,40
 200 654 200 654 189 640 c 128,-1,41
 178 626 178 626 178 588 c 1,0,-1
EndSplineSet
EndChar

StartChar: bar
Encoding: 124 124 95
Width: 263
GlyphClass: 2
Flags: W
LayerCount: 2
Fore
SplineSet
93 -85 m 1,0,1
 103 56 103 56 103 328 c 128,-1,2
 103 600 103 600 90 717 c 1,3,4
 116 729 116 729 133 729 c 128,-1,5
 150 729 150 729 170 726 c 1,6,7
 160 589 160 589 160 287.5 c 128,-1,8
 160 -14 160 -14 173 -76 c 1,9,10
 144 -88 144 -88 126 -88 c 128,-1,11
 108 -88 108 -88 93 -85 c 1,0,1
EndSplineSet
EndChar

StartChar: braceright
Encoding: 125 125 96
Width: 344
GlyphClass: 2
Flags: W
LayerCount: 2
Fore
SplineSet
166 72 m 1,0,-1
 154 221 l 1,1,2
 154 260 154 260 171 291.5 c 128,-1,3
 188 323 188 323 218 327 c 1,4,-1
 218 333 l 1,5,6
 188 337 188 337 171 368.5 c 128,-1,7
 154 400 154 400 154 439 c 1,8,-1
 166 588 l 1,9,10
 166 626 166 626 155 640 c 128,-1,11
 144 654 144 654 111 654 c 128,-1,12
 78 654 78 654 28 643 c 1,13,14
 20 669 20 669 20 691 c 128,-1,15
 20 713 20 713 24 731 c 1,16,17
 70 719 70 719 135.5 719 c 128,-1,18
 201 719 201 719 223.5 689.5 c 128,-1,19
 246 660 246 660 246 607 c 1,20,-1
 235 455 l 1,21,22
 235 413 235 413 250 388 c 128,-1,23
 265 363 265 363 307 357 c 1,24,25
 314 347 314 347 314 330 c 128,-1,26
 314 313 314 313 307 303 c 1,27,28
 265 297 265 297 250 272 c 128,-1,29
 235 247 235 247 235 205 c 1,30,-1
 246 53 l 1,31,32
 246 0 246 0 223.5 -29.5 c 128,-1,33
 201 -59 201 -59 135.5 -59 c 128,-1,34
 70 -59 70 -59 24 -71 c 1,35,36
 20 -53 20 -53 20 -31 c 128,-1,37
 20 -9 20 -9 28 17 c 1,38,39
 78 6 78 6 111 6 c 128,-1,40
 144 6 144 6 155 20 c 128,-1,41
 166 34 166 34 166 72 c 1,0,-1
EndSplineSet
EndChar

StartChar: asciitilde
Encoding: 126 126 97
Width: 601
GlyphClass: 2
Flags: W
LayerCount: 2
Fore
SplineSet
502 288 m 1,0,1
 477 321 477 321 432 321 c 128,-1,2
 387 321 387 321 301 292.5 c 128,-1,3
 215 264 215 264 167.5 264 c 128,-1,4
 120 264 120 264 84 291 c 1,5,6
 84 330 84 330 98 367 c 1,7,8
 123 334 123 334 168.5 334 c 128,-1,9
 214 334 214 334 300.5 362.5 c 128,-1,10
 387 391 387 391 434.5 391 c 128,-1,11
 482 391 482 391 518 364 c 1,12,13
 518 330 518 330 502 288 c 1,0,1
EndSplineSet
EndChar

StartChar: exclamdown
Encoding: 161 161 98
Width: 270
GlyphClass: 2
Flags: W
LayerCount: 2
Fore
SplineSet
149 88 m 0,0,1
 149 -96 149 -96 175 -200 c 1,2,3
 145 -211 145 -211 117 -211 c 128,-1,4
 89 -211 89 -211 65 -205 c 1,5,6
 85 -16 85 -16 85 218 c 0,7,8
 85 251 85 251 83 283 c 1,9,10
 103 289 103 289 117.5 289 c 128,-1,11
 132 289 132 289 151 283 c 1,12,13
 149 177 149 177 149 88 c 0,0,1
50 408 m 0,14,15
 50 438 50 438 68 458 c 128,-1,16
 86 478 86 478 123 478 c 0,17,18
 180 478 180 478 180 420 c 0,19,20
 180 348 180 348 107 348 c 0,21,22
 50 348 50 348 50 408 c 0,14,15
EndSplineSet
EndChar

StartChar: cent
Encoding: 162 162 99
Width: 470
GlyphClass: 2
Flags: W
LayerCount: 2
Fore
SplineSet
262 213 m 2,0,-1
 262 136 l 1,1,2
 337 139 337 139 393 198 c 1,3,4
 422 168 422 168 430 119 c 1,5,6
 356 64 356 64 265 64 c 1,7,8
 267 15 267 15 270 5 c 1,9,10
 243 -8 243 -8 218.5 -8 c 128,-1,11
 194 -8 194 -8 179 -5 c 1,12,-1
 187 73 l 1,13,14
 40 111 40 111 40 311 c 0,15,16
 40 403 40 403 80 467.5 c 128,-1,17
 120 532 120 532 205 550 c 1,18,19
 202 598 202 598 199 632 c 1,20,21
 221 645 221 645 261 645 c 0,22,23
 270 645 270 645 290 642 c 1,24,25
 287 625 287 625 280 557 c 1,26,27
 340 554 340 554 382 522 c 128,-1,28
 424 490 424 490 424 432 c 0,29,30
 424 425 424 425 422 409 c 1,31,32
 396 401 396 401 374.5 401 c 128,-1,33
 353 401 353 401 331 403 c 1,34,35
 332 410 332 410 332 431.5 c 128,-1,36
 332 453 332 453 318 474.5 c 128,-1,37
 304 496 304 496 274 500 c 1,38,39
 262 375 262 375 262 213 c 2,0,-1
122 311 m 0,40,41
 122 188 122 188 193 150 c 1,42,43
 208 319 208 319 208 455 c 2,44,-1
 208 490 l 1,45,46
 164 471 164 471 143 422.5 c 128,-1,47
 122 374 122 374 122 311 c 0,40,41
EndSplineSet
EndChar

StartChar: sterling
Encoding: 163 163 100
Width: 546
GlyphClass: 2
Flags: W
LayerCount: 2
Fore
SplineSet
136 215 m 0,0,1
 136 245 136 245 133 275 c 1,2,-1
 63 275 l 1,3,4
 55 291 55 291 55 305 c 128,-1,5
 55 319 55 319 58 331 c 1,6,-1
 127 331 l 1,7,8
 112 451 112 451 112 491 c 0,9,10
 112 577 112 577 163 621.5 c 128,-1,11
 214 666 214 666 300 666 c 0,12,13
 483 666 483 666 483 494 c 0,14,15
 483 482 483 482 480 469 c 1,16,17
 458 460 458 460 434 460 c 128,-1,18
 410 460 410 460 400 462 c 1,19,20
 401 470 401 470 401 483 c 0,21,22
 401 544 401 544 378.5 573 c 128,-1,23
 356 602 356 602 300 602 c 128,-1,24
 244 602 244 602 222 568 c 128,-1,25
 200 534 200 534 200 490 c 128,-1,26
 200 446 200 446 209 331 c 1,27,28
 316 333 316 333 391 339 c 1,29,30
 398 325 398 325 398 304.5 c 128,-1,31
 398 284 398 284 394 269 c 1,32,33
 294 274 294 274 213 274 c 1,34,35
 215 238 215 238 215 193 c 128,-1,36
 215 148 215 148 202 67 c 1,37,-1
 297 67 l 2,38,39
 330 67 330 67 401 71.5 c 128,-1,40
 472 76 472 76 490 81 c 1,41,42
 494 63 494 63 494 41 c 128,-1,43
 494 19 494 19 486 -7 c 1,44,45
 412 2 412 2 327.5 2 c 128,-1,46
 243 2 243 2 163 -2.5 c 128,-1,47
 83 -7 83 -7 65 -12 c 1,48,49
 61 6 61 6 61 23 c 1,50,-1
 115 72 l 1,51,52
 136 135 136 135 136 215 c 0,0,1
EndSplineSet
EndChar

StartChar: yen
Encoding: 165 165 101
Width: 494
GlyphClass: 2
Flags: W
LayerCount: 2
Fore
SplineSet
134 401 m 1,0,-1
 17 634 l 1,1,2
 57 651 57 651 89.5 651 c 128,-1,3
 122 651 122 651 133 650 c 1,4,5
 139 575 139 575 180 478 c 0,6,7
 196 442 196 442 222.5 383 c 128,-1,8
 249 324 249 324 262 293 c 1,9,-1
 266 293 l 1,10,11
 301 360 301 360 336.5 469.5 c 128,-1,12
 372 579 372 579 376 649 c 1,13,14
 394 651 394 651 403 651 c 0,15,16
 450 651 450 651 481 634 c 1,17,18
 478 626 478 626 460 586 c 0,19,20
 407 474 407 474 377 405 c 1,21,22
 426 407 426 407 451 409 c 1,23,24
 458 395 458 395 458 374.5 c 128,-1,25
 458 354 458 354 454 339 c 1,26,27
 422 341 422 341 351 343 c 1,28,29
 332 297 332 297 316 253 c 1,30,31
 340 252 340 252 385 252 c 128,-1,32
 430 252 430 252 450 253 c 1,33,34
 458 237 458 237 458 223 c 128,-1,35
 458 209 458 209 455 197 c 1,36,37
 354 197 354 197 298 196 c 1,38,39
 298 70 298 70 313 2 c 1,40,41
 280 -8 280 -8 252 -8 c 128,-1,42
 224 -8 224 -8 207 -6 c 1,43,44
 217 75 217 75 220 195 c 1,45,46
 126 193 126 193 62 189 c 1,47,48
 55 203 55 203 55 223.5 c 128,-1,49
 55 244 55 244 59 259 c 1,50,51
 133 255 133 255 199 254 c 1,52,53
 183 295 183 295 160 345 c 1,54,-1
 63 345 l 1,55,56
 55 361 55 361 55 375 c 128,-1,57
 55 389 55 389 58 401 c 1,58,-1
 134 401 l 1,0,-1
EndSplineSet
EndChar

StartChar: brokenbar
Encoding: 166 166 102
Width: 263
GlyphClass: 2
Flags: W
LayerCount: 2
Fore
SplineSet
173 -76 m 1,0,1
 142 -88 142 -88 125 -88 c 128,-1,2
 108 -88 108 -88 93 -85 c 1,3,4
 103 56 103 56 103 251 c 1,5,6
 130 258 130 258 142 258 c 128,-1,7
 154 258 154 258 160 257 c 1,8,9
 160 -14 160 -14 173 -76 c 1,0,1
90 717 m 1,10,11
 115 729 115 729 135 729 c 128,-1,12
 155 729 155 729 170 726 c 1,13,14
 160 585 160 585 160 390 c 1,15,16
 133 383 133 383 120.5 383 c 128,-1,17
 108 383 108 383 103 384 c 1,18,19
 103 655 103 655 90 717 c 1,10,11
EndSplineSet
EndChar

StartChar: section
Encoding: 167 167 103
Width: 480
GlyphClass: 2
Flags: W
LayerCount: 2
Fore
SplineSet
48 246 m 0,0,1
 48 326 48 326 101 369 c 1,2,3
 48 415 48 415 48 488.5 c 128,-1,4
 48 562 48 562 95 608.5 c 128,-1,5
 142 655 142 655 240.5 655 c 128,-1,6
 339 655 339 655 385.5 606 c 128,-1,7
 432 557 432 557 432 478 c 0,8,9
 432 466 432 466 429 453 c 1,10,11
 404 444 404 444 377.5 444 c 128,-1,12
 351 444 351 444 339 446 c 1,13,14
 340 454 340 454 340 467 c 0,15,16
 340 525 340 525 309.5 560.5 c 128,-1,17
 279 596 279 596 233 596 c 128,-1,18
 187 596 187 596 160.5 571.5 c 128,-1,19
 134 547 134 547 134 505.5 c 128,-1,20
 134 464 134 464 157 438.5 c 128,-1,21
 180 413 180 413 214.5 399 c 128,-1,22
 249 385 249 385 289.5 367.5 c 128,-1,23
 330 350 330 350 364.5 331.5 c 128,-1,24
 399 313 399 313 422 276.5 c 128,-1,25
 445 240 445 240 445 190 c 0,26,27
 445 110 445 110 387 70 c 1,28,29
 445 22 445 22 445 -55 c 0,30,31
 445 -111 445 -111 415.5 -147.5 c 128,-1,32
 386 -184 386 -184 344 -197 c 128,-1,33
 302 -210 302 -210 247 -210 c 0,34,35
 116 -210 116 -210 35 -134 c 1,36,37
 39 -110 39 -110 51.5 -90 c 128,-1,38
 64 -70 64 -70 74 -62 c 1,39,-1
 85 -55 l 1,40,41
 144 -136 144 -136 247 -136 c 0,42,43
 304 -136 304 -136 330.5 -112.5 c 128,-1,44
 357 -89 357 -89 357 -53 c 128,-1,45
 357 -17 357 -17 325 7.5 c 128,-1,46
 293 32 293 32 247.5 49 c 128,-1,47
 202 66 202 66 157 86.5 c 128,-1,48
 112 107 112 107 80 147 c 128,-1,49
 48 187 48 187 48 246 c 0,0,1
189 168 m 0,50,51
 229 145 229 145 303 117 c 1,52,53
 357 136 357 136 357 193 c 0,54,55
 357 220 357 220 337.5 241 c 128,-1,56
 318 262 318 262 295 272.5 c 128,-1,57
 272 283 272 283 229 300.5 c 128,-1,58
 186 318 186 318 163 329 c 1,59,60
 134 303 134 303 134 251 c 128,-1,61
 134 199 134 199 189 168 c 0,50,51
EndSplineSet
EndChar

StartChar: dieresis
Encoding: 168 168 104
Width: 473
GlyphClass: 2
Flags: W
LayerCount: 2
Fore
SplineSet
213 607 m 0,0,1
 213 552 213 552 155 552 c 0,2,3
 110 552 110 552 110 598 c 0,4,5
 110 654 110 654 168 654 c 0,6,7
 213 654 213 654 213 607 c 0,0,1
363 607 m 0,8,9
 363 552 363 552 305 552 c 0,10,11
 260 552 260 552 260 598 c 0,12,13
 260 654 260 654 318 654 c 0,14,15
 363 654 363 654 363 607 c 0,8,9
EndSplineSet
EndChar

StartChar: copyright
Encoding: 169 169 105
Width: 616
GlyphClass: 2
Flags: W
LayerCount: 2
Fore
SplineSet
407 541 m 1,0,-1
 404 524 l 1,1,2
 393 518 393 518 377 518 c 128,-1,3
 361 518 361 518 349 520 c 1,4,5
 351 528 351 528 351 544.5 c 128,-1,6
 351 561 351 561 338.5 577 c 128,-1,7
 326 593 326 593 305 593 c 0,8,9
 230 593 230 593 230 467.5 c 128,-1,10
 230 342 230 342 305 342 c 0,11,12
 345 342 345 342 378 380 c 1,13,14
 400 361 400 361 405 329 c 1,15,16
 358 294 358 294 305 294 c 0,17,18
 230 294 230 294 204 339.5 c 128,-1,19
 178 385 178 385 178 467 c 0,20,21
 178 632 178 632 305 632 c 0,22,23
 356 632 356 632 381.5 606.5 c 128,-1,24
 407 581 407 581 407 541 c 1,0,-1
331 674 m 0,25,26
 113 674 113 674 113 469 c 0,27,28
 113 350 113 350 154.5 303 c 128,-1,29
 196 256 196 256 285 256 c 0,30,31
 396 256 396 256 449.5 314 c 128,-1,32
 503 372 503 372 503 475.5 c 128,-1,33
 503 579 503 579 461.5 626.5 c 128,-1,34
 420 674 420 674 331 674 c 0,25,26
503.5 658 m 128,-1,36
 556 598 556 598 556 474.5 c 128,-1,37
 556 351 556 351 492 281.5 c 128,-1,38
 428 212 428 212 297 212 c 128,-1,39
 166 212 166 212 113 275 c 128,-1,40
 60 338 60 338 60 461 c 0,41,42
 60 516 60 516 71 558.5 c 128,-1,43
 82 601 82 601 110 639 c 0,44,45
 168 718 168 718 328 718 c 0,46,35
 451 718 451 718 503.5 658 c 128,-1,36
EndSplineSet
EndChar

StartChar: ordfeminine
Encoding: 170 170 106
Width: 327
GlyphClass: 2
Flags: W
LayerCount: 2
Fore
SplineSet
258 590 m 1,0,-1
 255 505 l 1,1,2
 255 461 255 461 267 385 c 1,3,4
 249 378 249 378 231 378 c 128,-1,5
 213 378 213 378 201 381 c 1,6,-1
 199 404 l 1,7,8
 165 373 165 373 126.5 373 c 128,-1,9
 88 373 88 373 69 396.5 c 128,-1,10
 50 420 50 420 50 460 c 0,11,12
 50 546 50 546 148 546 c 0,13,14
 178 546 178 546 203 534 c 1,15,16
 205 556 205 556 205 571 c 0,17,18
 205 634 205 634 159 634 c 0,19,20
 119 634 119 634 119 590 c 0,21,22
 119 583 119 583 120 576 c 1,23,-1
 106 575 l 1,24,25
 74 575 74 575 59 581 c 1,26,27
 58 586 58 586 58 595 c 0,28,29
 58 634 58 634 89.5 653.5 c 128,-1,30
 121 673 121 673 163.5 673 c 128,-1,31
 206 673 206 673 232 652 c 128,-1,32
 258 631 258 631 258 590 c 1,0,-1
148 510 m 0,33,34
 106 510 106 510 106 467.5 c 128,-1,35
 106 425 106 425 142 425 c 128,-1,36
 178 425 178 425 198 449 c 1,37,38
 201 488 201 488 201 493 c 1,39,40
 178 510 178 510 148 510 c 0,33,34
49 262 m 1,41,42
 43 274 43 274 43 289.5 c 128,-1,43
 43 305 43 305 49 326 c 1,44,45
 247 340 247 340 271 345 c 1,46,47
 277 333 277 333 277 317.5 c 128,-1,48
 277 302 277 302 271 281 c 1,49,50
 73 267 73 267 49 262 c 1,41,42
EndSplineSet
EndChar

StartChar: guillemotleft
Encoding: 171 171 107
Width: 495
GlyphClass: 2
Flags: W
LayerCount: 2
Fore
SplineSet
228 426 m 1,0,1
 228 426 228 426 147 280 c 1,2,3
 154 267 154 267 228 134 c 1,4,5
 208 114 208 114 180 108 c 1,6,7
 162 130 162 130 139 158 c 128,-1,8
 116 186 116 186 104 202 c 1,9,10
 74 238 74 238 30 280 c 1,11,12
 74 322 74 322 95 348 c 128,-1,13
 116 374 116 374 139 402 c 128,-1,14
 162 430 162 430 180 452 c 1,15,16
 211 443 211 443 228 426 c 1,0,1
425 426 m 1,17,18
 346 284 346 284 344 280 c 1,19,20
 377 218 377 218 425 134 c 1,21,22
 402 113 402 113 377 108 c 1,23,24
 359 130 359 130 336 158 c 128,-1,25
 313 186 313 186 300 202 c 0,26,27
 271 238 271 238 227 280 c 1,28,29
 271 322 271 322 292 348 c 128,-1,30
 313 374 313 374 336 402 c 128,-1,31
 359 430 359 430 377 452 c 1,32,33
 405 444 405 444 425 426 c 1,17,18
EndSplineSet
EndChar

StartChar: logicalnot
Encoding: 172 172 108
Width: 601
GlyphClass: 2
Flags: W
LayerCount: 2
Fore
SplineSet
446 286 m 1,0,1
 354 295 354 295 298 295 c 128,-1,2
 242 295 242 295 175 290.5 c 128,-1,3
 108 286 108 286 90 281 c 1,4,5
 87 295 87 295 87 321 c 128,-1,6
 87 347 87 347 94 369 c 1,7,8
 163 360 163 360 261 360 c 0,9,10
 461 360 461 360 511 374 c 1,11,12
 507 331 507 331 507 268.5 c 128,-1,13
 507 206 507 206 518 167 c 1,14,15
 504 164 504 164 481.5 164 c 128,-1,16
 459 164 459 164 438 171 c 1,17,18
 446 213 446 213 446 286 c 1,0,1
EndSplineSet
EndChar

StartChar: registered
Encoding: 174 174 109
Width: 616
GlyphClass: 2
Flags: W
LayerCount: 2
Fore
SplineSet
285 474 m 1,0,1
 298 468 298 468 315 468 c 128,-1,2
 332 468 332 468 345 487 c 128,-1,3
 358 506 358 506 358 531 c 0,4,5
 358 593 358 593 299 593 c 0,6,7
 277 593 277 593 259 586 c 1,8,9
 256 549 256 549 256 443.5 c 128,-1,10
 256 338 256 338 266 305 c 1,11,12
 247 298 247 298 231.5 298 c 128,-1,13
 216 298 216 298 200 300 c 1,14,15
 208 369 208 369 208 466.5 c 128,-1,16
 208 564 208 564 198 617 c 1,17,18
 235 632 235 632 297.5 632 c 128,-1,19
 360 632 360 632 386 606 c 128,-1,20
 412 580 412 580 412 538.5 c 128,-1,21
 412 497 412 497 393.5 469.5 c 128,-1,22
 375 442 375 442 342 433 c 1,23,24
 398 348 398 348 428 308 c 1,25,26
 404 296 404 296 361 296 c 1,27,28
 330 361 330 361 286 430 c 1,29,30
 284 430 284 430 274 434 c 1,31,32
 274 463 274 463 285 474 c 1,0,1
503.5 658 m 128,-1,34
 556 598 556 598 556 474.5 c 128,-1,35
 556 351 556 351 492 281.5 c 128,-1,36
 428 212 428 212 297 212 c 128,-1,37
 166 212 166 212 113 275 c 128,-1,38
 60 338 60 338 60 461 c 0,39,40
 60 516 60 516 71 558.5 c 128,-1,41
 82 601 82 601 110 639 c 0,42,43
 168 718 168 718 328 718 c 0,44,33
 451 718 451 718 503.5 658 c 128,-1,34
331 674 m 0,45,46
 113 674 113 674 113 469 c 0,47,48
 113 350 113 350 154.5 303 c 128,-1,49
 196 256 196 256 285 256 c 0,50,51
 396 256 396 256 449.5 314 c 128,-1,52
 503 372 503 372 503 475.5 c 128,-1,53
 503 579 503 579 461.5 626.5 c 128,-1,54
 420 674 420 674 331 674 c 0,45,46
EndSplineSet
EndChar

StartChar: macron
Encoding: 175 175 110
Width: 467
GlyphClass: 2
Flags: W
LayerCount: 2
Fore
SplineSet
352 571 m 1,0,1
 305 575 305 575 224 575 c 128,-1,2
 143 575 143 575 111 567 c 1,3,4
 110 574 110 574 110 597 c 128,-1,5
 110 620 110 620 114 636 c 1,6,7
 154 632 154 632 237.5 632 c 128,-1,8
 321 632 321 632 355 641 c 1,9,10
 357 627 357 627 357 607 c 128,-1,11
 357 587 357 587 352 571 c 1,0,1
EndSplineSet
EndChar

StartChar: degree
Encoding: 176 176 111
Width: 342
GlyphClass: 2
Flags: W
LayerCount: 2
Fore
SplineSet
274.5 651.5 m 128,-1,1
 302 620 302 620 302 555 c 128,-1,2
 302 490 302 490 268 453.5 c 128,-1,3
 234 417 234 417 165 417 c 128,-1,4
 96 417 96 417 68 450 c 128,-1,5
 40 483 40 483 40 546.5 c 128,-1,6
 40 610 40 610 70.5 646.5 c 128,-1,7
 101 683 101 683 174 683 c 128,-1,0
 247 683 247 683 274.5 651.5 c 128,-1,1
180 631 m 0,8,9
 95 631 95 631 95 552 c 0,10,11
 95 506 95 506 111 487.5 c 128,-1,12
 127 469 127 469 166 469 c 128,-1,13
 205 469 205 469 226 491.5 c 128,-1,14
 247 514 247 514 247 554.5 c 128,-1,15
 247 595 247 595 231 613 c 128,-1,16
 215 631 215 631 180 631 c 0,8,9
EndSplineSet
EndChar

StartChar: plusminus
Encoding: 177 177 112
Width: 601
GlyphClass: 2
Flags: W
LayerCount: 2
Fore
SplineSet
259 574 m 1,0,1
 281 581 281 581 307 581 c 128,-1,2
 333 581 333 581 347 578 c 1,3,4
 342 561 342 561 337.5 497.5 c 128,-1,5
 333 434 333 434 333 400 c 1,6,7
 367 400 367 400 430.5 404.5 c 128,-1,8
 494 409 494 409 511 414 c 1,9,10
 514 400 514 400 514 374 c 128,-1,11
 514 348 514 348 507 326 c 1,12,13
 431 333 431 333 333 335 c 1,14,15
 333 227 333 227 342 161 c 1,16,17
 320 154 320 154 294 154 c 128,-1,18
 268 154 268 154 254 157 c 1,19,20
 265 201 265 201 268 335 c 1,21,22
 134 332 134 332 90 321 c 1,23,24
 87 334 87 334 87 360.5 c 128,-1,25
 87 387 87 387 94 409 c 1,26,27
 160 400 160 400 268 400 c 1,28,29
 266 498 266 498 259 574 c 1,0,1
507 -5 m 1,30,31
 415 4 415 4 328.5 4 c 128,-1,32
 242 4 242 4 175 -0.5 c 128,-1,33
 108 -5 108 -5 90 -10 c 1,34,35
 87 3 87 3 87 29.5 c 128,-1,36
 87 56 87 56 94 78 c 1,37,38
 163 69 163 69 261 69 c 0,39,40
 461 69 461 69 511 83 c 1,41,42
 514 70 514 70 514 43.5 c 128,-1,43
 514 17 514 17 507 -5 c 1,30,31
EndSplineSet
EndChar

StartChar: twosuperior
Encoding: 178 178 113
Width: 349
GlyphClass: 2
Flags: W
LayerCount: 2
Fore
SplineSet
171 698 m 128,-1,1
 223 698 223 698 259 670 c 128,-1,2
 295 642 295 642 295 589 c 0,3,4
 295 561 295 561 277.5 529 c 128,-1,5
 260 497 260 497 242.5 477 c 128,-1,6
 225 457 225 457 185.5 416 c 128,-1,7
 146 375 146 375 133 358 c 1,8,-1
 183 358 l 2,9,10
 266 358 266 358 299 369 c 1,11,12
 306 350 306 350 306 332 c 128,-1,13
 306 314 306 314 299 298 c 1,14,15
 250 305 250 305 172 305 c 128,-1,16
 94 305 94 305 41 295 c 1,17,18
 37 315 37 315 37 327 c 1,19,20
 66 374 66 374 116.5 427.5 c 128,-1,21
 167 481 167 481 182 499 c 0,22,23
 227 551 227 551 227 587 c 0,24,25
 227 610 227 610 213.5 628 c 128,-1,26
 200 646 200 646 172.5 646 c 128,-1,27
 145 646 145 646 127.5 631 c 128,-1,28
 110 616 110 616 110 582 c 0,29,30
 110 572 110 572 111 567 c 1,31,32
 99 563 99 563 80.5 563 c 128,-1,33
 62 563 62 563 48 572 c 1,34,35
 45 585 45 585 45 597 c 0,36,37
 45 645 45 645 82 671.5 c 128,-1,0
 119 698 119 698 171 698 c 128,-1,1
EndSplineSet
EndChar

StartChar: threesuperior
Encoding: 179 179 114
Width: 370
GlyphClass: 2
Flags: W
LayerCount: 2
Fore
SplineSet
178 698 m 128,-1,1
 230 698 230 698 266 670 c 128,-1,2
 302 642 302 642 302 586 c 128,-1,3
 302 530 302 530 260 504 c 1,4,5
 316 475 316 475 316 417 c 128,-1,6
 316 359 316 359 280 326.5 c 128,-1,7
 244 294 244 294 166 294 c 128,-1,8
 88 294 88 294 41 338 c 1,9,10
 44 355 44 355 53.5 370 c 128,-1,11
 63 385 63 385 71 392 c 2,12,-1
 79 398 l 1,13,14
 114 347 114 347 169 347 c 0,15,16
 209 347 209 347 228.5 365 c 128,-1,17
 248 383 248 383 248 411 c 0,18,19
 248 457 248 457 208 473 c 1,20,21
 193 472 193 472 168.5 472 c 128,-1,22
 144 472 144 472 125 475 c 1,23,24
 123 487 123 487 123 498.5 c 128,-1,25
 123 510 123 510 131 522 c 1,26,27
 148 516 148 516 176.5 516 c 128,-1,28
 205 516 205 516 220.5 538 c 128,-1,29
 236 560 236 560 236 584.5 c 128,-1,30
 236 609 236 609 221.5 627.5 c 128,-1,31
 207 646 207 646 179.5 646 c 128,-1,32
 152 646 152 646 134.5 631 c 128,-1,33
 117 616 117 616 117 582 c 0,34,35
 117 572 117 572 118 567 c 1,36,37
 106 563 106 563 87.5 563 c 128,-1,38
 69 563 69 563 55 572 c 1,39,40
 52 585 52 585 52 597 c 0,41,42
 52 645 52 645 89 671.5 c 128,-1,0
 126 698 126 698 178 698 c 128,-1,1
EndSplineSet
EndChar

StartChar: acute
Encoding: 180 180 115
Width: 424
GlyphClass: 2
Flags: W
LayerCount: 2
Fore
SplineSet
130 528 m 1,0,1
 115 544 115 544 110 565 c 1,2,3
 129 578 129 578 158 597 c 128,-1,4
 187 616 187 616 200 626 c 0,5,6
 241 654 241 654 274 682 c 1,7,8
 295 664 295 664 304 647.5 c 128,-1,9
 313 631 313 631 314 603 c 1,10,11
 254 579 254 579 130 528 c 1,0,1
EndSplineSet
EndChar

StartChar: mu
Encoding: 181 181 116
Width: 485
GlyphClass: 2
Flags: W
LayerCount: 2
Fore
SplineSet
269 5.5 m 128,-1,1
 244 -5 244 -5 204 -5 c 128,-1,2
 164 -5 164 -5 138 18 c 1,3,4
 143 -99 143 -99 163 -177 c 1,5,6
 133 -188 133 -188 107.5 -188 c 128,-1,7
 82 -188 82 -188 58 -182 c 1,8,9
 78 7 78 7 78 185 c 128,-1,10
 78 363 78 363 60 458 c 1,11,12
 82 467 82 467 110.5 467 c 128,-1,13
 139 467 139 467 166 464 c 1,14,15
 151 327 151 327 151 231 c 128,-1,16
 151 135 151 135 164.5 96 c 128,-1,17
 178 57 178 57 224.5 57 c 128,-1,18
 271 57 271 57 332 118 c 1,19,20
 334 148 334 148 334 207 c 0,21,22
 334 372 334 372 316 458 c 1,23,24
 354 468 354 468 379 468 c 128,-1,25
 404 468 404 468 422 464 c 1,26,27
 407 328 407 328 407 219.5 c 128,-1,28
 407 111 407 111 425 3 c 1,29,30
 395 -6 395 -6 373 -6 c 128,-1,31
 351 -6 351 -6 331 -4 c 1,32,-1
 329 45 l 1,33,0
 294 16 294 16 269 5.5 c 128,-1,1
EndSplineSet
EndChar

StartChar: paragraph
Encoding: 182 182 117
Width: 512
GlyphClass: 2
Flags: W
LayerCount: 2
Fore
SplineSet
408 571 m 1,0,1
 400 501 400 501 400 306 c 128,-1,2
 400 111 400 111 414 -6 c 1,3,4
 397 -8 397 -8 369 -8 c 128,-1,5
 341 -8 341 -8 308 2 c 1,6,7
 321 45 321 45 325 280 c 1,8,9
 305 275 305 275 279 275 c 0,10,11
 177 275 177 275 126 330 c 128,-1,12
 75 385 75 385 75 465 c 0,13,14
 75 655 75 655 293 655 c 0,15,16
 406 655 406 655 484 617 c 1,17,18
 484 590 484 590 477 568.5 c 128,-1,19
 470 547 470 547 463 541 c 1,20,21
 438 559 438 559 408 571 c 1,0,1
315 597 m 1,22,-1
 294 598 l 1,23,24
 162 598 162 598 162 469 c 0,25,26
 162 420 162 420 186 381 c 128,-1,27
 210 342 210 342 265 342 c 0,28,29
 298 342 298 342 325 358 c 1,30,31
 325 496 325 496 315 597 c 1,22,-1
EndSplineSet
EndChar

StartChar: periodcentered
Encoding: 183 183 118
Width: 270
GlyphClass: 2
Flags: W
LayerCount: 2
Fore
SplineSet
220 253 m 0,0,1
 220 223 220 223 202 203 c 128,-1,2
 184 183 184 183 147 183 c 0,3,4
 90 183 90 183 90 241 c 0,5,6
 90 313 90 313 163 313 c 0,7,8
 220 313 220 313 220 253 c 0,0,1
EndSplineSet
EndChar

StartChar: cedilla
Encoding: 184 184 119
Width: 502
GlyphClass: 2
Flags: W
LayerCount: 2
Fore
SplineSet
337 -124 m 0,0,1
 337 -210 337 -210 226 -210 c 0,2,3
 181 -210 181 -210 152 -198 c 1,4,5
 151 -195 151 -195 151 -179.5 c 128,-1,6
 151 -164 151 -164 164 -144 c 1,7,8
 186 -164 186 -164 227.5 -164 c 128,-1,9
 269 -164 269 -164 269 -125 c 0,10,11
 269 -95 269 -95 224 -95 c 0,12,13
 204 -95 204 -95 176 -99 c 1,14,-1
 192 -10 l 1,15,-1
 234 -1 l 1,16,-1
 236 -54 l 1,17,18
 337 -58 337 -58 337 -124 c 0,0,1
EndSplineSet
EndChar

StartChar: onesuperior
Encoding: 185 185 120
Width: 265
GlyphClass: 2
Flags: W
LayerCount: 2
Fore
SplineSet
195 694 m 1,0,1
 186 628 186 628 186 487 c 128,-1,2
 186 346 186 346 198 307 c 1,3,4
 177 298 177 298 157 298 c 128,-1,5
 137 298 137 298 115 300 c 1,6,7
 125 375 125 375 125 478 c 128,-1,8
 125 581 125 581 122 616 c 1,9,10
 71 582 71 582 54 565 c 1,11,12
 24 599 24 599 18 628 c 1,13,14
 65 647 65 647 150 698 c 1,15,16
 187 698 187 698 195 694 c 1,0,1
EndSplineSet
EndChar

StartChar: ordmasculine
Encoding: 186 186 121
Width: 331
GlyphClass: 2
Flags: W
LayerCount: 2
Fore
SplineSet
50 526 m 0,0,1
 50 673 50 673 165.5 673 c 128,-1,2
 281 673 281 673 281 526 c 0,3,4
 281 455 281 455 256 414 c 128,-1,5
 231 373 231 373 165 373 c 128,-1,6
 99 373 99 373 74.5 414 c 128,-1,7
 50 455 50 455 50 526 c 0,0,1
165 425 m 128,-1,9
 222 425 222 425 222 527.5 c 128,-1,10
 222 630 222 630 165 630 c 128,-1,11
 108 630 108 630 108 527.5 c 128,-1,8
 108 425 108 425 165 425 c 128,-1,9
54 262 m 1,12,13
 48 274 48 274 48 289.5 c 128,-1,14
 48 305 48 305 54 326 c 1,15,16
 252 340 252 340 276 345 c 1,17,18
 282 333 282 333 282 317.5 c 128,-1,19
 282 302 282 302 276 281 c 1,20,21
 78 267 78 267 54 262 c 1,12,13
EndSplineSet
EndChar

StartChar: guillemotright
Encoding: 187 187 122
Width: 495
GlyphClass: 2
Flags: W
LayerCount: 2
Fore
SplineSet
348 280 m 1,0,-1
 267 426 l 1,1,2
 284 443 284 443 315 452 c 1,3,4
 333 430 333 430 356 402 c 128,-1,5
 379 374 379 374 392 358 c 0,6,7
 421 322 421 322 465 280 c 1,8,9
 421 238 421 238 400 212 c 128,-1,10
 379 186 379 186 356 158 c 128,-1,11
 333 130 333 130 315 108 c 1,12,13
 288 114 288 114 267 134 c 1,14,15
 341 267 341 267 348 280 c 1,0,-1
70 426 m 1,16,17
 90 444 90 444 118 452 c 1,18,19
 136 430 136 430 159 402 c 128,-1,20
 182 374 182 374 194 358 c 1,21,22
 224 322 224 322 268 280 c 1,23,24
 224 238 224 238 203 212 c 128,-1,25
 182 186 182 186 159 158 c 128,-1,26
 136 130 136 130 118 108 c 1,27,28
 93 113 93 113 70 134 c 1,29,30
 118 218 118 218 151 280 c 1,31,32
 149 284 149 284 70 426 c 1,16,17
EndSplineSet
EndChar

StartChar: onequarter
Encoding: 188 188 123
Width: 889
GlyphClass: 2
Flags: W
LayerCount: 2
Fore
SplineSet
305 -46 m 0,0,1
 271 -46 271 -46 248 -27 c 1,2,3
 372 265 372 265 502 686 c 1,4,5
 518 688 518 688 528 688 c 0,6,7
 556 688 556 688 581 670 c 1,8,9
 460 391 460 391 326 -44 c 1,10,11
 310 -46 310 -46 305 -46 c 0,0,1
758 76 m 1,12,-1
 730 79 l 1,13,14
 733 21 733 21 739 4 c 1,15,16
 718 -5 718 -5 698 -5 c 128,-1,17
 678 -5 678 -5 656 -3 c 1,18,19
 662 50 662 50 663 82 c 1,20,-1
 619 82 l 2,21,22
 538 82 538 82 490 79 c 1,23,24
 485 92 485 92 485 110 c 1,25,-1
 511 153 l 2,26,27
 593 290 593 290 635 383 c 1,28,29
 658 392 658 392 680 392 c 128,-1,30
 702 392 702 392 736 389 c 1,31,32
 727 321 727 321 727 242 c 128,-1,33
 727 163 727 163 728 141 c 1,34,35
 751 144 751 144 759 147 c 1,36,37
 765 129 765 129 765 114 c 128,-1,38
 765 99 765 99 758 76 c 1,12,-1
665 136 m 1,39,40
 666 155 666 155 666 207.5 c 128,-1,41
 666 260 666 260 663 327 c 1,42,43
 619 254 619 254 565 135 c 1,44,45
 649 135 649 135 665 136 c 1,39,40
257 649 m 1,46,47
 248 583 248 583 248 442 c 128,-1,48
 248 301 248 301 260 262 c 1,49,50
 239 253 239 253 219 253 c 128,-1,51
 199 253 199 253 177 255 c 1,52,53
 187 330 187 330 187 433 c 128,-1,54
 187 536 187 536 184 571 c 1,55,56
 133 537 133 537 116 520 c 1,57,58
 86 554 86 554 80 583 c 1,59,60
 127 602 127 602 212 653 c 1,61,62
 249 653 249 653 257 649 c 1,46,47
EndSplineSet
EndChar

StartChar: onehalf
Encoding: 189 189 124
Width: 889
GlyphClass: 2
Flags: W
LayerCount: 2
Fore
SplineSet
294 -46 m 0,0,1
 260 -46 260 -46 237 -27 c 1,2,3
 361 265 361 265 491 686 c 1,4,5
 507 688 507 688 517 688 c 0,6,7
 545 688 545 688 570 670 c 1,8,9
 449 391 449 391 315 -44 c 1,10,11
 299 -46 299 -46 294 -46 c 0,0,1
643 395 m 128,-1,13
 695 395 695 395 731 367 c 128,-1,14
 767 339 767 339 767 286 c 0,15,16
 767 258 767 258 749.5 226 c 128,-1,17
 732 194 732 194 714.5 174 c 128,-1,18
 697 154 697 154 657.5 113 c 128,-1,19
 618 72 618 72 605 55 c 1,20,-1
 655 55 l 2,21,22
 738 55 738 55 771 66 c 1,23,24
 778 47 778 47 778 29 c 128,-1,25
 778 11 778 11 771 -5 c 1,26,27
 722 2 722 2 644 2 c 128,-1,28
 566 2 566 2 513 -8 c 1,29,30
 509 12 509 12 509 24 c 1,31,32
 538 71 538 71 588.5 124.5 c 128,-1,33
 639 178 639 178 654 196 c 0,34,35
 699 248 699 248 699 284 c 0,36,37
 699 307 699 307 685.5 325 c 128,-1,38
 672 343 672 343 644.5 343 c 128,-1,39
 617 343 617 343 599.5 328 c 128,-1,40
 582 313 582 313 582 279 c 0,41,42
 582 269 582 269 583 264 c 1,43,44
 571 260 571 260 552.5 260 c 128,-1,45
 534 260 534 260 520 269 c 1,46,47
 517 283 517 283 517 294 c 0,48,49
 517 342 517 342 554 368.5 c 128,-1,12
 591 395 591 395 643 395 c 128,-1,13
257 649 m 1,50,51
 248 583 248 583 248 442 c 128,-1,52
 248 301 248 301 260 262 c 1,53,54
 239 253 239 253 219 253 c 128,-1,55
 199 253 199 253 177 255 c 1,56,57
 187 330 187 330 187 433 c 128,-1,58
 187 536 187 536 184 571 c 1,59,60
 133 537 133 537 116 520 c 1,61,62
 86 554 86 554 80 583 c 1,63,64
 127 602 127 602 212 653 c 1,65,66
 249 653 249 653 257 649 c 1,50,51
EndSplineSet
EndChar

StartChar: threequarters
Encoding: 190 190 125
Width: 889
GlyphClass: 2
Flags: W
LayerCount: 2
Fore
SplineSet
335 -46 m 0,0,1
 301 -46 301 -46 278 -27 c 1,2,3
 402 265 402 265 532 686 c 1,4,5
 548 688 548 688 558 688 c 0,6,7
 586 688 586 688 611 670 c 1,8,9
 490 391 490 391 356 -44 c 1,10,11
 340 -46 340 -46 335 -46 c 0,0,1
758 76 m 1,12,-1
 730 79 l 1,13,14
 733 21 733 21 739 4 c 1,15,16
 718 -5 718 -5 698 -5 c 128,-1,17
 678 -5 678 -5 656 -3 c 1,18,19
 662 50 662 50 663 82 c 1,20,-1
 619 82 l 2,21,22
 538 82 538 82 490 79 c 1,23,24
 485 92 485 92 485 110 c 1,25,-1
 511 153 l 2,26,27
 593 290 593 290 635 383 c 1,28,29
 658 392 658 392 680 392 c 128,-1,30
 702 392 702 392 736 389 c 1,31,32
 727 321 727 321 727 242 c 128,-1,33
 727 163 727 163 728 141 c 1,34,35
 751 144 751 144 759 147 c 1,36,37
 765 129 765 129 765 114 c 128,-1,38
 765 99 765 99 758 76 c 1,12,-1
665 136 m 1,39,40
 666 155 666 155 666 207.5 c 128,-1,41
 666 260 666 260 663 327 c 1,42,43
 619 254 619 254 565 135 c 1,44,45
 649 135 649 135 665 136 c 1,39,40
210 653 m 128,-1,47
 262 653 262 653 298 625 c 128,-1,48
 334 597 334 597 334 541 c 128,-1,49
 334 485 334 485 292 459 c 1,50,51
 348 430 348 430 348 372 c 128,-1,52
 348 314 348 314 312 281.5 c 128,-1,53
 276 249 276 249 198 249 c 128,-1,54
 120 249 120 249 73 293 c 1,55,56
 76 310 76 310 85.5 325 c 128,-1,57
 95 340 95 340 103 346 c 2,58,-1
 111 353 l 1,59,60
 146 302 146 302 201 302 c 0,61,62
 241 302 241 302 260.5 320 c 128,-1,63
 280 338 280 338 280 366 c 0,64,65
 280 412 280 412 240 428 c 1,66,67
 225 427 225 427 200.5 427 c 128,-1,68
 176 427 176 427 157 430 c 1,69,70
 155 442 155 442 155 453.5 c 128,-1,71
 155 465 155 465 163 477 c 1,72,73
 180 471 180 471 208.5 471 c 128,-1,74
 237 471 237 471 252.5 493 c 128,-1,75
 268 515 268 515 268 539.5 c 128,-1,76
 268 564 268 564 253.5 582.5 c 128,-1,77
 239 601 239 601 211.5 601 c 128,-1,78
 184 601 184 601 166.5 586 c 128,-1,79
 149 571 149 571 149 537 c 0,80,81
 149 527 149 527 150 522 c 1,82,83
 138 518 138 518 119.5 518 c 128,-1,84
 101 518 101 518 87 527 c 1,85,86
 84 540 84 540 84 552 c 0,87,88
 84 600 84 600 121 626.5 c 128,-1,46
 158 653 158 653 210 653 c 128,-1,47
EndSplineSet
EndChar

StartChar: questiondown
Encoding: 191 191 126
Width: 429
GlyphClass: 2
Flags: W
LayerCount: 2
Fore
SplineSet
369 -176 m 1,0,-1
 368 -187 l 1,1,2
 315 -210 315 -210 237 -210 c 128,-1,3
 159 -210 159 -210 104.5 -169.5 c 128,-1,4
 50 -129 50 -129 50 -67 c 0,5,6
 50 -31 50 -31 68 -1 c 128,-1,7
 86 29 86 29 111.5 49.5 c 128,-1,8
 137 70 137 70 162 89 c 0,9,10
 224 135 224 135 224 180 c 128,-1,11
 224 225 224 225 196 257 c 1,12,13
 222 289 222 289 258 292 c 1,14,15
 292 224 292 224 292 174 c 128,-1,16
 292 124 292 124 234 66 c 0,17,18
 226 58 226 58 200.5 34.5 c 128,-1,19
 175 11 175 11 165 0 c 0,20,21
 133 -37 133 -37 133 -72.5 c 128,-1,22
 133 -108 133 -108 161.5 -130 c 128,-1,23
 190 -152 190 -152 242.5 -152 c 128,-1,24
 295 -152 295 -152 349 -112 c 1,25,26
 369 -145 369 -145 369 -176 c 1,0,-1
171 408 m 0,27,28
 171 438 171 438 189 458 c 128,-1,29
 207 478 207 478 244 478 c 0,30,31
 301 478 301 478 301 420 c 0,32,33
 301 348 301 348 228 348 c 0,34,35
 171 348 171 348 171 408 c 0,27,28
EndSplineSet
EndChar

StartChar: Agrave
Encoding: 192 192 127
Width: 561
GlyphClass: 2
Flags: W
LayerCount: 2
Fore
SplineSet
396 178 m 1,0,1
 347 181 347 181 273.5 181 c 128,-1,2
 200 181 200 181 149 177 c 1,3,4
 119 53 119 53 105 -10 c 1,5,6
 87 -12 87 -12 69.5 -12 c 128,-1,7
 52 -12 52 -12 14 -2 c 1,8,9
 177 432 177 432 204 639 c 1,10,11
 233 649 233 649 280 649 c 128,-1,12
 327 649 327 649 356 639 c 1,13,14
 383 432 383 432 546 -2 c 1,15,16
 510 -12 510 -12 482.5 -12 c 128,-1,17
 455 -12 455 -12 440 -10 c 1,18,19
 423 65 423 65 396 178 c 1,0,1
166 247 m 1,20,21
 212 246 212 246 263 246 c 128,-1,22
 314 246 314 246 378 248 c 1,23,24
 333 423 333 423 279 578 c 1,25,-1
 273 578 l 1,26,27
 214 430 214 430 166 247 c 1,20,21
338 704 m 1,28,29
 275 717 275 717 158 759 c 1,30,31
 158 792 158 792 164.5 807.5 c 128,-1,32
 171 823 171 823 191 845 c 1,33,34
 229 813 229 813 256.5 797.5 c 128,-1,35
 284 782 284 782 290.5 778 c 128,-1,36
 297 774 297 774 322 760 c 128,-1,37
 347 746 347 746 354 742 c 1,38,39
 351 721 351 721 338 704 c 1,28,29
EndSplineSet
EndChar

StartChar: Aacute
Encoding: 193 193 128
Width: 561
GlyphClass: 2
Flags: W
LayerCount: 2
Fore
SplineSet
396 178 m 1,0,1
 347 181 347 181 273.5 181 c 128,-1,2
 200 181 200 181 149 177 c 1,3,4
 119 53 119 53 105 -10 c 1,5,6
 87 -12 87 -12 69.5 -12 c 128,-1,7
 52 -12 52 -12 14 -2 c 1,8,9
 177 432 177 432 204 639 c 1,10,11
 233 649 233 649 280 649 c 128,-1,12
 327 649 327 649 356 639 c 1,13,14
 383 432 383 432 546 -2 c 1,15,16
 510 -12 510 -12 482.5 -12 c 128,-1,17
 455 -12 455 -12 440 -10 c 1,18,19
 423 65 423 65 396 178 c 1,0,1
166 247 m 1,20,21
 212 246 212 246 263 246 c 128,-1,22
 314 246 314 246 378 248 c 1,23,24
 333 423 333 423 279 578 c 1,25,-1
 273 578 l 1,26,27
 214 430 214 430 166 247 c 1,20,21
397 768 m 0,28,29
 397 756 397 756 396 750 c 1,30,31
 273 713 273 713 214 704 c 1,32,33
 201 721 201 721 199 743 c 1,34,35
 220 754 220 754 249.5 769 c 128,-1,36
 279 784 279 784 294 792 c 0,37,38
 338 816 338 816 367 838 c 1,39,40
 397 805 397 805 397 768 c 0,28,29
EndSplineSet
EndChar

StartChar: Acircumflex
Encoding: 194 194 129
Width: 561
GlyphClass: 2
Flags: W
LayerCount: 2
Fore
SplineSet
396 178 m 1,0,1
 347 181 347 181 273.5 181 c 128,-1,2
 200 181 200 181 149 177 c 1,3,4
 119 53 119 53 105 -10 c 1,5,6
 87 -12 87 -12 69.5 -12 c 128,-1,7
 52 -12 52 -12 14 -2 c 1,8,9
 177 432 177 432 204 639 c 1,10,11
 233 649 233 649 280 649 c 128,-1,12
 327 649 327 649 356 639 c 1,13,14
 383 432 383 432 546 -2 c 1,15,16
 510 -12 510 -12 482.5 -12 c 128,-1,17
 455 -12 455 -12 440 -10 c 1,18,19
 423 65 423 65 396 178 c 1,0,1
166 247 m 1,20,21
 212 246 212 246 263 246 c 128,-1,22
 314 246 314 246 378 248 c 1,23,24
 333 423 333 423 279 578 c 1,25,-1
 273 578 l 1,26,27
 214 430 214 430 166 247 c 1,20,21
409 704 m 1,28,29
 341 725 341 725 282 756 c 1,30,31
 195 716 195 716 147 704 c 1,32,33
 135 722 135 722 132 743 c 1,34,35
 153 757 153 757 171 766 c 128,-1,36
 189 775 189 775 203.5 784 c 128,-1,37
 218 793 218 793 225 798 c 128,-1,38
 232 803 232 803 244 811 c 0,39,40
 258 821 258 821 282 845 c 1,41,42
 326 803 326 803 425 742 c 1,43,44
 422 721 422 721 409 704 c 1,28,29
EndSplineSet
EndChar

StartChar: Atilde
Encoding: 195 195 130
Width: 561
GlyphClass: 2
Flags: W
LayerCount: 2
Fore
SplineSet
396 178 m 1,0,1
 347 181 347 181 273.5 181 c 128,-1,2
 200 181 200 181 149 177 c 1,3,4
 119 53 119 53 105 -10 c 1,5,6
 87 -12 87 -12 69.5 -12 c 128,-1,7
 52 -12 52 -12 14 -2 c 1,8,9
 177 432 177 432 204 639 c 1,10,11
 233 649 233 649 280 649 c 128,-1,12
 327 649 327 649 356 639 c 1,13,14
 383 432 383 432 546 -2 c 1,15,16
 510 -12 510 -12 482.5 -12 c 128,-1,17
 455 -12 455 -12 440 -10 c 1,18,19
 423 65 423 65 396 178 c 1,0,1
166 247 m 1,20,21
 212 246 212 246 263 246 c 128,-1,22
 314 246 314 246 378 248 c 1,23,24
 333 423 333 423 279 578 c 1,25,-1
 273 578 l 1,26,27
 214 430 214 430 166 247 c 1,20,21
379 724 m 128,-1,29
 349 704 349 704 324 704 c 128,-1,30
 299 704 299 704 267.5 720.5 c 128,-1,31
 236 737 236 737 218 737 c 0,32,33
 182 737 182 737 164 705 c 1,34,35
 137 716 137 716 132 737 c 1,36,37
 147 763 147 763 177 783 c 128,-1,38
 207 803 207 803 233.5 803 c 128,-1,39
 260 803 260 803 291.5 786.5 c 128,-1,40
 323 770 323 770 338 770 c 0,41,42
 374 770 374 770 392 802 c 1,43,44
 419 791 419 791 424 770 c 1,45,28
 409 744 409 744 379 724 c 128,-1,29
EndSplineSet
EndChar

StartChar: Adieresis
Encoding: 196 196 131
Width: 561
GlyphClass: 2
Flags: W
LayerCount: 2
Fore
SplineSet
396 178 m 1,0,1
 347 181 347 181 273.5 181 c 128,-1,2
 200 181 200 181 149 177 c 1,3,4
 119 53 119 53 105 -10 c 1,5,6
 87 -12 87 -12 69.5 -12 c 128,-1,7
 52 -12 52 -12 14 -2 c 1,8,9
 177 432 177 432 204 639 c 1,10,11
 233 649 233 649 280 649 c 128,-1,12
 327 649 327 649 356 639 c 1,13,14
 383 432 383 432 546 -2 c 1,15,16
 510 -12 510 -12 482.5 -12 c 128,-1,17
 455 -12 455 -12 440 -10 c 1,18,19
 423 65 423 65 396 178 c 1,0,1
166 247 m 1,20,21
 212 246 212 246 263 246 c 128,-1,22
 314 246 314 246 378 248 c 1,23,24
 333 423 333 423 279 578 c 1,25,-1
 273 578 l 1,26,27
 214 430 214 430 166 247 c 1,20,21
407 759 m 0,28,29
 407 704 407 704 349 704 c 0,30,31
 304 704 304 704 304 750 c 0,32,33
 304 806 304 806 362 806 c 0,34,35
 407 806 407 806 407 759 c 0,28,29
257 759 m 0,36,37
 257 704 257 704 199 704 c 0,38,39
 154 704 154 704 154 750 c 0,40,41
 154 806 154 806 212 806 c 0,42,43
 257 806 257 806 257 759 c 0,36,37
EndSplineSet
EndChar

StartChar: Aring
Encoding: 197 197 132
Width: 561
GlyphClass: 2
Flags: W
LayerCount: 2
Fore
SplineSet
396 178 m 1,0,1
 347 181 347 181 273.5 181 c 128,-1,2
 200 181 200 181 149 177 c 1,3,4
 119 53 119 53 105 -10 c 1,5,6
 87 -12 87 -12 69.5 -12 c 128,-1,7
 52 -12 52 -12 14 -2 c 1,8,9
 177 432 177 432 204 639 c 1,10,11
 233 649 233 649 280 649 c 128,-1,12
 327 649 327 649 356 639 c 1,13,14
 383 432 383 432 546 -2 c 1,15,16
 510 -12 510 -12 482.5 -12 c 128,-1,17
 455 -12 455 -12 440 -10 c 1,18,19
 423 65 423 65 396 178 c 1,0,1
166 247 m 1,20,21
 212 246 212 246 263 246 c 128,-1,22
 314 246 314 246 378 248 c 1,23,24
 333 423 333 423 279 578 c 1,25,-1
 273 578 l 1,26,27
 214 430 214 430 166 247 c 1,20,21
367 783 m 0,28,29
 367 704 367 704 273 704 c 0,30,31
 230 704 230 704 211.5 723 c 128,-1,32
 193 742 193 742 193 781 c 0,33,34
 193 860 193 860 287 860 c 0,35,36
 331 860 331 860 349 842 c 128,-1,37
 367 824 367 824 367 783 c 0,28,29
285 823 m 0,38,39
 232 823 232 823 232 783 c 0,40,41
 232 760 232 760 242 750.5 c 128,-1,42
 252 741 252 741 275 741 c 0,43,44
 328 741 328 741 328 784 c 0,45,46
 328 805 328 805 318 814 c 128,-1,47
 308 823 308 823 285 823 c 0,38,39
EndSplineSet
EndChar

StartChar: AE
Encoding: 198 198 133
Width: 750
GlyphClass: 2
Flags: W
LayerCount: 2
Fore
SplineSet
482 76 m 1,0,1
 517 73 517 73 590.5 73 c 128,-1,2
 664 73 664 73 717 82 c 1,3,4
 725 56 725 56 725 31.5 c 128,-1,5
 725 7 725 7 721 -11 c 1,6,7
 702 -6 702 -6 641 -1.5 c 128,-1,8
 580 3 580 3 520 3 c 128,-1,9
 460 3 460 3 394 -4 c 1,10,11
 394 77 394 77 386 179 c 1,12,13
 304 181 304 181 261.5 181 c 128,-1,14
 219 181 219 181 174 177 c 1,15,16
 149 110 149 110 112 -6 c 1,17,18
 98 -8 98 -8 75 -8 c 128,-1,19
 52 -8 52 -8 18 2 c 1,20,21
 226 450 226 450 267 646 c 1,22,23
 323 639 323 639 462 639 c 2,24,-1
 523 639 l 2,25,26
 557 639 557 639 617.5 643.5 c 128,-1,27
 678 648 678 648 696 653 c 1,28,29
 700 635 700 635 700 613 c 128,-1,30
 700 591 700 591 692 565 c 1,31,32
 639 574 639 574 548.5 574 c 128,-1,33
 458 574 458 574 429 571 c 1,34,35
 430 508 430 508 444 365 c 1,36,37
 464 364 464 364 543 364 c 128,-1,38
 622 364 622 364 671 375 c 1,39,40
 676 343 676 343 676 322.5 c 128,-1,41
 676 302 676 302 675 289 c 1,42,43
 628 297 628 297 559 297 c 128,-1,44
 490 297 490 297 452 295 c 1,45,46
 467 149 467 149 482 76 c 1,0,1
381 248 m 1,47,-1
 375 310 l 1,48,49
 354 483 354 483 336 578 c 1,50,-1
 329 578 l 1,51,52
 263 419 263 419 199 247 c 1,53,54
 242 246 242 246 299 246 c 128,-1,55
 356 246 356 246 381 248 c 1,47,-1
EndSplineSet
EndChar

StartChar: Ccedilla
Encoding: 199 199 134
Width: 533
GlyphClass: 2
Flags: W
LayerCount: 2
Fore
SplineSet
300 -15 m 1,0,-1
 290 -14 l 1,1,-1
 292 -54 l 1,2,3
 393 -58 393 -58 393 -124 c 0,4,5
 393 -210 393 -210 282 -210 c 0,6,7
 237 -210 237 -210 208 -198 c 1,8,9
 207 -195 207 -195 207 -179.5 c 128,-1,10
 207 -164 207 -164 220 -144 c 1,11,12
 242 -164 242 -164 283.5 -164 c 128,-1,13
 325 -164 325 -164 325 -125 c 0,14,15
 325 -95 325 -95 280 -95 c 0,16,17
 260 -95 260 -95 232 -99 c 1,18,-1
 247 -11 l 1,19,20
 111 8 111 8 72 143 c 0,21,22
 52 215 52 215 52 327 c 0,23,24
 52 655 52 655 300 655 c 0,25,26
 400 655 400 655 449 605.5 c 128,-1,27
 498 556 498 556 498 478 c 0,28,29
 498 465 498 465 495 453 c 1,30,31
 478 444 478 444 453.5 444 c 128,-1,32
 429 444 429 444 405 446 c 1,33,34
 406 454 406 454 406 467 c 0,35,36
 406 526 406 526 378 561 c 128,-1,37
 350 596 350 596 300 596 c 0,38,39
 134 596 134 596 134 327.5 c 128,-1,40
 134 59 134 59 300 59 c 0,41,42
 339 59 339 59 381 78 c 128,-1,43
 423 97 423 97 452 130 c 1,44,45
 483 105 483 105 492 51 c 1,46,47
 403 -15 403 -15 300 -15 c 1,0,-1
EndSplineSet
EndChar

StartChar: Egrave
Encoding: 200 200 135
Width: 488
GlyphClass: 2
Flags: W
LayerCount: 2
Fore
SplineSet
338 704 m 1,0,1
 275 717 275 717 158 759 c 1,2,3
 158 792 158 792 164.5 807.5 c 128,-1,4
 171 823 171 823 191 845 c 1,5,6
 229 813 229 813 256.5 797.5 c 128,-1,7
 284 782 284 782 290.5 778 c 128,-1,8
 297 774 297 774 322 760 c 128,-1,9
 347 746 347 746 354 742 c 1,10,11
 351 721 351 721 338 704 c 1,0,1
176 76 m 1,12,13
 211 73 211 73 297 73 c 128,-1,14
 383 73 383 73 436 82 c 1,15,16
 444 56 444 56 444 31.5 c 128,-1,17
 444 7 444 7 440 -11 c 1,18,19
 421 -6 421 -6 359.5 -1.5 c 128,-1,20
 298 3 298 3 222 3 c 128,-1,21
 146 3 146 3 80 -4 c 1,22,23
 94 134 94 134 94 331 c 128,-1,24
 94 528 94 528 75 646 c 1,25,26
 142 639 142 639 219 639 c 128,-1,27
 296 639 296 639 356.5 643.5 c 128,-1,28
 417 648 417 648 435 653 c 1,29,30
 439 635 439 635 439 613 c 128,-1,31
 439 591 439 591 431 565 c 1,32,33
 378 574 378 574 294 574 c 128,-1,34
 210 574 210 574 175 571 c 1,35,36
 169 514 169 514 169 365 c 1,37,38
 190 364 190 364 270 364 c 128,-1,39
 350 364 350 364 400 375 c 1,40,41
 405 343 405 343 405 322.5 c 128,-1,42
 405 302 405 302 404 289 c 1,43,44
 357 297 357 297 285 297 c 128,-1,45
 213 297 213 297 169 295 c 1,46,47
 169 164 169 164 176 76 c 1,12,13
EndSplineSet
EndChar

StartChar: Eacute
Encoding: 201 201 136
Width: 488
GlyphClass: 2
Flags: W
LayerCount: 2
Fore
SplineSet
176 76 m 1,0,1
 211 73 211 73 297 73 c 128,-1,2
 383 73 383 73 436 82 c 1,3,4
 444 56 444 56 444 31.5 c 128,-1,5
 444 7 444 7 440 -11 c 1,6,7
 421 -6 421 -6 359.5 -1.5 c 128,-1,8
 298 3 298 3 222 3 c 128,-1,9
 146 3 146 3 80 -4 c 1,10,11
 94 134 94 134 94 331 c 128,-1,12
 94 528 94 528 75 646 c 1,13,14
 142 639 142 639 219 639 c 128,-1,15
 296 639 296 639 356.5 643.5 c 128,-1,16
 417 648 417 648 435 653 c 1,17,18
 439 635 439 635 439 613 c 128,-1,19
 439 591 439 591 431 565 c 1,20,21
 378 574 378 574 294 574 c 128,-1,22
 210 574 210 574 175 571 c 1,23,24
 169 514 169 514 169 365 c 1,25,26
 190 364 190 364 270 364 c 128,-1,27
 350 364 350 364 400 375 c 1,28,29
 405 343 405 343 405 322.5 c 128,-1,30
 405 302 405 302 404 289 c 1,31,32
 357 297 357 297 274.5 297 c 128,-1,33
 192 297 192 297 169 295 c 1,34,35
 169 164 169 164 176 76 c 1,0,1
387 768 m 0,36,37
 387 756 387 756 386 750 c 1,38,39
 263 713 263 713 204 704 c 1,40,41
 191 721 191 721 189 743 c 1,42,43
 210 754 210 754 239.5 769 c 128,-1,44
 269 784 269 784 284 792 c 0,45,46
 328 816 328 816 357 838 c 1,47,48
 387 805 387 805 387 768 c 0,36,37
EndSplineSet
EndChar

StartChar: Ecircumflex
Encoding: 202 202 137
Width: 488
GlyphClass: 2
Flags: W
LayerCount: 2
Fore
SplineSet
176 76 m 1,0,1
 211 73 211 73 297 73 c 128,-1,2
 383 73 383 73 436 82 c 1,3,4
 444 56 444 56 444 31.5 c 128,-1,5
 444 7 444 7 440 -11 c 1,6,7
 421 -6 421 -6 359.5 -1.5 c 128,-1,8
 298 3 298 3 222 3 c 128,-1,9
 146 3 146 3 80 -4 c 1,10,11
 94 134 94 134 94 331 c 128,-1,12
 94 528 94 528 75 646 c 1,13,14
 142 639 142 639 219 639 c 128,-1,15
 296 639 296 639 356.5 643.5 c 128,-1,16
 417 648 417 648 435 653 c 1,17,18
 439 635 439 635 439 613 c 128,-1,19
 439 591 439 591 431 565 c 1,20,21
 378 574 378 574 294 574 c 128,-1,22
 210 574 210 574 175 571 c 1,23,24
 169 514 169 514 169 365 c 1,25,26
 190 364 190 364 270 364 c 128,-1,27
 350 364 350 364 400 375 c 1,28,29
 405 343 405 343 405 322.5 c 128,-1,30
 405 302 405 302 404 289 c 1,31,32
 357 297 357 297 285 297 c 128,-1,33
 213 297 213 297 169 295 c 1,34,35
 169 164 169 164 176 76 c 1,0,1
393 704 m 1,36,37
 325 725 325 725 266 756 c 1,38,39
 179 716 179 716 131 704 c 1,40,41
 119 722 119 722 116 743 c 1,42,43
 137 757 137 757 155 766 c 128,-1,44
 173 775 173 775 187.5 784 c 128,-1,45
 202 793 202 793 209 798 c 128,-1,46
 216 803 216 803 228 811 c 0,47,48
 242 821 242 821 266 845 c 1,49,50
 310 803 310 803 409 742 c 1,51,52
 406 721 406 721 393 704 c 1,36,37
EndSplineSet
EndChar

StartChar: Edieresis
Encoding: 203 203 138
Width: 488
GlyphClass: 2
Flags: W
LayerCount: 2
Fore
SplineSet
387 759 m 0,0,1
 387 704 387 704 329 704 c 0,2,3
 284 704 284 704 284 750 c 0,4,5
 284 806 284 806 342 806 c 0,6,7
 387 806 387 806 387 759 c 0,0,1
237 759 m 0,8,9
 237 704 237 704 179 704 c 0,10,11
 134 704 134 704 134 750 c 0,12,13
 134 806 134 806 192 806 c 0,14,15
 237 806 237 806 237 759 c 0,8,9
176 76 m 1,16,17
 211 73 211 73 297 73 c 128,-1,18
 383 73 383 73 436 82 c 1,19,20
 444 56 444 56 444 31.5 c 128,-1,21
 444 7 444 7 440 -11 c 1,22,23
 421 -6 421 -6 359.5 -1.5 c 128,-1,24
 298 3 298 3 222 3 c 128,-1,25
 146 3 146 3 80 -4 c 1,26,27
 94 134 94 134 94 331 c 128,-1,28
 94 528 94 528 75 646 c 1,29,30
 142 639 142 639 219 639 c 128,-1,31
 296 639 296 639 356.5 643.5 c 128,-1,32
 417 648 417 648 435 653 c 1,33,34
 439 635 439 635 439 613 c 128,-1,35
 439 591 439 591 431 565 c 1,36,37
 378 574 378 574 294 574 c 128,-1,38
 210 574 210 574 175 571 c 1,39,40
 169 514 169 514 169 365 c 1,41,42
 190 364 190 364 270 364 c 128,-1,43
 350 364 350 364 400 375 c 1,44,45
 405 343 405 343 405 322.5 c 128,-1,46
 405 302 405 302 404 289 c 1,47,48
 357 297 357 297 285 297 c 128,-1,49
 213 297 213 297 169 295 c 1,50,51
 169 164 169 164 176 76 c 1,16,17
EndSplineSet
EndChar

StartChar: Igrave
Encoding: 204 204 139
Width: 289
GlyphClass: 2
Flags: W
LayerCount: 2
Fore
SplineSet
96 -6 m 1,0,1
 110 111 110 111 110 327 c 128,-1,2
 110 543 110 543 93 639 c 1,3,4
 119 649 119 649 145 649 c 128,-1,5
 171 649 171 649 199 647 c 1,6,7
 185 536 185 536 185 296 c 128,-1,8
 185 56 185 56 202 2 c 1,9,10
 169 -8 169 -8 141 -8 c 128,-1,11
 113 -8 113 -8 96 -6 c 1,0,1
227 704 m 1,12,13
 164 717 164 717 47 759 c 1,14,15
 47 792 47 792 53.5 807.5 c 128,-1,16
 60 823 60 823 80 845 c 1,17,18
 118 813 118 813 145.5 797.5 c 128,-1,19
 173 782 173 782 179.5 778 c 128,-1,20
 186 774 186 774 211 760 c 128,-1,21
 236 746 236 746 243 742 c 1,22,23
 240 721 240 721 227 704 c 1,12,13
EndSplineSet
EndChar

StartChar: Iacute
Encoding: 205 205 140
Width: 289
GlyphClass: 2
Flags: W
LayerCount: 2
Fore
SplineSet
96 -6 m 1,0,1
 110 111 110 111 110 327 c 128,-1,2
 110 543 110 543 93 639 c 1,3,4
 119 649 119 649 145 649 c 128,-1,5
 171 649 171 649 199 647 c 1,6,7
 185 536 185 536 185 296 c 128,-1,8
 185 56 185 56 202 2 c 1,9,10
 169 -8 169 -8 141 -8 c 128,-1,11
 113 -8 113 -8 96 -6 c 1,0,1
271 768 m 0,12,13
 271 756 271 756 270 750 c 1,14,15
 147 713 147 713 88 704 c 1,16,17
 75 721 75 721 73 743 c 1,18,19
 94 754 94 754 123.5 769 c 128,-1,20
 153 784 153 784 168 792 c 0,21,22
 212 816 212 816 241 838 c 1,23,24
 271 805 271 805 271 768 c 0,12,13
EndSplineSet
EndChar

StartChar: Icircumflex
Encoding: 206 206 141
Width: 289
GlyphClass: 2
Flags: W
LayerCount: 2
Fore
SplineSet
96 -6 m 1,0,1
 110 111 110 111 110 327 c 128,-1,2
 110 543 110 543 93 639 c 1,3,4
 119 649 119 649 145 649 c 128,-1,5
 171 649 171 649 199 647 c 1,6,7
 185 536 185 536 185 296 c 128,-1,8
 185 56 185 56 202 2 c 1,9,10
 169 -8 169 -8 141 -8 c 128,-1,11
 113 -8 113 -8 96 -6 c 1,0,1
275 704 m 1,12,13
 207 725 207 725 148 756 c 1,14,15
 61 716 61 716 13 704 c 1,16,17
 1 722 1 722 -2 743 c 1,18,19
 19 757 19 757 37 766 c 128,-1,20
 55 775 55 775 69.5 784 c 128,-1,21
 84 793 84 793 91 798 c 128,-1,22
 98 803 98 803 110 811 c 0,23,24
 124 821 124 821 148 845 c 1,25,26
 192 803 192 803 291 742 c 1,27,28
 288 721 288 721 275 704 c 1,12,13
EndSplineSet
EndChar

StartChar: Idieresis
Encoding: 207 207 142
Width: 289
GlyphClass: 2
Flags: W
LayerCount: 2
Fore
SplineSet
96 -6 m 1,0,1
 110 111 110 111 110 327 c 128,-1,2
 110 543 110 543 93 639 c 1,3,4
 119 649 119 649 145 649 c 128,-1,5
 171 649 171 649 199 647 c 1,6,7
 185 536 185 536 185 296 c 128,-1,8
 185 56 185 56 202 2 c 1,9,10
 169 -8 169 -8 141 -8 c 128,-1,11
 113 -8 113 -8 96 -6 c 1,0,1
121 759 m 0,12,13
 121 704 121 704 63 704 c 0,14,15
 18 704 18 704 18 750 c 0,16,17
 18 806 18 806 76 806 c 0,18,19
 121 806 121 806 121 759 c 0,12,13
271 759 m 0,20,21
 271 704 271 704 213 704 c 0,22,23
 168 704 168 704 168 750 c 0,24,25
 168 806 168 806 226 806 c 0,26,27
 271 806 271 806 271 759 c 0,20,21
EndSplineSet
EndChar

StartChar: Eth
Encoding: 208 208 143
Width: 592
GlyphClass: 2
Flags: W
LayerCount: 2
Fore
SplineSet
274 655 m 0,0,1
 348 655 348 655 401 627.5 c 128,-1,2
 454 600 454 600 482 552 c 0,3,4
 537 459 537 459 537 325 c 0,5,6
 537 139 537 139 462 56 c 0,7,8
 434 25 434 25 386 5 c 128,-1,9
 338 -15 338 -15 274 -15 c 0,10,11
 153 -15 153 -15 78 13 c 1,12,13
 90 118 90 118 92 291 c 1,14,15
 58 288 58 288 24 283 c 1,16,17
 21 296 21 296 21 322.5 c 128,-1,18
 21 349 21 349 28 371 c 1,19,20
 60 367 60 367 92 365 c 1,21,22
 90 535 90 535 75 627 c 1,23,24
 161 655 161 655 274 655 c 0,0,1
274 56 m 0,25,26
 451 56 451 56 451 325 c 0,27,28
 451 402 451 402 435 460 c 128,-1,29
 419 518 419 518 378 557 c 128,-1,30
 337 596 337 596 279.5 596 c 128,-1,31
 222 596 222 596 174 577 c 1,32,33
 167 494 167 494 167 363 c 1,34,35
 242 363 242 363 317 376 c 1,36,37
 320 362 320 362 320 336 c 128,-1,38
 320 310 320 310 313 288 c 1,39,40
 251 295 251 295 184 295 c 2,41,-1
 167 295 l 1,42,43
 167 170 167 170 175 77 c 1,44,45
 222 56 222 56 274 56 c 0,25,26
EndSplineSet
EndChar

StartChar: Ntilde
Encoding: 209 209 144
Width: 619
GlyphClass: 2
Flags: W
LayerCount: 2
Fore
SplineSet
78 -6 m 1,0,1
 92 111 92 111 92 327 c 128,-1,2
 92 543 92 543 75 639 c 1,3,4
 101 649 101 649 119.5 649 c 128,-1,5
 138 649 138 649 166 647 c 1,6,7
 185 575 185 575 275.5 428.5 c 128,-1,8
 366 282 366 282 464 145 c 1,9,10
 467 229 467 229 467 307 c 0,11,12
 467 543 467 543 450 639 c 1,13,14
 476 649 476 649 494.5 649 c 128,-1,15
 513 649 513 649 541 647 c 1,16,17
 527 536 527 536 527 296 c 128,-1,18
 527 56 527 56 544 2 c 1,19,20
 514 -8 514 -8 500.5 -8 c 128,-1,21
 487 -8 487 -8 453 -6 c 1,22,23
 446 25 446 25 394 106.5 c 128,-1,24
 342 188 342 188 264.5 301 c 128,-1,25
 187 414 187 414 153 470 c 1,26,27
 152 427 152 427 152 338 c 0,28,29
 152 56 152 56 169 2 c 1,30,31
 139 -8 139 -8 125.5 -8 c 128,-1,32
 112 -8 112 -8 78 -6 c 1,0,1
405 724 m 128,-1,34
 375 704 375 704 350 704 c 128,-1,35
 325 704 325 704 293.5 720.5 c 128,-1,36
 262 737 262 737 244 737 c 0,37,38
 208 737 208 737 190 705 c 1,39,40
 163 716 163 716 158 737 c 1,41,42
 173 763 173 763 203 783 c 128,-1,43
 233 803 233 803 259.5 803 c 128,-1,44
 286 803 286 803 317.5 786.5 c 128,-1,45
 349 770 349 770 364 770 c 0,46,47
 400 770 400 770 418 802 c 1,48,49
 445 791 445 791 450 770 c 1,50,33
 435 744 435 744 405 724 c 128,-1,34
EndSplineSet
EndChar

StartChar: Ograve
Encoding: 210 210 145
Width: 601
GlyphClass: 2
Flags: W
LayerCount: 2
Fore
SplineSet
55 327 m 0,0,1
 55 655 55 655 300.5 655 c 128,-1,2
 546 655 546 655 546 327 c 0,3,4
 546 267 546 267 541.5 222 c 128,-1,5
 537 177 537 177 521.5 130 c 128,-1,6
 506 83 506 83 480 53 c 128,-1,7
 454 23 454 23 408.5 4 c 128,-1,8
 363 -15 363 -15 300.5 -15 c 128,-1,9
 238 -15 238 -15 192.5 4 c 128,-1,10
 147 23 147 23 121 53 c 128,-1,11
 95 83 95 83 79.5 130 c 128,-1,12
 64 177 64 177 59.5 222 c 128,-1,13
 55 267 55 267 55 327 c 0,0,1
216 81 m 0,14,15
 250 59 250 59 300.5 59 c 128,-1,16
 351 59 351 59 385.5 81 c 128,-1,17
 420 103 420 103 437 144 c 0,18,19
 467 215 467 215 467 326 c 0,20,21
 467 596 467 596 300.5 596 c 128,-1,22
 134 596 134 596 134 326 c 0,23,24
 134 133 134 133 216 81 c 0,14,15
382 704 m 1,25,26
 319 717 319 717 202 759 c 1,27,28
 202 792 202 792 208.5 807.5 c 128,-1,29
 215 823 215 823 235 845 c 1,30,31
 273 813 273 813 300.5 797.5 c 128,-1,32
 328 782 328 782 334.5 778 c 128,-1,33
 341 774 341 774 366 760 c 128,-1,34
 391 746 391 746 398 742 c 1,35,36
 395 721 395 721 382 704 c 1,25,26
EndSplineSet
EndChar

StartChar: Oacute
Encoding: 211 211 146
Width: 601
GlyphClass: 2
Flags: W
LayerCount: 2
Fore
SplineSet
55 327 m 0,0,1
 55 655 55 655 300.5 655 c 128,-1,2
 546 655 546 655 546 327 c 0,3,4
 546 267 546 267 541.5 222 c 128,-1,5
 537 177 537 177 521.5 130 c 128,-1,6
 506 83 506 83 480 53 c 128,-1,7
 454 23 454 23 408.5 4 c 128,-1,8
 363 -15 363 -15 300.5 -15 c 128,-1,9
 238 -15 238 -15 192.5 4 c 128,-1,10
 147 23 147 23 121 53 c 128,-1,11
 95 83 95 83 79.5 130 c 128,-1,12
 64 177 64 177 59.5 222 c 128,-1,13
 55 267 55 267 55 327 c 0,0,1
216 81 m 0,14,15
 250 59 250 59 300.5 59 c 128,-1,16
 351 59 351 59 385.5 81 c 128,-1,17
 420 103 420 103 437 144 c 0,18,19
 467 215 467 215 467 326 c 0,20,21
 467 596 467 596 300.5 596 c 128,-1,22
 134 596 134 596 134 326 c 0,23,24
 134 133 134 133 216 81 c 0,14,15
427 768 m 0,25,26
 427 756 427 756 426 750 c 1,27,28
 303 713 303 713 244 704 c 1,29,30
 231 721 231 721 229 743 c 1,31,32
 250 754 250 754 279.5 769 c 128,-1,33
 309 784 309 784 324 792 c 0,34,35
 368 816 368 816 397 838 c 1,36,37
 427 805 427 805 427 768 c 0,25,26
EndSplineSet
EndChar

StartChar: Ocircumflex
Encoding: 212 212 147
Width: 601
GlyphClass: 2
Flags: W
LayerCount: 2
Fore
SplineSet
55 327 m 0,0,1
 55 655 55 655 300.5 655 c 128,-1,2
 546 655 546 655 546 327 c 0,3,4
 546 267 546 267 541.5 222 c 128,-1,5
 537 177 537 177 521.5 130 c 128,-1,6
 506 83 506 83 480 53 c 128,-1,7
 454 23 454 23 408.5 4 c 128,-1,8
 363 -15 363 -15 300.5 -15 c 128,-1,9
 238 -15 238 -15 192.5 4 c 128,-1,10
 147 23 147 23 121 53 c 128,-1,11
 95 83 95 83 79.5 130 c 128,-1,12
 64 177 64 177 59.5 222 c 128,-1,13
 55 267 55 267 55 327 c 0,0,1
216 81 m 0,14,15
 250 59 250 59 300.5 59 c 128,-1,16
 351 59 351 59 385.5 81 c 128,-1,17
 420 103 420 103 437 144 c 0,18,19
 467 215 467 215 467 326 c 0,20,21
 467 596 467 596 300.5 596 c 128,-1,22
 134 596 134 596 134 326 c 0,23,24
 134 133 134 133 216 81 c 0,14,15
427 704 m 1,25,26
 359 725 359 725 300 756 c 1,27,28
 213 716 213 716 165 704 c 1,29,30
 153 722 153 722 150 743 c 1,31,32
 171 757 171 757 189 766 c 128,-1,33
 207 775 207 775 221.5 784 c 128,-1,34
 236 793 236 793 243 798 c 128,-1,35
 250 803 250 803 262 811 c 0,36,37
 276 821 276 821 300 845 c 1,38,39
 344 803 344 803 443 742 c 1,40,41
 440 721 440 721 427 704 c 1,25,26
EndSplineSet
EndChar

StartChar: Otilde
Encoding: 213 213 148
Width: 601
GlyphClass: 2
Flags: W
LayerCount: 2
Fore
SplineSet
55 327 m 0,0,1
 55 655 55 655 300.5 655 c 128,-1,2
 546 655 546 655 546 327 c 0,3,4
 546 267 546 267 541.5 222 c 128,-1,5
 537 177 537 177 521.5 130 c 128,-1,6
 506 83 506 83 480 53 c 128,-1,7
 454 23 454 23 408.5 4 c 128,-1,8
 363 -15 363 -15 300.5 -15 c 128,-1,9
 238 -15 238 -15 192.5 4 c 128,-1,10
 147 23 147 23 121 53 c 128,-1,11
 95 83 95 83 79.5 130 c 128,-1,12
 64 177 64 177 59.5 222 c 128,-1,13
 55 267 55 267 55 327 c 0,0,1
216 81 m 0,14,15
 250 59 250 59 300.5 59 c 128,-1,16
 351 59 351 59 385.5 81 c 128,-1,17
 420 103 420 103 437 144 c 0,18,19
 467 215 467 215 467 326 c 0,20,21
 467 596 467 596 300.5 596 c 128,-1,22
 134 596 134 596 134 326 c 0,23,24
 134 133 134 133 216 81 c 0,14,15
401 724 m 128,-1,26
 371 704 371 704 346 704 c 128,-1,27
 321 704 321 704 289.5 720.5 c 128,-1,28
 258 737 258 737 240 737 c 0,29,30
 204 737 204 737 186 705 c 1,31,32
 159 716 159 716 154 737 c 1,33,34
 169 763 169 763 199 783 c 128,-1,35
 229 803 229 803 255.5 803 c 128,-1,36
 282 803 282 803 313.5 786.5 c 128,-1,37
 345 770 345 770 360 770 c 0,38,39
 396 770 396 770 414 802 c 1,40,41
 441 791 441 791 446 770 c 1,42,25
 431 744 431 744 401 724 c 128,-1,26
EndSplineSet
EndChar

StartChar: Odieresis
Encoding: 214 214 149
Width: 601
GlyphClass: 2
Flags: W
LayerCount: 2
Fore
SplineSet
55 327 m 0,0,1
 55 655 55 655 300.5 655 c 128,-1,2
 546 655 546 655 546 327 c 0,3,4
 546 267 546 267 541.5 222 c 128,-1,5
 537 177 537 177 521.5 130 c 128,-1,6
 506 83 506 83 480 53 c 128,-1,7
 454 23 454 23 408.5 4 c 128,-1,8
 363 -15 363 -15 300.5 -15 c 128,-1,9
 238 -15 238 -15 192.5 4 c 128,-1,10
 147 23 147 23 121 53 c 128,-1,11
 95 83 95 83 79.5 130 c 128,-1,12
 64 177 64 177 59.5 222 c 128,-1,13
 55 267 55 267 55 327 c 0,0,1
216 81 m 0,14,15
 250 59 250 59 300.5 59 c 128,-1,16
 351 59 351 59 385.5 81 c 128,-1,17
 420 103 420 103 437 144 c 0,18,19
 467 215 467 215 467 326 c 0,20,21
 467 596 467 596 300.5 596 c 128,-1,22
 134 596 134 596 134 326 c 0,23,24
 134 133 134 133 216 81 c 0,14,15
279 759 m 0,25,26
 279 704 279 704 221 704 c 0,27,28
 176 704 176 704 176 750 c 0,29,30
 176 806 176 806 234 806 c 0,31,32
 279 806 279 806 279 759 c 0,25,26
429 759 m 0,33,34
 429 704 429 704 371 704 c 0,35,36
 326 704 326 704 326 750 c 0,37,38
 326 806 326 806 384 806 c 0,39,40
 429 806 429 806 429 759 c 0,33,34
EndSplineSet
EndChar

StartChar: multiply
Encoding: 215 215 150
Width: 601
GlyphClass: 2
Flags: W
LayerCount: 2
Fore
SplineSet
104 465 m 1,0,1
 124 503 124 503 163 530 c 1,2,3
 172 515 172 515 222 458.5 c 128,-1,4
 272 402 272 402 300 373 c 1,5,6
 325 398 325 398 376.5 456.5 c 128,-1,7
 428 515 428 515 438 530 c 1,8,9
 477 503 477 503 497 465 c 1,10,11
 435 414 435 414 346 327 c 1,12,13
 447 228 447 228 497 190 c 1,14,15
 484 166 484 166 469.5 152 c 128,-1,16
 455 138 455 138 438 125 c 1,17,18
 428 140 428 140 376.5 198 c 128,-1,19
 325 256 325 256 300 281 c 1,20,21
 271 251 271 251 221.5 195.5 c 128,-1,22
 172 140 172 140 163 125 c 1,23,24
 124 153 124 153 104 190 c 1,25,26
 150 225 150 225 254 327 c 1,27,28
 177 404 177 404 104 465 c 1,0,1
EndSplineSet
EndChar

StartChar: Oslash
Encoding: 216 216 151
Width: 601
GlyphClass: 2
Flags: W
LayerCount: 2
Fore
SplineSet
195 -84 m 0,0,1
 163 -84 163 -84 141 -63 c 1,2,-1
 168 15 l 1,3,4
 101 53 101 53 78 131.5 c 128,-1,5
 55 210 55 210 55 327 c 0,6,7
 55 655 55 655 300 655 c 0,8,9
 337 655 337 655 364 648 c 1,10,-1
 384 722 l 1,11,12
 400 724 400 724 409 724 c 0,13,14
 434 724 434 724 460 704 c 1,15,-1
 430 623 l 1,16,17
 546 552 546 552 546 327 c 0,18,19
 546 267 546 267 541.5 222 c 128,-1,20
 537 177 537 177 521.5 130 c 128,-1,21
 506 83 506 83 480 53 c 128,-1,22
 454 23 454 23 408.5 4 c 128,-1,23
 363 -15 363 -15 313.5 -15 c 128,-1,24
 264 -15 264 -15 234 -9 c 1,25,-1
 215 -81 l 1,26,27
 204 -84 204 -84 195 -84 c 0,0,1
134 326 m 0,28,29
 134 157 134 157 197 96 c 1,30,31
 275 327 275 327 348 589 c 1,32,33
 322 596 322 596 300 596 c 0,34,35
 134 596 134 596 134 326 c 0,28,29
300 59 m 0,36,37
 402 59 402 59 437 144 c 0,38,39
 467 215 467 215 467 326 c 0,40,41
 467 487 467 487 405 553 c 1,42,43
 326 322 326 322 255 64 c 1,44,45
 277 59 277 59 300 59 c 0,36,37
EndSplineSet
EndChar

StartChar: Ugrave
Encoding: 217 217 152
Width: 604
GlyphClass: 2
Flags: W
LayerCount: 2
Fore
SplineSet
525 277 m 0,0,1
 525 217 525 217 521 176.5 c 128,-1,2
 517 136 517 136 503.5 97 c 128,-1,3
 490 58 490 58 466 35 c 0,4,5
 414 -15 414 -15 304 -15 c 0,6,7
 163 -15 163 -15 120 64 c 0,8,9
 97 106 97 106 89.5 154 c 128,-1,10
 82 202 82 202 82 277 c 0,11,12
 82 543 82 543 65 639 c 1,13,14
 91 649 91 649 117 649 c 128,-1,15
 143 649 143 649 171 647 c 1,16,17
 157 536 157 536 157 276 c 0,18,19
 157 164 157 164 188 111.5 c 128,-1,20
 219 59 219 59 311 59 c 128,-1,21
 403 59 403 59 432.5 111.5 c 128,-1,22
 462 164 462 164 462 276 c 0,23,24
 462 543 462 543 445 639 c 1,25,26
 471 649 471 649 491 649 c 128,-1,27
 511 649 511 649 539 647 c 1,28,29
 525 536 525 536 525 277 c 0,0,1
354 704 m 1,30,31
 291 717 291 717 174 759 c 1,32,33
 174 792 174 792 180.5 807.5 c 128,-1,34
 187 823 187 823 207 845 c 1,35,36
 245 813 245 813 272.5 797.5 c 128,-1,37
 300 782 300 782 306.5 778 c 128,-1,38
 313 774 313 774 338 760 c 128,-1,39
 363 746 363 746 370 742 c 1,40,41
 367 721 367 721 354 704 c 1,30,31
EndSplineSet
EndChar

StartChar: Uacute
Encoding: 218 218 153
Width: 604
GlyphClass: 2
Flags: W
LayerCount: 2
Fore
SplineSet
525 277 m 0,0,1
 525 217 525 217 521 176.5 c 128,-1,2
 517 136 517 136 503.5 97 c 128,-1,3
 490 58 490 58 466 35 c 0,4,5
 414 -15 414 -15 304 -15 c 0,6,7
 163 -15 163 -15 120 64 c 0,8,9
 97 106 97 106 89.5 154 c 128,-1,10
 82 202 82 202 82 277 c 0,11,12
 82 543 82 543 65 639 c 1,13,14
 91 649 91 649 117 649 c 128,-1,15
 143 649 143 649 171 647 c 1,16,17
 157 536 157 536 157 276 c 0,18,19
 157 164 157 164 188 111.5 c 128,-1,20
 219 59 219 59 311 59 c 128,-1,21
 403 59 403 59 432.5 111.5 c 128,-1,22
 462 164 462 164 462 276 c 0,23,24
 462 543 462 543 445 639 c 1,25,26
 471 649 471 649 491 649 c 128,-1,27
 511 649 511 649 539 647 c 1,28,29
 525 536 525 536 525 277 c 0,0,1
422 768 m 0,30,31
 422 756 422 756 421 750 c 1,32,33
 298 713 298 713 239 704 c 1,34,35
 226 721 226 721 224 743 c 1,36,37
 245 754 245 754 274.5 769 c 128,-1,38
 304 784 304 784 319 792 c 0,39,40
 363 816 363 816 392 838 c 1,41,42
 422 805 422 805 422 768 c 0,30,31
EndSplineSet
EndChar

StartChar: Ucircumflex
Encoding: 219 219 154
Width: 604
GlyphClass: 2
Flags: W
LayerCount: 2
Fore
SplineSet
525 277 m 0,0,1
 525 217 525 217 521 176.5 c 128,-1,2
 517 136 517 136 503.5 97 c 128,-1,3
 490 58 490 58 466 35 c 0,4,5
 414 -15 414 -15 304 -15 c 0,6,7
 163 -15 163 -15 120 64 c 0,8,9
 97 106 97 106 89.5 154 c 128,-1,10
 82 202 82 202 82 277 c 0,11,12
 82 543 82 543 65 639 c 1,13,14
 91 649 91 649 117 649 c 128,-1,15
 143 649 143 649 171 647 c 1,16,17
 157 536 157 536 157 276 c 0,18,19
 157 164 157 164 188 111.5 c 128,-1,20
 219 59 219 59 311 59 c 128,-1,21
 403 59 403 59 432.5 111.5 c 128,-1,22
 462 164 462 164 462 276 c 0,23,24
 462 543 462 543 445 639 c 1,25,26
 471 649 471 649 491 649 c 128,-1,27
 511 649 511 649 539 647 c 1,28,29
 525 536 525 536 525 277 c 0,0,1
434 704 m 1,30,31
 366 725 366 725 307 756 c 1,32,33
 220 716 220 716 172 704 c 1,34,35
 160 722 160 722 157 743 c 1,36,37
 178 757 178 757 196 766 c 128,-1,38
 214 775 214 775 228.5 784 c 128,-1,39
 243 793 243 793 250 798 c 128,-1,40
 257 803 257 803 268 811 c 0,41,42
 283 821 283 821 307 845 c 1,43,44
 351 803 351 803 450 742 c 1,45,46
 447 721 447 721 434 704 c 1,30,31
EndSplineSet
EndChar

StartChar: Udieresis
Encoding: 220 220 155
Width: 604
GlyphClass: 2
Flags: W
LayerCount: 2
Fore
SplineSet
525 277 m 0,0,1
 525 217 525 217 521 176.5 c 128,-1,2
 517 136 517 136 503.5 97 c 128,-1,3
 490 58 490 58 466 35 c 0,4,5
 414 -15 414 -15 304 -15 c 0,6,7
 163 -15 163 -15 120 64 c 0,8,9
 97 106 97 106 89.5 154 c 128,-1,10
 82 202 82 202 82 277 c 0,11,12
 82 543 82 543 65 639 c 1,13,14
 91 649 91 649 117 649 c 128,-1,15
 143 649 143 649 171 647 c 1,16,17
 157 536 157 536 157 276 c 0,18,19
 157 164 157 164 188 111.5 c 128,-1,20
 219 59 219 59 311 59 c 128,-1,21
 403 59 403 59 432.5 111.5 c 128,-1,22
 462 164 462 164 462 276 c 0,23,24
 462 543 462 543 445 639 c 1,25,26
 471 649 471 649 491 649 c 128,-1,27
 511 649 511 649 539 647 c 1,28,29
 525 536 525 536 525 277 c 0,0,1
282 759 m 0,30,31
 282 704 282 704 224 704 c 0,32,33
 179 704 179 704 179 750 c 0,34,35
 179 806 179 806 237 806 c 0,36,37
 282 806 282 806 282 759 c 0,30,31
432 759 m 0,38,39
 432 704 432 704 374 704 c 0,40,41
 329 704 329 704 329 750 c 0,42,43
 329 806 329 806 387 806 c 0,44,45
 432 806 432 806 432 759 c 0,38,39
EndSplineSet
EndChar

StartChar: Yacute
Encoding: 221 221 156
Width: 494
GlyphClass: 2
Flags: W
LayerCount: 2
Fore
SplineSet
17 634 m 1,0,1
 57 651 57 651 89.5 651 c 128,-1,2
 122 651 122 651 133 650 c 1,3,4
 139 575 139 575 180 478 c 0,5,6
 196 442 196 442 222.5 383 c 128,-1,7
 249 324 249 324 262 293 c 1,8,-1
 266 293 l 1,9,10
 301 360 301 360 336.5 469.5 c 128,-1,11
 372 579 372 579 376 649 c 1,12,13
 394 651 394 651 403 651 c 0,14,15
 450 651 450 651 481 634 c 1,16,17
 480 631 480 631 447.5 560.5 c 128,-1,18
 415 490 415 490 390 434 c 0,19,20
 315 266 315 266 297 194 c 1,21,22
 302 31 302 31 313 2 c 1,23,24
 280 -8 280 -8 252 -8 c 128,-1,25
 224 -8 224 -8 207 -6 c 1,26,27
 217 76 217 76 220 197 c 1,28,29
 197 270 197 270 152.5 362.5 c 128,-1,30
 108 455 108 455 68.5 532.5 c 128,-1,31
 29 610 29 610 17 634 c 1,0,1
397 768 m 0,32,33
 397 756 397 756 396 750 c 1,34,35
 273 713 273 713 214 704 c 1,36,37
 201 721 201 721 199 743 c 1,38,39
 220 754 220 754 249.5 769 c 128,-1,40
 279 784 279 784 294 792 c 0,41,42
 338 816 338 816 367 838 c 1,43,44
 397 805 397 805 397 768 c 0,32,33
EndSplineSet
EndChar

StartChar: Thorn
Encoding: 222 222 157
Width: 507
GlyphClass: 2
Flags: W
LayerCount: 2
Fore
SplineSet
78 -6 m 1,0,1
 92 111 92 111 92 327 c 128,-1,2
 92 543 92 543 75 639 c 1,3,4
 101 649 101 649 127 649 c 128,-1,5
 153 649 153 649 181 647 c 1,6,7
 174 602 174 602 171 549 c 1,8,9
 215 555 215 555 269 555 c 0,10,11
 387 555 387 555 437 501.5 c 128,-1,12
 487 448 487 448 487 351.5 c 128,-1,13
 487 255 487 255 436.5 195 c 128,-1,14
 386 135 386 135 283 135 c 0,15,16
 243 135 243 135 204 150 c 1,17,18
 204 177 204 177 211 200 c 128,-1,19
 218 223 218 223 225 231 c 1,20,21
 254 202 254 202 294.5 202 c 128,-1,22
 335 202 335 202 360 227 c 0,23,24
 400 268 400 268 400 349 c 0,25,26
 400 498 400 498 268 498 c 0,27,28
 225 498 225 498 168 474 c 1,29,30
 167 429 167 429 167 338 c 0,31,32
 167 56 167 56 184 2 c 1,33,34
 151 -8 151 -8 123 -8 c 128,-1,35
 95 -8 95 -8 78 -6 c 1,0,1
EndSplineSet
EndChar

StartChar: germandbls
Encoding: 223 223 158
Width: 547
GlyphClass: 2
Flags: W
LayerCount: 2
Fore
SplineSet
89 408 m 1,0,-1
 32 407 l 1,1,2
 26 419 26 419 26 436.5 c 128,-1,3
 26 454 26 454 28 462 c 1,4,-1
 89 462 l 1,5,6
 92 522 92 522 108 567.5 c 128,-1,7
 124 613 124 613 164 644 c 128,-1,8
 204 675 204 675 273 675 c 128,-1,9
 342 675 342 675 392 633.5 c 128,-1,10
 442 592 442 592 442 523 c 128,-1,11
 442 454 442 454 410.5 414 c 128,-1,12
 379 374 379 374 332 359 c 1,13,14
 512 321 512 321 512 173 c 0,15,16
 512 35 512 35 404 -3 c 0,17,18
 369 -15 369 -15 324 -15 c 0,19,20
 249 -15 249 -15 195 34 c 1,21,22
 201 68 201 68 223 98 c 2,23,-1
 230 108 l 1,24,25
 265 49 265 49 326 49 c 0,26,27
 425 49 425 49 425 173 c 0,28,29
 425 267 425 267 354 299 c 0,30,31
 325 312 325 312 293.5 316 c 128,-1,32
 262 320 262 320 259 321 c 1,33,34
 253 333 253 333 253 350.5 c 128,-1,35
 253 368 253 368 255 376 c 1,36,37
 359 397 359 397 359 507 c 0,38,39
 359 554 359 554 335.5 584.5 c 128,-1,40
 312 615 312 615 273 615 c 128,-1,41
 234 615 234 615 212.5 601.5 c 128,-1,42
 191 588 191 588 182 562 c 0,43,44
 165 518 165 518 165 452 c 2,45,-1
 165 237 l 2,46,47
 165 98 165 98 183 6 c 1,48,49
 149 -4 149 -4 122 -4 c 128,-1,50
 95 -4 95 -4 77 0 c 1,51,52
 92 155 92 155 92 208 c 2,53,-1
 89 408 l 1,0,-1
EndSplineSet
EndChar

StartChar: agrave
Encoding: 224 224 159
Width: 471
GlyphClass: 2
Flags: W
LayerCount: 2
Fore
SplineSet
214 219 m 0,0,1
 178 219 178 219 155.5 199.5 c 128,-1,2
 133 180 133 180 133 139 c 0,3,4
 133 57 133 57 204 57 c 0,5,6
 232 57 232 57 261 71 c 128,-1,7
 290 85 290 85 306 104 c 1,8,9
 311 167 311 167 311 184 c 1,10,11
 270 219 270 219 214 219 c 0,0,1
393 345 m 1,12,-1
 389 201 l 1,13,14
 389 118 389 118 406 3 c 1,15,16
 376 -6 376 -6 354 -6 c 128,-1,17
 332 -6 332 -6 312 -4 c 1,18,-1
 309 44 l 1,19,20
 233 -15 233 -15 174.5 -15 c 128,-1,21
 116 -15 116 -15 85.5 22.5 c 128,-1,22
 55 60 55 60 55 129.5 c 128,-1,23
 55 199 55 199 100.5 235 c 128,-1,24
 146 271 146 271 208 271 c 128,-1,25
 270 271 270 271 315 247 c 1,26,27
 316 267 316 267 316 291 c 128,-1,28
 316 315 316 315 314.5 333 c 128,-1,29
 313 351 313 351 306 375 c 0,30,31
 291 422 291 422 232 422 c 0,32,33
 158 422 158 422 158 341 c 1,34,-1
 159 324 l 1,35,36
 137 322 137 322 118 322 c 128,-1,37
 99 322 99 322 73 330 c 1,38,39
 71 346 71 346 71 353 c 0,40,41
 71 416 71 416 117 447 c 128,-1,42
 163 478 163 478 236.5 478 c 128,-1,43
 310 478 310 478 351.5 444.5 c 128,-1,44
 393 411 393 411 393 345 c 1,12,-1
282 528 m 1,45,46
 158 579 158 579 98 603 c 1,47,48
 99 631 99 631 108 647.5 c 128,-1,49
 117 664 117 664 138 682 c 1,50,51
 184 643 184 643 233.5 610.5 c 128,-1,52
 283 578 283 578 302 565 c 1,53,54
 297 544 297 544 282 528 c 1,45,46
EndSplineSet
EndChar

StartChar: aacute
Encoding: 225 225 160
Width: 471
GlyphClass: 2
Flags: W
LayerCount: 2
Fore
SplineSet
214 219 m 0,0,1
 178 219 178 219 155.5 199.5 c 128,-1,2
 133 180 133 180 133 139 c 0,3,4
 133 57 133 57 204 57 c 0,5,6
 232 57 232 57 261 71 c 128,-1,7
 290 85 290 85 306 104 c 1,8,9
 311 167 311 167 311 184 c 1,10,11
 270 219 270 219 214 219 c 0,0,1
393 345 m 1,12,-1
 389 201 l 1,13,14
 389 118 389 118 406 3 c 1,15,16
 376 -6 376 -6 354 -6 c 128,-1,17
 332 -6 332 -6 312 -4 c 1,18,-1
 309 44 l 1,19,20
 233 -15 233 -15 174.5 -15 c 128,-1,21
 116 -15 116 -15 85.5 22.5 c 128,-1,22
 55 60 55 60 55 129.5 c 128,-1,23
 55 199 55 199 100.5 235 c 128,-1,24
 146 271 146 271 208 271 c 128,-1,25
 270 271 270 271 315 247 c 1,26,27
 316 267 316 267 316 291 c 128,-1,28
 316 315 316 315 314.5 333 c 128,-1,29
 313 351 313 351 306 375 c 0,30,31
 291 422 291 422 232 422 c 0,32,33
 158 422 158 422 158 341 c 1,34,-1
 159 324 l 1,35,36
 137 322 137 322 118 322 c 128,-1,37
 99 322 99 322 73 330 c 1,38,39
 71 346 71 346 71 353 c 0,40,41
 71 416 71 416 117 447 c 128,-1,42
 163 478 163 478 236.5 478 c 128,-1,43
 310 478 310 478 351.5 444.5 c 128,-1,44
 393 411 393 411 393 345 c 1,12,-1
177 528 m 1,45,46
 162 544 162 544 157 565 c 1,47,48
 176 578 176 578 205 597 c 128,-1,49
 234 616 234 616 248 626 c 0,50,51
 288 654 288 654 321 682 c 1,52,53
 342 664 342 664 351 647.5 c 128,-1,54
 360 631 360 631 361 603 c 1,55,56
 301 579 301 579 177 528 c 1,45,46
EndSplineSet
EndChar

StartChar: acircumflex
Encoding: 226 226 161
Width: 471
GlyphClass: 2
Flags: W
LayerCount: 2
Fore
SplineSet
214 219 m 0,0,1
 178 219 178 219 155.5 199.5 c 128,-1,2
 133 180 133 180 133 139 c 0,3,4
 133 57 133 57 204 57 c 0,5,6
 232 57 232 57 261 71 c 128,-1,7
 290 85 290 85 306 104 c 1,8,9
 311 167 311 167 311 184 c 1,10,11
 270 219 270 219 214 219 c 0,0,1
393 345 m 1,12,-1
 389 201 l 1,13,14
 389 118 389 118 406 3 c 1,15,16
 376 -6 376 -6 354 -6 c 128,-1,17
 332 -6 332 -6 312 -4 c 1,18,-1
 309 44 l 1,19,20
 233 -15 233 -15 174.5 -15 c 128,-1,21
 116 -15 116 -15 85.5 22.5 c 128,-1,22
 55 60 55 60 55 129.5 c 128,-1,23
 55 199 55 199 100.5 235 c 128,-1,24
 146 271 146 271 208 271 c 128,-1,25
 270 271 270 271 315 247 c 1,26,27
 316 267 316 267 316 291 c 128,-1,28
 316 315 316 315 314.5 333 c 128,-1,29
 313 351 313 351 306 375 c 0,30,31
 291 422 291 422 232 422 c 0,32,33
 158 422 158 422 158 341 c 1,34,-1
 159 324 l 1,35,36
 137 322 137 322 118 322 c 128,-1,37
 99 322 99 322 73 330 c 1,38,39
 71 346 71 346 71 353 c 0,40,41
 71 416 71 416 117 447 c 128,-1,42
 163 478 163 478 236.5 478 c 128,-1,43
 310 478 310 478 351.5 444.5 c 128,-1,44
 393 411 393 411 393 345 c 1,12,-1
344 528 m 1,45,-1
 230 591 l 1,46,47
 197 573 197 573 116 528 c 1,48,49
 100 546 100 546 96 565 c 1,50,51
 114 580 114 580 144 604 c 1,52,53
 204 655 204 655 230 682 c 1,54,55
 256 655 256 655 301 617.5 c 128,-1,56
 346 580 346 580 364 565 c 1,57,58
 359 544 359 544 344 528 c 1,45,-1
EndSplineSet
EndChar

StartChar: atilde
Encoding: 227 227 162
Width: 471
GlyphClass: 2
Flags: W
LayerCount: 2
Fore
SplineSet
214 219 m 0,0,1
 178 219 178 219 155.5 199.5 c 128,-1,2
 133 180 133 180 133 139 c 0,3,4
 133 57 133 57 204 57 c 0,5,6
 232 57 232 57 261 71 c 128,-1,7
 290 85 290 85 306 104 c 1,8,9
 311 167 311 167 311 184 c 1,10,11
 270 219 270 219 214 219 c 0,0,1
393 345 m 1,12,-1
 389 201 l 1,13,14
 389 118 389 118 406 3 c 1,15,16
 376 -6 376 -6 354 -6 c 128,-1,17
 332 -6 332 -6 312 -4 c 1,18,-1
 309 44 l 1,19,20
 233 -15 233 -15 174.5 -15 c 128,-1,21
 116 -15 116 -15 85.5 22.5 c 128,-1,22
 55 60 55 60 55 129.5 c 128,-1,23
 55 199 55 199 100.5 235 c 128,-1,24
 146 271 146 271 208 271 c 128,-1,25
 270 271 270 271 315 247 c 1,26,27
 316 267 316 267 316 291 c 128,-1,28
 316 315 316 315 314.5 333 c 128,-1,29
 313 351 313 351 306 375 c 0,30,31
 291 422 291 422 232 422 c 0,32,33
 158 422 158 422 158 341 c 1,34,-1
 159 324 l 1,35,36
 137 322 137 322 118 322 c 128,-1,37
 99 322 99 322 73 330 c 1,38,39
 71 346 71 346 71 353 c 0,40,41
 71 416 71 416 117 447 c 128,-1,42
 163 478 163 478 236.5 478 c 128,-1,43
 310 478 310 478 351.5 444.5 c 128,-1,44
 393 411 393 411 393 345 c 1,12,-1
130 620.5 m 128,-1,46
 159 643 159 643 185 643 c 128,-1,47
 211 643 211 643 242.5 626.5 c 128,-1,48
 274 610 274 610 291 610 c 0,49,50
 316 610 316 610 341 650 c 1,51,52
 368 638 368 638 375 617 c 1,53,54
 361 590 361 590 332 567 c 128,-1,55
 303 544 303 544 276.5 544 c 128,-1,56
 250 544 250 544 218.5 560.5 c 128,-1,57
 187 577 187 577 165.5 577 c 128,-1,58
 144 577 144 577 119 537 c 1,59,60
 94 549 94 549 87 570 c 1,61,45
 101 598 101 598 130 620.5 c 128,-1,46
EndSplineSet
EndChar

StartChar: adieresis
Encoding: 228 228 163
Width: 471
GlyphClass: 2
Flags: W
LayerCount: 2
Fore
SplineSet
214 219 m 0,0,1
 178 219 178 219 155.5 199.5 c 128,-1,2
 133 180 133 180 133 139 c 0,3,4
 133 57 133 57 204 57 c 0,5,6
 232 57 232 57 261 71 c 128,-1,7
 290 85 290 85 306 104 c 1,8,9
 311 167 311 167 311 184 c 1,10,11
 270 219 270 219 214 219 c 0,0,1
393 345 m 1,12,-1
 389 201 l 1,13,14
 389 118 389 118 406 3 c 1,15,16
 376 -6 376 -6 354 -6 c 128,-1,17
 332 -6 332 -6 312 -4 c 1,18,-1
 309 44 l 1,19,20
 233 -15 233 -15 174.5 -15 c 128,-1,21
 116 -15 116 -15 85.5 22.5 c 128,-1,22
 55 60 55 60 55 129.5 c 128,-1,23
 55 199 55 199 100.5 235 c 128,-1,24
 146 271 146 271 208 271 c 128,-1,25
 270 271 270 271 315 247 c 1,26,27
 316 267 316 267 316 291 c 128,-1,28
 316 315 316 315 314.5 333 c 128,-1,29
 313 351 313 351 306 375 c 0,30,31
 291 422 291 422 232 422 c 0,32,33
 158 422 158 422 158 341 c 1,34,-1
 159 324 l 1,35,36
 137 322 137 322 118 322 c 128,-1,37
 99 322 99 322 73 330 c 1,38,39
 71 346 71 346 71 353 c 0,40,41
 71 416 71 416 117 447 c 128,-1,42
 163 478 163 478 236.5 478 c 128,-1,43
 310 478 310 478 351.5 444.5 c 128,-1,44
 393 411 393 411 393 345 c 1,12,-1
207 599 m 0,45,46
 207 544 207 544 149 544 c 0,47,48
 104 544 104 544 104 590 c 0,49,50
 104 646 104 646 162 646 c 0,51,52
 207 646 207 646 207 599 c 0,45,46
357 599 m 0,53,54
 357 544 357 544 299 544 c 0,55,56
 254 544 254 544 254 590 c 0,57,58
 254 646 254 646 312 646 c 0,59,60
 357 646 357 646 357 599 c 0,53,54
EndSplineSet
EndChar

StartChar: aring
Encoding: 229 229 164
Width: 471
GlyphClass: 2
Flags: W
LayerCount: 2
Fore
SplineSet
214 219 m 0,0,1
 178 219 178 219 155.5 199.5 c 128,-1,2
 133 180 133 180 133 139 c 0,3,4
 133 57 133 57 204 57 c 0,5,6
 232 57 232 57 261 71 c 128,-1,7
 290 85 290 85 306 104 c 1,8,9
 311 167 311 167 311 184 c 1,10,11
 270 219 270 219 214 219 c 0,0,1
393 345 m 1,12,-1
 389 201 l 1,13,14
 389 118 389 118 406 3 c 1,15,16
 376 -6 376 -6 354 -6 c 128,-1,17
 332 -6 332 -6 312 -4 c 1,18,-1
 309 44 l 1,19,20
 233 -15 233 -15 174.5 -15 c 128,-1,21
 116 -15 116 -15 85.5 22.5 c 128,-1,22
 55 60 55 60 55 129.5 c 128,-1,23
 55 199 55 199 100.5 235 c 128,-1,24
 146 271 146 271 208 271 c 128,-1,25
 270 271 270 271 315 247 c 1,26,27
 316 267 316 267 316 291 c 128,-1,28
 316 315 316 315 314.5 333 c 128,-1,29
 313 351 313 351 306 375 c 0,30,31
 291 422 291 422 232 422 c 0,32,33
 158 422 158 422 158 341 c 1,34,-1
 159 324 l 1,35,36
 137 322 137 322 118 322 c 128,-1,37
 99 322 99 322 73 330 c 1,38,39
 71 346 71 346 71 353 c 0,40,41
 71 416 71 416 117 447 c 128,-1,42
 163 478 163 478 236.5 478 c 128,-1,43
 310 478 310 478 351.5 444.5 c 128,-1,44
 393 411 393 411 393 345 c 1,12,-1
302 673.5 m 128,-1,46
 319 654 319 654 319 613.5 c 128,-1,47
 319 573 319 573 297.5 550 c 128,-1,48
 276 527 276 527 230 527 c 0,49,50
 155 527 155 527 155 610 c 128,-1,51
 155 693 155 693 244 693 c 0,52,45
 285 693 285 693 302 673.5 c 128,-1,46
242 656 m 0,53,54
 194 656 194 656 194 611 c 0,55,56
 194 585 194 585 203 574.5 c 128,-1,57
 212 564 212 564 232 564 c 0,58,59
 280 564 280 564 280 612 c 0,60,61
 280 656 280 656 242 656 c 0,53,54
EndSplineSet
EndChar

StartChar: ae
Encoding: 230 230 165
Width: 716
GlyphClass: 2
Flags: W
LayerCount: 2
Fore
SplineSet
158 341 m 1,0,-1
 159 324 l 1,1,2
 137 322 137 322 118 322 c 128,-1,3
 99 322 99 322 73 330 c 1,4,5
 71 346 71 346 71 353 c 0,6,7
 71 416 71 416 117 447 c 128,-1,8
 163 478 163 478 246.5 478 c 128,-1,9
 330 478 330 478 369 410 c 1,10,11
 423 478 423 478 502 478 c 128,-1,12
 581 478 581 478 625 434.5 c 128,-1,13
 669 391 669 391 669 331.5 c 128,-1,14
 669 272 669 272 658 246 c 1,15,16
 583 222 583 222 508.5 222 c 128,-1,17
 434 222 434 222 397 227 c 1,18,19
 397 107 397 107 448 73 c 0,20,21
 473 57 473 57 510 57 c 0,22,23
 570 57 570 57 634 119 c 1,24,25
 663 89 663 89 671 40 c 1,26,27
 591 -16 591 -16 502 -16 c 0,28,29
 392 -16 392 -16 349 66 c 1,30,31
 304 22 304 22 265.5 3.5 c 128,-1,32
 227 -15 227 -15 171.5 -15 c 128,-1,33
 116 -15 116 -15 85.5 22.5 c 128,-1,34
 55 60 55 60 55 129.5 c 128,-1,35
 55 199 55 199 100.5 235 c 128,-1,36
 146 271 146 271 208 271 c 128,-1,37
 270 271 270 271 315 247 c 1,38,39
 316 267 316 267 316 291 c 128,-1,40
 316 315 316 315 314.5 333 c 128,-1,41
 313 351 313 351 306 375 c 0,42,43
 291 422 291 422 232 422 c 0,44,45
 158 422 158 422 158 341 c 1,0,-1
204 57 m 0,46,47
 272 57 272 57 327 126 c 1,48,49
 323 143 323 143 319 177 c 1,50,51
 272 219 272 219 214 219 c 0,52,53
 178 219 178 219 155.5 199.5 c 128,-1,54
 133 180 133 180 133 139 c 0,55,56
 133 57 133 57 204 57 c 0,46,47
502 422 m 0,57,58
 408 422 408 422 398 285 c 1,59,60
 440 280 440 280 495 280 c 128,-1,61
 550 280 550 280 581 290 c 1,62,63
 585 326 585 326 585 327 c 0,64,65
 585 366 585 366 565 394 c 128,-1,66
 545 422 545 422 502 422 c 0,57,58
EndSplineSet
EndChar

StartChar: ccedilla
Encoding: 231 231 166
Width: 440
GlyphClass: 2
Flags: W
LayerCount: 2
Fore
SplineSet
239 478 m 0,0,1
 303 478 303 478 348.5 446 c 128,-1,2
 394 414 394 414 394 353 c 0,3,4
 394 346 394 346 392 330 c 1,5,6
 366 322 366 322 347 322 c 128,-1,7
 328 322 328 322 306 324 c 1,8,9
 307 331 307 331 307 343 c 0,10,11
 307 376 307 376 287.5 399 c 128,-1,12
 268 422 268 422 232 422 c 0,13,14
 137 422 137 422 137 239.5 c 128,-1,15
 137 57 137 57 241 57 c 0,16,17
 291 57 291 57 363 119 c 1,18,19
 392 89 392 89 400 40 c 1,20,21
 319 -13 319 -13 239 -15 c 1,22,-1
 241 -54 l 1,23,24
 342 -58 342 -58 342 -124 c 0,25,26
 342 -210 342 -210 231 -210 c 0,27,28
 186 -210 186 -210 157 -198 c 1,29,30
 156 -195 156 -195 156 -179.5 c 128,-1,31
 156 -164 156 -164 169 -144 c 1,32,33
 191 -164 191 -164 232.5 -164 c 128,-1,34
 274 -164 274 -164 274 -125 c 0,35,36
 274 -95 274 -95 229 -95 c 0,37,38
 209 -95 209 -95 181 -99 c 1,39,-1
 196 -12 l 1,40,41
 117 1 117 1 86 67.5 c 128,-1,42
 55 134 55 134 55 240.5 c 128,-1,43
 55 347 55 347 98 412.5 c 128,-1,44
 141 478 141 478 239 478 c 0,0,1
EndSplineSet
EndChar

StartChar: egrave
Encoding: 232 232 167
Width: 456
GlyphClass: 2
Flags: W
LayerCount: 2
Fore
SplineSet
398 246 m 1,0,1
 323 222 323 222 248.5 222 c 128,-1,2
 174 222 174 222 137 227 c 1,3,4
 137 137 137 137 166 96 c 0,5,6
 193 57 193 57 250 57 c 128,-1,7
 307 57 307 57 374 119 c 1,8,9
 403 89 403 89 411 40 c 1,10,11
 330 -15 330 -15 242 -15 c 0,12,13
 137 -15 137 -15 96 53.5 c 128,-1,14
 55 122 55 122 55 235 c 128,-1,15
 55 348 55 348 100.5 413 c 128,-1,16
 146 478 146 478 249 478 c 0,17,18
 321 478 321 478 364.5 434.5 c 128,-1,19
 408 391 408 391 408.5 331.5 c 128,-1,20
 409 272 409 272 398 246 c 1,0,1
242 422 m 0,21,22
 150 422 150 422 138 285 c 1,23,24
 181 280 181 280 235.5 280 c 128,-1,25
 290 280 290 280 321 290 c 1,26,27
 325 326 325 326 325 327 c 0,28,29
 325 366 325 366 305 394 c 128,-1,30
 285 422 285 422 242 422 c 0,21,22
282 528 m 1,31,32
 158 579 158 579 98 603 c 1,33,34
 99 631 99 631 108 647.5 c 128,-1,35
 117 664 117 664 138 682 c 1,36,37
 184 643 184 643 233.5 610.5 c 128,-1,38
 283 578 283 578 302 565 c 1,39,40
 297 544 297 544 282 528 c 1,31,32
EndSplineSet
EndChar

StartChar: eacute
Encoding: 233 233 168
Width: 456
GlyphClass: 2
Flags: W
LayerCount: 2
Fore
SplineSet
398 246 m 1,0,1
 323 222 323 222 248.5 222 c 128,-1,2
 174 222 174 222 137 227 c 1,3,4
 137 137 137 137 166 96 c 0,5,6
 193 57 193 57 250 57 c 128,-1,7
 307 57 307 57 374 119 c 1,8,9
 403 89 403 89 411 40 c 1,10,11
 330 -15 330 -15 242 -15 c 0,12,13
 137 -15 137 -15 96 53.5 c 128,-1,14
 55 122 55 122 55 235 c 128,-1,15
 55 348 55 348 100.5 413 c 128,-1,16
 146 478 146 478 249 478 c 0,17,18
 321 478 321 478 364.5 434.5 c 128,-1,19
 408 391 408 391 408.5 331.5 c 128,-1,20
 409 272 409 272 398 246 c 1,0,1
242 422 m 0,21,22
 150 422 150 422 138 285 c 1,23,24
 181 280 181 280 235.5 280 c 128,-1,25
 290 280 290 280 321 290 c 1,26,27
 325 326 325 326 325 327 c 0,28,29
 325 366 325 366 305 394 c 128,-1,30
 285 422 285 422 242 422 c 0,21,22
179 528 m 1,31,32
 164 544 164 544 159 565 c 1,33,34
 178 578 178 578 207 597 c 128,-1,35
 236 616 236 616 250 626 c 0,36,37
 290 654 290 654 323 682 c 1,38,39
 344 664 344 664 353 647.5 c 128,-1,40
 362 631 362 631 363 603 c 1,41,42
 303 579 303 579 179 528 c 1,31,32
EndSplineSet
EndChar

StartChar: ecircumflex
Encoding: 234 234 169
Width: 456
GlyphClass: 2
Flags: W
LayerCount: 2
Fore
SplineSet
398 246 m 1,0,1
 323 222 323 222 248.5 222 c 128,-1,2
 174 222 174 222 137 227 c 1,3,4
 137 137 137 137 166 96 c 0,5,6
 193 57 193 57 250 57 c 128,-1,7
 307 57 307 57 374 119 c 1,8,9
 403 89 403 89 411 40 c 1,10,11
 330 -15 330 -15 242 -15 c 0,12,13
 137 -15 137 -15 96 53.5 c 128,-1,14
 55 122 55 122 55 235 c 128,-1,15
 55 348 55 348 100.5 413 c 128,-1,16
 146 478 146 478 249 478 c 0,17,18
 321 478 321 478 364.5 434.5 c 128,-1,19
 408 391 408 391 408.5 331.5 c 128,-1,20
 409 272 409 272 398 246 c 1,0,1
242 422 m 0,21,22
 150 422 150 422 138 285 c 1,23,24
 181 280 181 280 235.5 280 c 128,-1,25
 290 280 290 280 321 290 c 1,26,27
 325 326 325 326 325 327 c 0,28,29
 325 366 325 366 305 394 c 128,-1,30
 285 422 285 422 242 422 c 0,21,22
360 528 m 1,31,-1
 246 591 l 1,32,33
 213 573 213 573 132 528 c 1,34,35
 116 546 116 546 112 565 c 1,36,37
 130 580 130 580 160 604 c 1,38,39
 220 655 220 655 246 682 c 1,40,41
 272 655 272 655 317 617.5 c 128,-1,42
 362 580 362 580 380 565 c 1,43,44
 375 544 375 544 360 528 c 1,31,-1
EndSplineSet
EndChar

StartChar: edieresis
Encoding: 235 235 170
Width: 456
GlyphClass: 2
Flags: W
LayerCount: 2
Fore
SplineSet
398 246 m 1,0,1
 323 222 323 222 248.5 222 c 128,-1,2
 174 222 174 222 137 227 c 1,3,4
 137 137 137 137 166 96 c 0,5,6
 193 57 193 57 250 57 c 128,-1,7
 307 57 307 57 374 119 c 1,8,9
 403 89 403 89 411 40 c 1,10,11
 330 -15 330 -15 242 -15 c 0,12,13
 137 -15 137 -15 96 53.5 c 128,-1,14
 55 122 55 122 55 235 c 128,-1,15
 55 348 55 348 100.5 413 c 128,-1,16
 146 478 146 478 249 478 c 0,17,18
 321 478 321 478 364.5 434.5 c 128,-1,19
 408 391 408 391 408.5 331.5 c 128,-1,20
 409 272 409 272 398 246 c 1,0,1
242 422 m 0,21,22
 150 422 150 422 138 285 c 1,23,24
 181 280 181 280 235.5 280 c 128,-1,25
 290 280 290 280 321 290 c 1,26,27
 325 326 325 326 325 327 c 0,28,29
 325 366 325 366 305 394 c 128,-1,30
 285 422 285 422 242 422 c 0,21,22
377 607 m 0,31,32
 377 552 377 552 319 552 c 0,33,34
 274 552 274 552 274 598 c 0,35,36
 274 654 274 654 332 654 c 0,37,38
 377 654 377 654 377 607 c 0,31,32
227 607 m 0,39,40
 227 552 227 552 169 552 c 0,41,42
 124 552 124 552 124 598 c 0,43,44
 124 654 124 654 182 654 c 0,45,46
 227 654 227 654 227 607 c 0,39,40
EndSplineSet
EndChar

StartChar: igrave
Encoding: 236 236 171
Width: 235
GlyphClass: 2
Flags: W
LayerCount: 2
Fore
SplineSet
155 256 m 0,0,1
 155 92 155 92 173 6 c 1,2,3
 137 -4 137 -4 108 -4 c 128,-1,4
 79 -4 79 -4 67 -2 c 1,5,6
 82 134 82 134 82 247.5 c 128,-1,7
 82 361 82 361 64 458 c 1,8,9
 98 468 98 468 125 468 c 128,-1,10
 152 468 152 468 170 464 c 1,11,12
 155 309 155 309 155 256 c 0,0,1
180 528 m 1,13,14
 56 579 56 579 -4 603 c 1,15,16
 -3 631 -3 631 6 647.5 c 128,-1,17
 15 664 15 664 36 682 c 1,18,19
 82 643 82 643 131.5 610.5 c 128,-1,20
 181 578 181 578 200 565 c 1,21,22
 195 544 195 544 180 528 c 1,13,14
EndSplineSet
EndChar

StartChar: iacute
Encoding: 237 237 172
Width: 235
GlyphClass: 2
Flags: W
LayerCount: 2
Fore
SplineSet
66 528 m 1,0,1
 51 544 51 544 46 565 c 1,2,3
 65 578 65 578 94 597 c 128,-1,4
 123 616 123 616 136 626 c 0,5,6
 177 654 177 654 210 682 c 1,7,8
 231 664 231 664 240 647.5 c 128,-1,9
 249 631 249 631 250 603 c 1,10,11
 190 579 190 579 66 528 c 1,0,1
155 256 m 0,12,13
 155 92 155 92 173 6 c 1,14,15
 137 -4 137 -4 108 -4 c 128,-1,16
 79 -4 79 -4 67 -2 c 1,17,18
 82 134 82 134 82 247.5 c 128,-1,19
 82 361 82 361 64 458 c 1,20,21
 98 468 98 468 125 468 c 128,-1,22
 152 468 152 468 170 464 c 1,23,24
 155 309 155 309 155 256 c 0,12,13
EndSplineSet
EndChar

StartChar: icircumflex
Encoding: 238 238 173
Width: 235
GlyphClass: 2
Flags: W
LayerCount: 2
Fore
SplineSet
155 256 m 0,0,1
 155 92 155 92 173 6 c 1,2,3
 137 -4 137 -4 108 -4 c 128,-1,4
 79 -4 79 -4 67 -2 c 1,5,6
 82 134 82 134 82 247.5 c 128,-1,7
 82 361 82 361 64 458 c 1,8,9
 98 468 98 468 125 468 c 128,-1,10
 152 468 152 468 170 464 c 1,11,12
 155 309 155 309 155 256 c 0,0,1
232 528 m 1,13,-1
 118 591 l 1,14,15
 85 573 85 573 4 528 c 1,16,17
 -12 546 -12 546 -16 565 c 1,18,19
 2 580 2 580 32 604 c 1,20,21
 92 655 92 655 118 682 c 1,22,23
 144 655 144 655 189 617.5 c 128,-1,24
 234 580 234 580 252 565 c 1,25,26
 247 544 247 544 232 528 c 1,13,-1
EndSplineSet
EndChar

StartChar: idieresis
Encoding: 239 239 174
Width: 235
GlyphClass: 2
Flags: W
LayerCount: 2
Fore
SplineSet
155 256 m 0,0,1
 155 92 155 92 173 6 c 1,2,3
 137 -4 137 -4 108 -4 c 128,-1,4
 79 -4 79 -4 67 -2 c 1,5,6
 82 134 82 134 82 247.5 c 128,-1,7
 82 361 82 361 64 458 c 1,8,9
 98 468 98 468 125 468 c 128,-1,10
 152 468 152 468 170 464 c 1,11,12
 155 309 155 309 155 256 c 0,0,1
94 607 m 0,13,14
 94 552 94 552 36 552 c 0,15,16
 -9 552 -9 552 -9 598 c 0,17,18
 -9 654 -9 654 49 654 c 0,19,20
 94 654 94 654 94 607 c 0,13,14
244 607 m 0,21,22
 244 552 244 552 186 552 c 0,23,24
 141 552 141 552 141 598 c 0,25,26
 141 654 141 654 199 654 c 0,27,28
 244 654 244 654 244 607 c 0,21,22
EndSplineSet
EndChar

StartChar: eth
Encoding: 240 240 175
Width: 486
GlyphClass: 2
Flags: W
LayerCount: 2
Fore
SplineSet
431 246 m 0,0,1
 431 99 431 99 382 40 c 0,2,3
 362 16 362 16 326.5 0.5 c 128,-1,4
 291 -15 291 -15 238.5 -15 c 128,-1,5
 186 -15 186 -15 147.5 4.5 c 128,-1,6
 109 24 109 24 90 61 c 0,7,8
 55 126 55 126 55 236.5 c 128,-1,9
 55 347 55 347 97.5 412.5 c 128,-1,10
 140 478 140 478 234 478 c 0,11,12
 288 478 288 478 334 435 c 1,13,14
 302 522 302 522 249 569 c 1,15,16
 188 534 188 534 166 518 c 1,17,18
 145 531 145 531 145 561 c 1,19,20
 174 576 174 576 210 597 c 1,21,22
 175 618 175 618 123 637 c 1,23,24
 123 671 123 671 136 687 c 1,25,26
 209 665 209 665 263 627 c 1,27,28
 327 663 327 663 351 681 c 1,29,30
 371 669 371 669 373 636 c 1,31,32
 339 619 339 619 299 597 c 1,33,34
 431 476 431 476 431 246 c 0,0,1
243 57 m 128,-1,36
 349 57 349 57 349 239.5 c 128,-1,37
 349 422 349 422 243 422 c 128,-1,38
 137 422 137 422 137 239.5 c 128,-1,35
 137 57 137 57 243 57 c 128,-1,36
EndSplineSet
EndChar

StartChar: ntilde
Encoding: 241 241 176
Width: 502
GlyphClass: 2
Flags: W
LayerCount: 2
Fore
SplineSet
423 334 m 2,0,-1
 422 253 l 1,1,2
 422 124 422 124 442 9 c 1,3,4
 409 -4 409 -4 377.5 -4 c 128,-1,5
 346 -4 346 -4 334 -2 c 1,6,7
 346 131 346 131 346 232.5 c 128,-1,8
 346 334 346 334 331.5 374 c 128,-1,9
 317 414 317 414 268 414 c 128,-1,10
 219 414 219 414 155 350 c 1,11,12
 153 319 153 319 153 256 c 0,13,14
 153 92 153 92 171 6 c 1,15,16
 135 -4 135 -4 106 -4 c 128,-1,17
 77 -4 77 -4 65 -2 c 1,18,19
 80 134 80 134 80 236 c 128,-1,20
 80 338 80 338 60 458 c 1,21,22
 100 468 100 468 123 468 c 128,-1,23
 146 468 146 468 159 464 c 1,24,-1
 159 413 l 1,25,26
 228 478 228 478 297 478 c 128,-1,27
 366 478 366 478 394.5 442.5 c 128,-1,28
 423 407 423 407 423 334 c 2,0,-1
145 620.5 m 128,-1,30
 174 643 174 643 200 643 c 128,-1,31
 226 643 226 643 257.5 626.5 c 128,-1,32
 289 610 289 610 306 610 c 0,33,34
 331 610 331 610 356 650 c 1,35,36
 383 638 383 638 390 617 c 1,37,38
 376 590 376 590 347 567 c 128,-1,39
 318 544 318 544 291.5 544 c 128,-1,40
 265 544 265 544 233.5 560.5 c 128,-1,41
 202 577 202 577 180.5 577 c 128,-1,42
 159 577 159 577 134 537 c 1,43,44
 109 549 109 549 102 570 c 1,45,29
 116 598 116 598 145 620.5 c 128,-1,30
EndSplineSet
EndChar

StartChar: ograve
Encoding: 242 242 177
Width: 486
GlyphClass: 2
Flags: W
LayerCount: 2
Fore
SplineSet
243 478 m 128,-1,1
 431 478 431 478 431 237 c 0,2,3
 431 126 431 126 396 61 c 0,4,5
 356 -15 356 -15 243 -15 c 128,-1,6
 130 -15 130 -15 90 61 c 0,7,8
 55 126 55 126 55 237 c 0,9,0
 55 478 55 478 243 478 c 128,-1,1
243 57 m 128,-1,11
 349 57 349 57 349 239.5 c 128,-1,12
 349 422 349 422 243 422 c 128,-1,13
 137 422 137 422 137 239.5 c 128,-1,10
 137 57 137 57 243 57 c 128,-1,11
295 528 m 1,14,15
 171 579 171 579 111 603 c 1,16,17
 112 631 112 631 121 647.5 c 128,-1,18
 130 664 130 664 151 682 c 1,19,20
 197 643 197 643 246.5 610.5 c 128,-1,21
 296 578 296 578 315 565 c 1,22,23
 310 544 310 544 295 528 c 1,14,15
EndSplineSet
EndChar

StartChar: oacute
Encoding: 243 243 178
Width: 486
GlyphClass: 2
Flags: W
LayerCount: 2
Fore
SplineSet
243 478 m 128,-1,1
 431 478 431 478 431 237 c 0,2,3
 431 126 431 126 396 61 c 0,4,5
 356 -15 356 -15 243 -15 c 128,-1,6
 130 -15 130 -15 90 61 c 0,7,8
 55 126 55 126 55 237 c 0,9,0
 55 478 55 478 243 478 c 128,-1,1
243 57 m 128,-1,11
 349 57 349 57 349 239.5 c 128,-1,12
 349 422 349 422 243 422 c 128,-1,13
 137 422 137 422 137 239.5 c 128,-1,10
 137 57 137 57 243 57 c 128,-1,11
191 528 m 1,14,15
 176 544 176 544 171 565 c 1,16,17
 190 578 190 578 219 597 c 128,-1,18
 248 616 248 616 262 626 c 0,19,20
 302 654 302 654 335 682 c 1,21,22
 356 664 356 664 365 647.5 c 128,-1,23
 374 631 374 631 375 603 c 1,24,25
 315 579 315 579 191 528 c 1,14,15
EndSplineSet
EndChar

StartChar: ocircumflex
Encoding: 244 244 179
Width: 486
GlyphClass: 2
Flags: W
LayerCount: 2
Fore
SplineSet
243 478 m 128,-1,1
 431 478 431 478 431 237 c 0,2,3
 431 126 431 126 396 61 c 0,4,5
 356 -15 356 -15 243 -15 c 128,-1,6
 130 -15 130 -15 90 61 c 0,7,8
 55 126 55 126 55 237 c 0,9,0
 55 478 55 478 243 478 c 128,-1,1
243 57 m 128,-1,11
 349 57 349 57 349 239.5 c 128,-1,12
 349 422 349 422 243 422 c 128,-1,13
 137 422 137 422 137 239.5 c 128,-1,10
 137 57 137 57 243 57 c 128,-1,11
357 528 m 1,14,-1
 243 591 l 1,15,16
 210 573 210 573 129 528 c 1,17,18
 113 546 113 546 109 565 c 1,19,20
 127 580 127 580 156 604 c 0,21,22
 217 655 217 655 243 682 c 1,23,24
 269 655 269 655 314 617.5 c 128,-1,25
 359 580 359 580 377 565 c 1,26,27
 372 544 372 544 357 528 c 1,14,-1
EndSplineSet
EndChar

StartChar: otilde
Encoding: 245 245 180
Width: 486
GlyphClass: 2
Flags: W
LayerCount: 2
Fore
SplineSet
243 478 m 128,-1,1
 431 478 431 478 431 237 c 0,2,3
 431 126 431 126 396 61 c 0,4,5
 356 -15 356 -15 243 -15 c 128,-1,6
 130 -15 130 -15 90 61 c 0,7,8
 55 126 55 126 55 237 c 0,9,0
 55 478 55 478 243 478 c 128,-1,1
243 57 m 128,-1,11
 349 57 349 57 349 239.5 c 128,-1,12
 349 422 349 422 243 422 c 128,-1,13
 137 422 137 422 137 239.5 c 128,-1,10
 137 57 137 57 243 57 c 128,-1,11
142 620.5 m 128,-1,15
 171 643 171 643 197 643 c 128,-1,16
 223 643 223 643 254.5 626.5 c 128,-1,17
 286 610 286 610 303 610 c 0,18,19
 328 610 328 610 353 650 c 1,20,21
 380 638 380 638 387 617 c 1,22,23
 373 590 373 590 344 567 c 128,-1,24
 315 544 315 544 288.5 544 c 128,-1,25
 262 544 262 544 230.5 560.5 c 128,-1,26
 199 577 199 577 177.5 577 c 128,-1,27
 156 577 156 577 131 537 c 1,28,29
 106 549 106 549 99 570 c 1,30,14
 113 598 113 598 142 620.5 c 128,-1,15
EndSplineSet
EndChar

StartChar: odieresis
Encoding: 246 246 181
Width: 486
GlyphClass: 2
Flags: W
LayerCount: 2
Fore
SplineSet
243 478 m 128,-1,1
 431 478 431 478 431 237 c 0,2,3
 431 126 431 126 396 61 c 0,4,5
 356 -15 356 -15 243 -15 c 128,-1,6
 130 -15 130 -15 90 61 c 0,7,8
 55 126 55 126 55 237 c 0,9,0
 55 478 55 478 243 478 c 128,-1,1
243 57 m 128,-1,11
 349 57 349 57 349 239.5 c 128,-1,12
 349 422 349 422 243 422 c 128,-1,13
 137 422 137 422 137 239.5 c 128,-1,10
 137 57 137 57 243 57 c 128,-1,11
219 607 m 0,14,15
 219 552 219 552 161 552 c 0,16,17
 116 552 116 552 116 598 c 0,18,19
 116 654 116 654 174 654 c 0,20,21
 219 654 219 654 219 607 c 0,14,15
369 607 m 0,22,23
 369 552 369 552 311 552 c 0,24,25
 266 552 266 552 266 598 c 0,26,27
 266 654 266 654 324 654 c 0,28,29
 369 654 369 654 369 607 c 0,22,23
EndSplineSet
EndChar

StartChar: divide
Encoding: 247 247 182
Width: 601
GlyphClass: 2
Flags: W
LayerCount: 2
Fore
SplineSet
507 286 m 1,0,1
 415 295 415 295 328.5 295 c 128,-1,2
 242 295 242 295 175 290.5 c 128,-1,3
 108 286 108 286 90 281 c 1,4,5
 87 295 87 295 87 321 c 128,-1,6
 87 347 87 347 94 369 c 1,7,8
 163 360 163 360 261 360 c 0,9,10
 461 360 461 360 511 374 c 1,11,12
 514 360 514 360 514 334 c 128,-1,13
 514 308 514 308 507 286 c 1,0,1
365 500 m 0,14,15
 365 470 365 470 347 450 c 128,-1,16
 329 430 329 430 292 430 c 0,17,18
 235 430 235 430 235 488 c 0,19,20
 235 560 235 560 308 560 c 0,21,22
 365 560 365 560 365 500 c 0,14,15
365 165 m 0,23,24
 365 135 365 135 347 115 c 128,-1,25
 329 95 329 95 292 95 c 0,26,27
 235 95 235 95 235 153 c 0,28,29
 235 225 235 225 308 225 c 0,30,31
 365 225 365 225 365 165 c 0,23,24
EndSplineSet
EndChar

StartChar: oslash
Encoding: 248 248 183
Width: 486
GlyphClass: 2
Flags: W
LayerCount: 2
Fore
SplineSet
389 527 m 1,0,1
 368 482 368 482 354 447 c 1,2,3
 431 392 431 392 431 237 c 0,4,5
 431 126 431 126 396 61 c 0,6,7
 356 -15 356 -15 243 -15 c 0,8,9
 212 -15 212 -15 187 -9 c 1,10,-1
 165 -79 l 1,11,12
 151 -81 151 -81 146 -81 c 0,13,14
 117 -81 117 -81 97 -65 c 1,15,-1
 131 15 l 1,16,17
 55 68 55 68 55 237 c 0,18,19
 55 478 55 478 243 478 c 0,20,21
 272 478 272 478 298 472 c 1,22,-1
 320 541 l 1,23,24
 332 543 332 543 350 543 c 128,-1,25
 368 543 368 543 389 527 c 1,0,1
137 237 m 0,26,27
 137 143 137 143 164 98 c 1,28,29
 222 249 222 249 279 415 c 1,30,31
 260 422 260 422 243 422 c 0,32,33
 137 422 137 422 137 237 c 0,26,27
243 57 m 0,34,35
 349 57 349 57 349 237 c 0,36,37
 349 324 349 324 324 373 c 1,38,39
 267 229 267 229 211 61 c 1,40,41
 223 57 223 57 243 57 c 0,34,35
EndSplineSet
EndChar

StartChar: ugrave
Encoding: 249 249 184
Width: 485
GlyphClass: 2
Flags: W
LayerCount: 2
Fore
SplineSet
77 129 m 2,0,-1
 78 210 l 1,1,2
 78 363 78 363 60 458 c 1,3,4
 82 467 82 467 110.5 467 c 128,-1,5
 139 467 139 467 166 464 c 1,6,7
 151 327 151 327 151 231 c 128,-1,8
 151 135 151 135 164.5 96 c 128,-1,9
 178 57 178 57 224.5 57 c 128,-1,10
 271 57 271 57 332 118 c 1,11,12
 334 148 334 148 334 207 c 0,13,14
 334 372 334 372 316 458 c 1,15,16
 354 468 354 468 379 468 c 128,-1,17
 404 468 404 468 422 464 c 1,18,19
 407 328 407 328 407 219.5 c 128,-1,20
 407 111 407 111 425 3 c 1,21,22
 395 -6 395 -6 373 -6 c 128,-1,23
 351 -6 351 -6 331 -4 c 1,24,-1
 329 45 l 1,25,26
 255 -15 255 -15 192.5 -15 c 128,-1,27
 130 -15 130 -15 103.5 20.5 c 128,-1,28
 77 56 77 56 77 129 c 2,0,-1
294 528 m 1,29,30
 170 579 170 579 110 603 c 1,31,32
 111 631 111 631 120 647.5 c 128,-1,33
 129 664 129 664 150 682 c 1,34,35
 196 643 196 643 245.5 610.5 c 128,-1,36
 295 578 295 578 314 565 c 1,37,38
 309 544 309 544 294 528 c 1,29,30
EndSplineSet
EndChar

StartChar: uacute
Encoding: 250 250 185
Width: 485
GlyphClass: 2
Flags: W
LayerCount: 2
Fore
SplineSet
77 129 m 2,0,-1
 78 210 l 1,1,2
 78 363 78 363 60 458 c 1,3,4
 82 467 82 467 110.5 467 c 128,-1,5
 139 467 139 467 166 464 c 1,6,7
 151 327 151 327 151 231 c 128,-1,8
 151 135 151 135 164.5 96 c 128,-1,9
 178 57 178 57 224.5 57 c 128,-1,10
 271 57 271 57 332 118 c 1,11,12
 334 148 334 148 334 207 c 0,13,14
 334 372 334 372 316 458 c 1,15,16
 354 468 354 468 379 468 c 128,-1,17
 404 468 404 468 422 464 c 1,18,19
 407 328 407 328 407 219.5 c 128,-1,20
 407 111 407 111 425 3 c 1,21,22
 395 -6 395 -6 373 -6 c 128,-1,23
 351 -6 351 -6 331 -4 c 1,24,-1
 329 45 l 1,25,26
 255 -15 255 -15 192.5 -15 c 128,-1,27
 130 -15 130 -15 103.5 20.5 c 128,-1,28
 77 56 77 56 77 129 c 2,0,-1
191 528 m 1,29,30
 176 544 176 544 171 565 c 1,31,32
 190 578 190 578 219 597 c 128,-1,33
 248 616 248 616 262 626 c 0,34,35
 302 654 302 654 335 682 c 1,36,37
 356 664 356 664 365 647.5 c 128,-1,38
 374 631 374 631 375 603 c 1,39,40
 315 579 315 579 191 528 c 1,29,30
EndSplineSet
EndChar

StartChar: ucircumflex
Encoding: 251 251 186
Width: 485
GlyphClass: 2
Flags: W
LayerCount: 2
Fore
SplineSet
77 129 m 2,0,-1
 78 210 l 1,1,2
 78 363 78 363 60 458 c 1,3,4
 82 467 82 467 110.5 467 c 128,-1,5
 139 467 139 467 166 464 c 1,6,7
 151 327 151 327 151 231 c 128,-1,8
 151 135 151 135 164.5 96 c 128,-1,9
 178 57 178 57 224.5 57 c 128,-1,10
 271 57 271 57 332 118 c 1,11,12
 334 148 334 148 334 207 c 0,13,14
 334 372 334 372 316 458 c 1,15,16
 354 468 354 468 379 468 c 128,-1,17
 404 468 404 468 422 464 c 1,18,19
 407 328 407 328 407 219.5 c 128,-1,20
 407 111 407 111 425 3 c 1,21,22
 395 -6 395 -6 373 -6 c 128,-1,23
 351 -6 351 -6 331 -4 c 1,24,-1
 329 45 l 1,25,26
 255 -15 255 -15 192.5 -15 c 128,-1,27
 130 -15 130 -15 103.5 20.5 c 128,-1,28
 77 56 77 56 77 129 c 2,0,-1
357 528 m 1,29,-1
 243 591 l 1,30,31
 210 573 210 573 129 528 c 1,32,33
 113 546 113 546 109 565 c 1,34,35
 127 580 127 580 156 604 c 0,36,37
 217 655 217 655 243 682 c 1,38,39
 269 655 269 655 314 617.5 c 128,-1,40
 359 580 359 580 377 565 c 1,41,42
 372 544 372 544 357 528 c 1,29,-1
EndSplineSet
EndChar

StartChar: udieresis
Encoding: 252 252 187
Width: 485
GlyphClass: 2
Flags: W
LayerCount: 2
Fore
SplineSet
77 129 m 2,0,-1
 78 210 l 1,1,2
 78 363 78 363 60 458 c 1,3,4
 82 467 82 467 110.5 467 c 128,-1,5
 139 467 139 467 166 464 c 1,6,7
 151 327 151 327 151 231 c 128,-1,8
 151 135 151 135 164.5 96 c 128,-1,9
 178 57 178 57 224.5 57 c 128,-1,10
 271 57 271 57 332 118 c 1,11,12
 334 148 334 148 334 207 c 0,13,14
 334 372 334 372 316 458 c 1,15,16
 354 468 354 468 379 468 c 128,-1,17
 404 468 404 468 422 464 c 1,18,19
 407 328 407 328 407 219.5 c 128,-1,20
 407 111 407 111 425 3 c 1,21,22
 395 -6 395 -6 373 -6 c 128,-1,23
 351 -6 351 -6 331 -4 c 1,24,-1
 329 45 l 1,25,26
 255 -15 255 -15 192.5 -15 c 128,-1,27
 130 -15 130 -15 103.5 20.5 c 128,-1,28
 77 56 77 56 77 129 c 2,0,-1
369 607 m 0,29,30
 369 552 369 552 311 552 c 0,31,32
 266 552 266 552 266 598 c 0,33,34
 266 654 266 654 324 654 c 0,35,36
 369 654 369 654 369 607 c 0,29,30
219 607 m 0,37,38
 219 552 219 552 161 552 c 0,39,40
 116 552 116 552 116 598 c 0,41,42
 116 654 116 654 174 654 c 0,43,44
 219 654 219 654 219 607 c 0,37,38
EndSplineSet
EndChar

StartChar: yacute
Encoding: 253 253 188
Width: 444
GlyphClass: 2
Flags: W
LayerCount: 2
Fore
SplineSet
179 -160.5 m 128,-1,1
 139 -210 139 -210 84 -210 c 128,-1,2
 29 -210 29 -210 -19 -178 c 1,3,4
 -15 -120 -15 -120 14 -95 c 1,5,6
 44 -136 44 -136 87 -136 c 0,7,8
 110 -136 110 -136 139 -97 c 128,-1,9
 168 -58 168 -58 186 -6 c 1,10,11
 160 86 160 86 108.5 221.5 c 128,-1,12
 57 357 57 357 10 452 c 1,13,14
 50 469 50 469 82.5 469 c 128,-1,15
 115 469 115 469 126 468 c 1,16,17
 136 325 136 325 225 111 c 1,18,-1
 229 111 l 1,19,20
 262 174 262 174 293.5 284 c 128,-1,21
 325 394 325 394 329 467 c 1,22,23
 347 469 347 469 356 469 c 0,24,25
 403 469 403 469 434 452 c 1,26,27
 409 396 409 396 345 235.5 c 128,-1,28
 281 75 281 75 250 -18 c 128,-1,0
 219 -111 219 -111 179 -160.5 c 128,-1,1
184 528 m 1,29,30
 169 544 169 544 164 565 c 1,31,32
 183 578 183 578 212 597 c 128,-1,33
 241 616 241 616 254 626 c 0,34,35
 295 654 295 654 328 682 c 1,36,37
 349 664 349 664 358 647.5 c 128,-1,38
 367 631 367 631 368 603 c 1,39,40
 308 579 308 579 184 528 c 1,29,30
EndSplineSet
EndChar

StartChar: thorn
Encoding: 254 254 189
Width: 494
GlyphClass: 2
Flags: W
LayerCount: 2
Fore
SplineSet
60 -208 m 1,0,1
 80 -21 80 -21 80 232 c 128,-1,2
 80 485 80 485 77 543 c 128,-1,3
 74 601 74 601 62 672 c 1,4,5
 88 682 88 682 114 682 c 128,-1,6
 140 682 140 682 168 680 c 1,7,8
 153 561 153 561 153 410 c 1,9,10
 230 478 230 478 298 478 c 0,11,12
 439 478 439 478 439 238 c 0,13,14
 439 146 439 146 402 71 c 0,15,16
 383 31 383 31 343 8 c 128,-1,17
 303 -15 303 -15 253.5 -15 c 128,-1,18
 204 -15 204 -15 152 9 c 1,19,20
 156 -138 156 -138 169 -200 c 1,21,22
 147 -210 147 -210 112.5 -210 c 128,-1,23
 78 -210 78 -210 60 -208 c 1,0,1
245 57 m 0,24,25
 354 57 354 57 354 251 c 0,26,27
 354 369 354 369 316 400 c 1,28,29
 297 414 297 414 268 414 c 128,-1,30
 239 414 239 414 207 395 c 128,-1,31
 175 376 175 376 153 349 c 1,32,33
 151 266 151 266 151 80 c 1,34,35
 209 57 209 57 245 57 c 0,24,25
EndSplineSet
EndChar

StartChar: ydieresis
Encoding: 255 255 190
Width: 444
GlyphClass: 2
Flags: W
LayerCount: 2
Fore
SplineSet
179 -160.5 m 128,-1,1
 139 -210 139 -210 84 -210 c 128,-1,2
 29 -210 29 -210 -19 -178 c 1,3,4
 -15 -120 -15 -120 14 -95 c 1,5,6
 44 -136 44 -136 87 -136 c 0,7,8
 110 -136 110 -136 139 -97 c 128,-1,9
 168 -58 168 -58 186 -6 c 1,10,11
 160 86 160 86 108.5 221.5 c 128,-1,12
 57 357 57 357 10 452 c 1,13,14
 50 469 50 469 82.5 469 c 128,-1,15
 115 469 115 469 126 468 c 1,16,17
 136 325 136 325 225 111 c 1,18,-1
 229 111 l 1,19,20
 262 174 262 174 293.5 284 c 128,-1,21
 325 394 325 394 329 467 c 1,22,23
 347 469 347 469 356 469 c 0,24,25
 403 469 403 469 434 452 c 1,26,27
 409 396 409 396 345 235.5 c 128,-1,28
 281 75 281 75 250 -18 c 128,-1,0
 219 -111 219 -111 179 -160.5 c 128,-1,1
213 607 m 0,29,30
 213 552 213 552 155 552 c 0,31,32
 110 552 110 552 110 598 c 0,33,34
 110 654 110 654 168 654 c 0,35,36
 213 654 213 654 213 607 c 0,29,30
363 607 m 0,37,38
 363 552 363 552 305 552 c 0,39,40
 260 552 260 552 260 598 c 0,41,42
 260 654 260 654 318 654 c 0,43,44
 363 654 363 654 363 607 c 0,37,38
EndSplineSet
EndChar

StartChar: dotlessi
Encoding: 305 305 191
Width: 235
GlyphClass: 2
Flags: W
LayerCount: 2
Fore
SplineSet
155 256 m 0,0,1
 155 92 155 92 173 6 c 1,2,3
 137 -4 137 -4 108 -4 c 128,-1,4
 79 -4 79 -4 67 -2 c 1,5,6
 82 134 82 134 82 247.5 c 128,-1,7
 82 361 82 361 64 458 c 1,8,9
 98 468 98 468 125 468 c 128,-1,10
 152 468 152 468 170 464 c 1,11,12
 155 309 155 309 155 256 c 0,0,1
EndSplineSet
EndChar

StartChar: Lslash
Encoding: 321 321 192
Width: 424
GlyphClass: 2
Flags: W
LayerCount: 2
Fore
SplineSet
14 222 m 1,0,1
 8 234 8 234 8 251 c 128,-1,2
 8 268 8 268 14 294 c 1,3,-1
 92 320 l 1,4,5
 92 540 92 540 75 639 c 1,6,7
 101 649 101 649 127 649 c 128,-1,8
 153 649 153 649 181 647 c 1,9,10
 167 539 167 539 167 346 c 1,11,12
 264 381 264 381 296 399 c 1,13,14
 302 387 302 387 302 369.5 c 128,-1,15
 302 352 302 352 296 327 c 1,16,-1
 167 282 l 1,17,18
 167 160 167 160 174 76 c 1,19,20
 209 73 209 73 280 73 c 128,-1,21
 351 73 351 73 404 82 c 1,22,23
 412 56 412 56 412 31.5 c 128,-1,24
 412 7 412 7 408 -11 c 1,25,26
 389 -6 389 -6 327.5 -1.5 c 128,-1,27
 266 3 266 3 205 3 c 128,-1,28
 144 3 144 3 78 -4 c 1,29,30
 88 105 88 105 92 255 c 1,31,32
 32 232 32 232 14 222 c 1,0,1
EndSplineSet
EndChar

StartChar: lslash
Encoding: 322 322 193
Width: 229
GlyphClass: 2
Flags: W
LayerCount: 2
Fore
SplineSet
6 226 m 1,0,1
 0 238 0 238 0 255 c 128,-1,2
 0 272 0 272 6 298 c 1,3,-1
 78 322 l 1,4,5
 78 486 78 486 75 543.5 c 128,-1,6
 72 601 72 601 60 672 c 1,7,8
 86 682 86 682 112 682 c 128,-1,9
 138 682 138 682 166 680 c 1,10,11
 151 557 151 557 151 362 c 2,12,-1
 151 348 l 1,13,14
 199 366 199 366 228 382 c 1,15,16
 234 370 234 370 234 353 c 128,-1,17
 234 336 234 336 228 310 c 1,18,-1
 151 284 l 1,19,20
 154 52 154 52 169 6 c 1,21,22
 136 -4 136 -4 108 -4 c 128,-1,23
 80 -4 80 -4 63 -2 c 1,24,25
 77 122 77 122 78 258 c 1,26,27
 31 240 31 240 6 226 c 1,0,1
EndSplineSet
EndChar

StartChar: OE
Encoding: 338 338 194
Width: 807
GlyphClass: 2
Flags: W
LayerCount: 2
Fore
SplineSet
495 76 m 1,0,1
 530 73 530 73 616 73 c 128,-1,2
 702 73 702 73 755 82 c 1,3,4
 763 56 763 56 763 31.5 c 128,-1,5
 763 7 763 7 759 -11 c 1,6,7
 740 -6 740 -6 679 -1.5 c 128,-1,8
 618 3 618 3 540.5 3 c 128,-1,9
 463 3 463 3 410 0 c 1,10,11
 370 -15 370 -15 310.5 -15 c 128,-1,12
 251 -15 251 -15 205.5 4 c 128,-1,13
 160 23 160 23 134 53 c 128,-1,14
 108 83 108 83 92.5 130 c 128,-1,15
 77 177 77 177 72.5 222 c 128,-1,16
 68 267 68 267 68 327 c 0,17,18
 68 655 68 655 313 655 c 0,19,20
 354 655 354 655 392 644 c 1,21,22
 449 639 449 639 532 639 c 0,23,24
 704 639 704 639 754 653 c 1,25,26
 758 635 758 635 758 613 c 128,-1,27
 758 591 758 591 750 565 c 1,28,29
 697 574 697 574 613 574 c 128,-1,30
 529 574 529 574 494 571 c 1,31,32
 488 514 488 514 488 365 c 1,33,34
 509 364 509 364 589.5 364 c 128,-1,35
 670 364 670 364 719 375 c 1,36,37
 724 343 724 343 724 322.5 c 128,-1,38
 724 302 724 302 723 289 c 1,39,40
 676 297 676 297 593.5 297 c 128,-1,41
 511 297 511 297 488 295 c 1,42,43
 488 164 488 164 495 76 c 1,0,1
228 81 m 0,44,45
 263 59 263 59 317 59 c 128,-1,46
 371 59 371 59 409 89 c 1,47,48
 413 205 413 205 413 314 c 128,-1,49
 413 423 413 423 400 568 c 1,50,51
 363 596 363 596 313 596 c 0,52,53
 227 596 227 596 187 523 c 128,-1,54
 147 450 147 450 147 326 c 0,55,56
 147 133 147 133 228 81 c 0,44,45
EndSplineSet
EndChar

StartChar: oe
Encoding: 339 339 195
Width: 749
GlyphClass: 2
Flags: W
LayerCount: 2
Fore
SplineSet
243 478 m 0,0,1
 349 478 349 478 394 397 c 1,2,3
 445 478 445 478 542 478 c 0,4,5
 614 478 614 478 657.5 434.5 c 128,-1,6
 701 391 701 391 701.5 331.5 c 128,-1,7
 702 272 702 272 691 246 c 1,8,9
 616 222 616 222 542 222 c 128,-1,10
 468 222 468 222 431 227 c 1,11,12
 431 212 431 212 430 205 c 1,13,14
 437 57 437 57 543 57 c 0,15,16
 600 57 600 57 667 119 c 1,17,18
 696 89 696 89 704 40 c 1,19,20
 621 -16 621 -16 535 -16 c 0,21,22
 433 -16 433 -16 389 64 c 1,23,24
 345 -15 345 -15 243 -15 c 0,25,26
 130 -15 130 -15 90 61 c 0,27,28
 55 126 55 126 55 237 c 0,29,30
 55 478 55 478 243 478 c 0,0,1
243 57 m 128,-1,32
 349 57 349 57 349 239.5 c 128,-1,33
 349 422 349 422 243 422 c 128,-1,34
 137 422 137 422 137 239.5 c 128,-1,31
 137 57 137 57 243 57 c 128,-1,32
535 422 m 0,35,36
 442 422 442 422 431 285 c 1,37,38
 474 280 474 280 528.5 280 c 128,-1,39
 583 280 583 280 614 290 c 1,40,41
 618 326 618 326 618 327 c 0,42,43
 618 366 618 366 598 394 c 128,-1,44
 578 422 578 422 535 422 c 0,35,36
EndSplineSet
EndChar

StartChar: Scaron
Encoding: 352 352 196
Width: 480
GlyphClass: 2
Flags: W
LayerCount: 2
Fore
SplineSet
158.5 73.5 m 128,-1,1
 202 49 202 49 253 49 c 128,-1,2
 304 49 304 49 330.5 77 c 128,-1,3
 357 105 357 105 357 145 c 128,-1,4
 357 185 357 185 325 217 c 128,-1,5
 293 249 293 249 247.5 272 c 128,-1,6
 202 295 202 295 157 320.5 c 128,-1,7
 112 346 112 346 80 389 c 128,-1,8
 48 432 48 432 48 497 c 128,-1,9
 48 562 48 562 95 608.5 c 128,-1,10
 142 655 142 655 240.5 655 c 128,-1,11
 339 655 339 655 385.5 606 c 128,-1,12
 432 557 432 557 432 478 c 0,13,14
 432 466 432 466 429 453 c 1,15,16
 404 444 404 444 377.5 444 c 128,-1,17
 351 444 351 444 339 446 c 1,18,19
 340 454 340 454 340 467 c 0,20,21
 340 525 340 525 309.5 560.5 c 128,-1,22
 279 596 279 596 233 596 c 128,-1,23
 187 596 187 596 160.5 571.5 c 128,-1,24
 134 547 134 547 134 502.5 c 128,-1,25
 134 458 134 458 165.5 425.5 c 128,-1,26
 197 393 197 393 242.5 369 c 128,-1,27
 288 345 288 345 333.5 318.5 c 128,-1,28
 379 292 379 292 410.5 247.5 c 128,-1,29
 442 203 442 203 442 137.5 c 128,-1,30
 442 72 442 72 388.5 28.5 c 128,-1,31
 335 -15 335 -15 257 -15 c 0,32,33
 116 -15 116 -15 35 61 c 1,34,35
 39 85 39 85 51.5 105 c 128,-1,36
 64 125 64 125 74 132 c 2,37,-1
 85 140 l 1,38,0
 115 98 115 98 158.5 73.5 c 128,-1,1
111 835 m 1,39,40
 179 814 179 814 238 783 c 1,41,42
 325 823 325 823 373 835 c 1,43,44
 385 817 385 817 388 796 c 1,45,46
 355 777 355 777 330 763 c 0,47,48
 276 732 276 732 238 694 c 1,49,50
 194 736 194 736 95 797 c 1,51,52
 98 818 98 818 111 835 c 1,39,40
EndSplineSet
EndChar

StartChar: scaron
Encoding: 353 353 197
Width: 404
GlyphClass: 2
Flags: W
LayerCount: 2
Fore
SplineSet
364 126 m 0,0,1
 364 55 364 55 318 20 c 128,-1,2
 272 -15 272 -15 203 -15 c 0,3,4
 107 -15 107 -15 35 40 c 1,5,6
 39 62 39 62 50.5 83.5 c 128,-1,7
 62 105 62 105 72 116 c 2,8,-1
 81 126 l 1,9,10
 133 52 133 52 205 52 c 0,11,12
 240 52 240 52 262.5 67 c 128,-1,13
 285 82 285 82 285 108.5 c 128,-1,14
 285 135 285 135 260.5 156 c 128,-1,15
 236 177 236 177 201 191.5 c 128,-1,16
 166 206 166 206 131 222.5 c 128,-1,17
 96 239 96 239 71.5 270 c 128,-1,18
 47 301 47 301 47 344 c 0,19,20
 47 406 47 406 87 442 c 128,-1,21
 127 478 127 478 207.5 478 c 128,-1,22
 288 478 288 478 323.5 443 c 128,-1,23
 359 408 359 408 359 333 c 1,24,25
 337 325 337 325 318 325 c 128,-1,26
 299 325 299 325 271 331 c 1,27,28
 273 345 273 345 273 353 c 0,29,30
 273 384 273 384 255 404.5 c 128,-1,31
 237 425 237 425 203.5 425 c 128,-1,32
 170 425 170 425 148 409.5 c 128,-1,33
 126 394 126 394 126 362.5 c 128,-1,34
 126 331 126 331 150.5 308 c 128,-1,35
 175 285 175 285 210 270.5 c 128,-1,36
 245 256 245 256 280 240.5 c 128,-1,37
 315 225 315 225 339.5 196.5 c 128,-1,38
 364 168 364 168 364 126 c 0,0,1
89 672 m 1,39,-1
 203 609 l 1,40,41
 236 627 236 627 317 672 c 1,42,43
 333 654 333 654 337 635 c 1,44,45
 319 620 319 620 290 596 c 0,46,47
 229 545 229 545 203 518 c 1,48,49
 177 545 177 545 132 582.5 c 128,-1,50
 87 620 87 620 69 635 c 1,51,52
 74 656 74 656 89 672 c 1,39,-1
EndSplineSet
EndChar

StartChar: Ydieresis
Encoding: 376 376 198
Width: 494
GlyphClass: 2
Flags: W
LayerCount: 2
Fore
SplineSet
17 634 m 1,0,1
 57 651 57 651 89.5 651 c 128,-1,2
 122 651 122 651 133 650 c 1,3,4
 139 575 139 575 180 478 c 0,5,6
 196 442 196 442 222.5 383 c 128,-1,7
 249 324 249 324 262 293 c 1,8,-1
 266 293 l 1,9,10
 301 360 301 360 336.5 469.5 c 128,-1,11
 372 579 372 579 376 649 c 1,12,13
 394 651 394 651 403 651 c 0,14,15
 450 651 450 651 481 634 c 1,16,17
 480 631 480 631 447.5 560.5 c 128,-1,18
 415 490 415 490 390 434 c 0,19,20
 315 266 315 266 297 194 c 1,21,22
 302 31 302 31 313 2 c 1,23,24
 280 -8 280 -8 252 -8 c 128,-1,25
 224 -8 224 -8 207 -6 c 1,26,27
 217 76 217 76 220 197 c 1,28,29
 197 270 197 270 152.5 362.5 c 128,-1,30
 108 455 108 455 68.5 532.5 c 128,-1,31
 29 610 29 610 17 634 c 1,0,1
384 759 m 0,32,33
 384 704 384 704 326 704 c 0,34,35
 281 704 281 704 281 750 c 0,36,37
 281 806 281 806 339 806 c 0,38,39
 384 806 384 806 384 759 c 0,32,33
234 759 m 0,40,41
 234 704 234 704 176 704 c 0,42,43
 131 704 131 704 131 750 c 0,44,45
 131 806 131 806 189 806 c 0,46,47
 234 806 234 806 234 759 c 0,40,41
EndSplineSet
EndChar

StartChar: Zcaron
Encoding: 381 381 199
Width: 486
GlyphClass: 2
Flags: W
LayerCount: 2
Fore
SplineSet
270 573 m 2,0,1
 129 573 129 573 54 553 c 1,2,3
 45 583 45 583 45 601 c 128,-1,4
 45 619 45 619 51 646 c 1,5,6
 103 639 103 639 250 639 c 128,-1,7
 397 639 397 639 451 645 c 1,8,9
 456 635 456 635 456 607 c 1,10,11
 413 526 413 526 296 320 c 128,-1,12
 179 114 179 114 158 76 c 1,13,14
 204 73 204 73 298 73 c 128,-1,15
 392 73 392 73 445 82 c 1,16,17
 453 56 453 56 453 31.5 c 128,-1,18
 453 7 453 7 449 -11 c 1,19,20
 431 -6 431 -6 350 -1.5 c 128,-1,21
 269 3 269 3 186.5 3 c 128,-1,22
 104 3 104 3 37 -4 c 1,23,24
 31 11 31 11 30 32 c 1,25,26
 72 98 72 98 187.5 297.5 c 128,-1,27
 303 497 303 497 350 573 c 1,28,-1
 270 573 l 2,0,1
111 835 m 1,29,30
 179 814 179 814 238 783 c 1,31,32
 325 823 325 823 373 835 c 1,33,34
 385 817 385 817 388 796 c 1,35,36
 355 777 355 777 330 763 c 0,37,38
 276 732 276 732 238 694 c 1,39,40
 194 736 194 736 95 797 c 1,41,42
 98 818 98 818 111 835 c 1,29,30
EndSplineSet
EndChar

StartChar: zcaron
Encoding: 382 382 200
Width: 400
GlyphClass: 2
Flags: W
LayerCount: 2
Fore
SplineSet
199 397 m 2,0,1
 110 397 110 397 39 378 c 1,2,3
 30 408 30 408 30 426 c 128,-1,4
 30 444 30 444 36 471 c 1,5,6
 88 464 88 464 197 464 c 128,-1,7
 306 464 306 464 360 470 c 1,8,9
 365 460 365 460 365 432 c 1,10,11
 324 355 324 355 248 240.5 c 128,-1,12
 172 126 172 126 142 74 c 1,13,-1
 186 74 l 2,14,15
 287 74 287 74 352 93 c 1,16,17
 362 62 362 62 362 39 c 128,-1,18
 362 16 362 16 357 -7 c 1,19,20
 271 2 271 2 187 2 c 128,-1,21
 103 2 103 2 22 -4 c 1,22,23
 16 11 16 11 15 32 c 1,24,25
 58 99 58 99 144.5 221.5 c 128,-1,26
 231 344 231 344 267 397 c 1,27,-1
 199 397 l 2,0,1
80 672 m 1,28,-1
 194 609 l 1,29,30
 227 627 227 627 308 672 c 1,31,32
 324 654 324 654 328 635 c 1,33,34
 310 620 310 620 280 596 c 1,35,36
 220 545 220 545 194 518 c 1,37,38
 168 545 168 545 123 582.5 c 128,-1,39
 78 620 78 620 60 635 c 1,40,41
 65 656 65 656 80 672 c 1,28,-1
EndSplineSet
EndChar

StartChar: florin
Encoding: 402 402 201
Width: 436
GlyphClass: 2
Flags: W
LayerCount: 2
Fore
SplineSet
214 274 m 1,0,1
 227 -64 227 -64 227 -69 c 0,2,3
 227 -142 227 -142 190 -176 c 128,-1,4
 153 -210 153 -210 91 -210 c 128,-1,5
 29 -210 29 -210 -32 -188 c 1,6,-1
 -33 -175 l 1,7,8
 -33 -136 -33 -136 -15 -102 c 1,9,10
 49 -137 49 -137 86.5 -137 c 128,-1,11
 124 -137 124 -137 134.5 -104 c 128,-1,12
 145 -71 145 -71 145 8 c 128,-1,13
 145 87 145 87 133 275 c 1,14,-1
 43 275 l 1,15,16
 35 291 35 291 35 305 c 128,-1,17
 35 319 35 319 38 331 c 1,18,-1
 130 331 l 1,19,20
 126 433 126 433 126 474 c 0,21,22
 126 574 126 574 164.5 620 c 128,-1,23
 203 666 203 666 285.5 666 c 128,-1,24
 368 666 368 666 402 623 c 128,-1,25
 436 580 436 580 436 519 c 0,26,27
 436 506 436 506 433 494 c 1,28,29
 416 485 416 485 387 485 c 128,-1,30
 358 485 358 485 343 489 c 1,31,32
 344 497 344 497 344 508 c 0,33,34
 344 607 344 607 282 607 c 0,35,36
 237 607 237 607 223.5 569.5 c 128,-1,37
 210 532 210 532 210 453.5 c 128,-1,38
 210 375 210 375 212 332 c 1,39,40
 300 334 300 334 371 339 c 1,41,42
 378 325 378 325 378 304.5 c 128,-1,43
 378 284 378 284 374 269 c 1,44,45
 322 272 322 272 214 274 c 1,0,1
EndSplineSet
EndChar

StartChar: circumflex
Encoding: 710 710 202
Width: 488
GlyphClass: 2
Flags: W
LayerCount: 2
Fore
SplineSet
358 528 m 1,0,1
 358 528 358 528 244 591 c 1,2,3
 211 573 211 573 130 528 c 1,4,5
 114 546 114 546 110 565 c 1,6,7
 128 580 128 580 158 604 c 1,8,9
 218 655 218 655 244 682 c 1,10,11
 270 655 270 655 315 617.5 c 128,-1,12
 360 580 360 580 378 565 c 1,13,14
 373 544 373 544 358 528 c 1,0,1
EndSplineSet
EndChar

StartChar: caron
Encoding: 711 711 203
Width: 488
GlyphClass: 2
Flags: W
LayerCount: 2
Fore
SplineSet
130 672 m 1,0,1
 130 672 130 672 244 609 c 1,2,3
 277 627 277 627 358 672 c 1,4,5
 374 654 374 654 378 635 c 1,6,7
 360 620 360 620 330 596 c 1,8,9
 270 545 270 545 244 518 c 1,10,11
 218 545 218 545 173 582.5 c 128,-1,12
 128 620 128 620 110 635 c 1,13,14
 115 656 115 656 130 672 c 1,0,1
EndSplineSet
EndChar

StartChar: breve
Encoding: 728 728 204
Width: 474
GlyphClass: 2
Flags: W
LayerCount: 2
Fore
SplineSet
237 599 m 128,-1,1
 275 599 275 599 297 617.5 c 128,-1,2
 319 636 319 636 336 672 c 1,3,4
 359 660 359 660 364 635 c 1,5,6
 348 591 348 591 314.5 559.5 c 128,-1,7
 281 528 281 528 237 528 c 128,-1,8
 193 528 193 528 159.5 559.5 c 128,-1,9
 126 591 126 591 110 635 c 1,10,11
 115 660 115 660 138 672 c 1,12,13
 156 636 156 636 177.5 617.5 c 128,-1,0
 199 599 199 599 237 599 c 128,-1,1
EndSplineSet
EndChar

StartChar: dotaccent
Encoding: 729 729 205
Width: 235
GlyphClass: 2
Flags: W
LayerCount: 2
Fore
SplineSet
174 623 m 0,0,1
 174 561 174 561 110 561 c 0,2,3
 60 561 60 561 60 612 c 0,4,5
 60 675 60 675 124 675 c 0,6,7
 174 675 174 675 174 623 c 0,0,1
EndSplineSet
EndChar

StartChar: ring
Encoding: 730 730 206
Width: 386
GlyphClass: 2
Flags: W
LayerCount: 2
Fore
SplineSet
257 673.5 m 128,-1,1
 274 654 274 654 274 613.5 c 128,-1,2
 274 573 274 573 252.5 550 c 128,-1,3
 231 527 231 527 185 527 c 0,4,5
 110 527 110 527 110 610 c 128,-1,6
 110 693 110 693 199 693 c 0,7,0
 240 693 240 693 257 673.5 c 128,-1,1
197 656 m 0,8,9
 149 656 149 656 149 611 c 0,10,11
 149 585 149 585 158 574.5 c 128,-1,12
 167 564 167 564 187 564 c 0,13,14
 235 564 235 564 235 612 c 0,15,16
 235 656 235 656 197 656 c 0,8,9
EndSplineSet
EndChar

StartChar: ogonek
Encoding: 731 731 207
Width: 320
GlyphClass: 2
Flags: W
LayerCount: 2
Fore
SplineSet
121 -115 m 0,0,1
 121 -156 121 -156 163 -156 c 0,2,3
 217 -156 217 -156 254 -105 c 1,4,5
 270 -131 270 -131 270 -167 c 1,6,7
 226 -210 226 -210 156 -210 c 0,8,9
 106 -210 106 -210 78 -184.5 c 128,-1,10
 50 -159 50 -159 50 -117.5 c 128,-1,11
 50 -76 50 -76 87 -36.5 c 128,-1,12
 124 3 124 3 189 21 c 1,13,-1
 228 3 l 1,14,15
 179 -13 179 -13 150 -48 c 128,-1,16
 121 -83 121 -83 121 -115 c 0,0,1
EndSplineSet
EndChar

StartChar: tilde
Encoding: 732 732 208
Width: 508
GlyphClass: 2
Flags: W
LayerCount: 2
Fore
SplineSet
153 620.5 m 128,-1,1
 182 643 182 643 208 643 c 128,-1,2
 234 643 234 643 265.5 626.5 c 128,-1,3
 297 610 297 610 314 610 c 0,4,5
 339 610 339 610 364 650 c 1,6,7
 391 638 391 638 398 617 c 1,8,9
 384 590 384 590 355 567 c 128,-1,10
 326 544 326 544 299.5 544 c 128,-1,11
 273 544 273 544 241.5 560.5 c 128,-1,12
 210 577 210 577 188.5 577 c 128,-1,13
 167 577 167 577 142 537 c 1,14,15
 117 549 117 549 110 570 c 1,16,0
 124 598 124 598 153 620.5 c 128,-1,1
EndSplineSet
EndChar

StartChar: hungarumlaut
Encoding: 733 733 209
Width: 848
GlyphClass: 2
Flags: W
LayerCount: 2
Fore
SplineSet
146 528 m 1,0,1
 130 540 130 540 118 565 c 1,2,3
 134 578 134 578 158.5 597 c 128,-1,4
 183 616 183 616 194 626 c 0,5,6
 223 649 223 649 254 682 c 1,7,8
 281 664 281 664 294.5 648 c 128,-1,9
 308 632 308 632 314 603 c 1,10,11
 228 567 228 567 146 528 c 1,0,1
336 528 m 1,12,13
 320 540 320 540 308 565 c 1,14,15
 324 578 324 578 348.5 597 c 128,-1,16
 373 616 373 616 384 626 c 0,17,18
 413 649 413 649 444 682 c 1,19,20
 471 664 471 664 484.5 648 c 128,-1,21
 498 632 498 632 504 603 c 1,22,23
 386 553 386 553 336 528 c 1,12,13
EndSplineSet
EndChar

StartChar: pi
Encoding: 960 960 210
Width: 621
GlyphClass: 2
Flags: W
LayerCount: 2
Fore
SplineSet
486 256 m 0,0,1
 486 92 486 92 504 6 c 1,2,3
 468 -4 468 -4 444 -4 c 128,-1,4
 420 -4 420 -4 398 -2 c 1,5,6
 413 134 413 134 413 226.5 c 128,-1,7
 413 319 413 319 403 402 c 1,8,9
 364 403 364 403 305 403 c 128,-1,10
 246 403 246 403 224 402 c 1,11,12
 216 308 216 308 216 256 c 0,13,14
 216 92 216 92 234 6 c 1,15,16
 198 -4 198 -4 174 -4 c 128,-1,17
 150 -4 150 -4 128 -2 c 1,18,19
 143 134 143 134 143 221.5 c 128,-1,20
 143 309 143 309 134 397 c 1,21,22
 63 391 63 391 55 389 c 1,23,24
 50 404 50 404 50 428.5 c 128,-1,25
 50 453 50 453 59 477 c 1,26,27
 144 468 144 468 263 468 c 0,28,29
 507 468 507 468 566 482 c 1,30,31
 571 467 571 467 571 442.5 c 128,-1,32
 571 418 571 418 562 394 c 1,33,34
 538 396 538 396 494 398 c 1,35,36
 486 306 486 306 486 256 c 0,0,1
EndSplineSet
EndChar

StartChar: endash
Encoding: 8211 8211 211
Width: 502
GlyphClass: 2
Flags: W
LayerCount: 2
Fore
SplineSet
474 215 m 1,0,1
 376 224 376 224 276.5 224 c 128,-1,2
 177 224 177 224 110 219 c 128,-1,3
 43 214 43 214 24 210 c 1,4,5
 20 224 20 224 20 248 c 128,-1,6
 20 272 20 272 28 298 c 1,7,8
 102 289 102 289 203 289 c 128,-1,9
 304 289 304 289 382 293.5 c 128,-1,10
 460 298 460 298 478 303 c 1,11,12
 482 285 482 285 482 263 c 128,-1,13
 482 241 482 241 474 215 c 1,0,1
EndSplineSet
EndChar

StartChar: emdash
Encoding: 8212 8212 212
Width: 731
GlyphClass: 2
Flags: W
LayerCount: 2
Fore
SplineSet
697 215 m 1,0,1
 533 224 533 224 399 224 c 128,-1,2
 265 224 265 224 162 219 c 128,-1,3
 59 214 59 214 26 210 c 1,4,5
 20 224 20 224 20 248.5 c 128,-1,6
 20 273 20 273 34 298 c 1,7,8
 157 289 157 289 314 289 c 0,9,10
 618 289 618 289 705 303 c 1,11,12
 711 285 711 285 711 262.5 c 128,-1,13
 711 240 711 240 697 215 c 1,0,1
EndSplineSet
EndChar

StartChar: quoteleft
Encoding: 8216 8216 213
Width: 261
GlyphClass: 2
Flags: W
LayerCount: 2
Fore
SplineSet
196 682 m 1,0,1
 201 667 201 667 201 657.5 c 128,-1,2
 201 648 201 648 198 633 c 1,3,4
 131 633 131 633 131 564 c 0,5,6
 131 539 131 539 157 536 c 0,7,8
 195 533 195 533 195 487 c 0,9,10
 195 452 195 452 178.5 433.5 c 128,-1,11
 162 415 162 415 119 415 c 0,12,13
 60 415 60 415 60 495 c 128,-1,14
 60 575 60 575 92 628.5 c 128,-1,15
 124 682 124 682 196 682 c 1,0,1
EndSplineSet
EndChar

StartChar: quoteright
Encoding: 8217 8217 214
Width: 261
GlyphClass: 2
Flags: W
LayerCount: 2
Fore
SplineSet
65 415 m 1,0,1
 60 430 60 430 60 439.5 c 128,-1,2
 60 449 60 449 63 464 c 1,3,4
 130 464 130 464 130 533 c 0,5,6
 130 558 130 558 104 561 c 0,7,8
 66 564 66 564 66 610 c 0,9,10
 66 645 66 645 82.5 663.5 c 128,-1,11
 99 682 99 682 142 682 c 0,12,13
 201 682 201 682 201 602 c 128,-1,14
 201 522 201 522 169 468.5 c 128,-1,15
 137 415 137 415 65 415 c 1,0,1
EndSplineSet
EndChar

StartChar: quotesinglbase
Encoding: 8218 8218 215
Width: 281
GlyphClass: 2
Flags: W
LayerCount: 2
Fore
SplineSet
85 -152 m 1,0,1
 80 -137 80 -137 80 -127.5 c 128,-1,2
 80 -118 80 -118 83 -103 c 1,3,4
 150 -103 150 -103 150 -34 c 0,5,6
 150 -9 150 -9 124 -6 c 0,7,8
 86 -3 86 -3 86 43 c 0,9,10
 86 78 86 78 102.5 96.5 c 128,-1,11
 119 115 119 115 162 115 c 0,12,13
 221 115 221 115 221 35 c 128,-1,14
 221 -45 221 -45 189 -98.5 c 128,-1,15
 157 -152 157 -152 85 -152 c 1,0,1
EndSplineSet
EndChar

StartChar: quotedblleft
Encoding: 8220 8220 216
Width: 442
GlyphClass: 2
Flags: W
LayerCount: 2
Fore
SplineSet
196 682 m 1,0,1
 201 667 201 667 201 657.5 c 128,-1,2
 201 648 201 648 198 633 c 1,3,4
 131 633 131 633 131 564 c 0,5,6
 131 539 131 539 157 536 c 0,7,8
 195 533 195 533 195 487 c 0,9,10
 195 452 195 452 178.5 433.5 c 128,-1,11
 162 415 162 415 119 415 c 0,12,13
 60 415 60 415 60 495 c 128,-1,14
 60 575 60 575 92 628.5 c 128,-1,15
 124 682 124 682 196 682 c 1,0,1
377 682 m 1,16,17
 382 667 382 667 382 657.5 c 128,-1,18
 382 648 382 648 379 633 c 1,19,20
 312 633 312 633 312 564 c 0,21,22
 312 539 312 539 338 536 c 0,23,24
 376 533 376 533 376 487 c 0,25,26
 376 452 376 452 359.5 433.5 c 128,-1,27
 343 415 343 415 300 415 c 0,28,29
 241 415 241 415 241 495 c 128,-1,30
 241 575 241 575 273 628.5 c 128,-1,31
 305 682 305 682 377 682 c 1,16,17
EndSplineSet
EndChar

StartChar: quotedblright
Encoding: 8221 8221 217
Width: 442
GlyphClass: 2
Flags: W
LayerCount: 2
Fore
SplineSet
65 415 m 1,0,1
 60 430 60 430 60 439.5 c 128,-1,2
 60 449 60 449 63 464 c 1,3,4
 130 464 130 464 130 533 c 0,5,6
 130 558 130 558 104 561 c 0,7,8
 66 564 66 564 66 610 c 0,9,10
 66 645 66 645 82.5 663.5 c 128,-1,11
 99 682 99 682 142 682 c 0,12,13
 201 682 201 682 201 602 c 128,-1,14
 201 522 201 522 169 468.5 c 128,-1,15
 137 415 137 415 65 415 c 1,0,1
246 415 m 1,16,17
 241 430 241 430 241 439.5 c 128,-1,18
 241 449 241 449 244 464 c 1,19,20
 311 464 311 464 311 533 c 0,21,22
 311 558 311 558 285 561 c 0,23,24
 247 564 247 564 247 610 c 0,25,26
 247 645 247 645 263.5 663.5 c 128,-1,27
 280 682 280 682 323 682 c 0,28,29
 382 682 382 682 382 602 c 128,-1,30
 382 522 382 522 350 468.5 c 128,-1,31
 318 415 318 415 246 415 c 1,16,17
EndSplineSet
EndChar

StartChar: quotedblbase
Encoding: 8222 8222 218
Width: 462
GlyphClass: 2
Flags: W
LayerCount: 2
Fore
SplineSet
85 -152 m 1,0,1
 80 -137 80 -137 80 -127.5 c 128,-1,2
 80 -118 80 -118 83 -103 c 1,3,4
 150 -103 150 -103 150 -34 c 0,5,6
 150 -9 150 -9 124 -6 c 0,7,8
 86 -3 86 -3 86 43 c 0,9,10
 86 78 86 78 102.5 96.5 c 128,-1,11
 119 115 119 115 162 115 c 0,12,13
 221 115 221 115 221 35 c 128,-1,14
 221 -45 221 -45 189 -98.5 c 128,-1,15
 157 -152 157 -152 85 -152 c 1,0,1
266 -152 m 1,16,17
 261 -137 261 -137 261 -127.5 c 128,-1,18
 261 -118 261 -118 264 -103 c 1,19,20
 331 -103 331 -103 331 -34 c 0,21,22
 331 -9 331 -9 305 -6 c 0,23,24
 267 -3 267 -3 267 43 c 0,25,26
 267 78 267 78 283.5 96.5 c 128,-1,27
 300 115 300 115 343 115 c 0,28,29
 402 115 402 115 402 35 c 128,-1,30
 402 -45 402 -45 370 -98.5 c 128,-1,31
 338 -152 338 -152 266 -152 c 1,16,17
EndSplineSet
EndChar

StartChar: dagger
Encoding: 8224 8224 219
Width: 427
GlyphClass: 2
Flags: W
LayerCount: 2
Fore
SplineSet
249 338 m 2,0,1
 249 52 249 52 266 -2 c 1,2,3
 233 -12 233 -12 205 -12 c 128,-1,4
 177 -12 177 -12 160 -10 c 1,5,6
 174 107 174 107 174 258 c 128,-1,7
 174 409 174 409 173 452 c 1,8,9
 43 446 43 446 13 438 c 1,10,11
 10 452 10 452 10 478 c 128,-1,12
 10 504 10 504 17 526 c 1,13,14
 84 517 84 517 171 517 c 1,15,16
 166 593 166 593 157 645 c 1,17,18
 183 655 183 655 209 655 c 128,-1,19
 235 655 235 655 263 653 c 1,20,21
 256 597 256 597 252 517 c 1,22,23
 378 520 378 520 414 531 c 1,24,25
 417 518 417 518 417 491.5 c 128,-1,26
 417 465 417 465 410 443 c 1,27,28
 339 450 339 450 249 452 c 1,29,-1
 249 338 l 2,0,1
EndSplineSet
EndChar

StartChar: daggerdbl
Encoding: 8225 8225 220
Width: 427
GlyphClass: 2
Flags: W
LayerCount: 2
Fore
SplineSet
249 338 m 2,0,1
 249 240 249 240 251 191 c 1,2,3
 376 194 376 194 412 205 c 1,4,5
 415 191 415 191 415 165 c 128,-1,6
 415 139 415 139 408 117 c 1,7,8
 353 124 353 124 254 126 c 1,9,10
 259 17 259 17 266 -2 c 1,11,12
 233 -12 233 -12 205 -12 c 128,-1,13
 177 -12 177 -12 160 -10 c 1,14,15
 167 43 167 43 170 126 c 1,16,17
 41 120 41 120 11 112 c 1,18,19
 8 125 8 125 8 151.5 c 128,-1,20
 8 178 8 178 15 200 c 1,21,22
 99 191 99 191 172 191 c 1,23,24
 174 271 174 271 174 340 c 128,-1,25
 174 409 174 409 173 452 c 1,26,27
 43 446 43 446 13 438 c 1,28,29
 10 452 10 452 10 478 c 128,-1,30
 10 504 10 504 17 526 c 1,31,32
 84 517 84 517 171 517 c 1,33,34
 166 593 166 593 157 645 c 1,35,36
 183 655 183 655 209 655 c 128,-1,37
 235 655 235 655 263 653 c 1,38,39
 256 597 256 597 252 517 c 1,40,41
 378 520 378 520 414 531 c 1,42,43
 417 518 417 518 417 491.5 c 128,-1,44
 417 465 417 465 410 443 c 1,45,46
 339 450 339 450 249 452 c 1,47,-1
 249 338 l 2,0,1
EndSplineSet
EndChar

StartChar: bullet
Encoding: 8226 8226 221
Width: 302
GlyphClass: 2
Flags: W
LayerCount: 2
Fore
SplineSet
242 335 m 0,0,1
 242 292 242 292 217 264.5 c 128,-1,2
 192 237 192 237 140 237 c 0,3,4
 60 237 60 237 60 318 c 0,5,6
 60 419 60 419 162 419 c 0,7,8
 242 419 242 419 242 335 c 0,0,1
EndSplineSet
EndChar

